<svg width="101" height="100" viewBox="0 0 101 100" fill="none" xmlns="http://www.w3.org/2000/svg">
<path d="M0.75 50.0001C0.75 22.3859 23.1358 0.00012207 50.75 0.00012207C78.3642 0.00012207 100.75 22.3859 100.75 50.0001C100.75 77.6144 78.3642 100 50.75 100C23.1358 100 0.75 77.6144 0.75 50.0001Z" fill="#00B900"/>
<path d="M51.583 23.3334C34.583 23.3334 20.75 34.4771 20.75 48.1745C20.75 60.4543 31.7192 70.7382 46.5364 72.6829C47.5407 72.8977 48.9072 73.3402 49.253 74.1922C49.5639 74.9662 49.4563 76.1786 49.3523 76.9603C49.3523 76.9603 48.9906 79.1203 48.9125 79.5804C48.7784 80.3544 48.2931 82.6072 51.583 81.2305C54.8742 79.8538 69.3402 70.8503 75.809 63.4582C80.2764 58.5935 82.4167 53.6566 82.4167 48.1745C82.4167 34.4771 68.5854 23.3334 51.583 23.3334Z" fill="white"/>
<path d="M43.0123 41.6668C42.6838 41.6668 42.4167 41.9424 42.4167 42.2811V56.0524C42.4167 56.3917 42.6838 56.6668 43.0123 56.6668H45.1551C45.4836 56.6668 45.7501 56.3917 45.7501 56.0524V42.2811C45.7501 41.9424 45.4836 41.6668 45.1551 41.6668H43.0123Z" fill="#00B900"/>
<path d="M60.1235 41.6668H57.8678C57.5219 41.6668 57.2414 41.9424 57.2414 42.2811V50.4627L50.8201 41.94C50.8053 41.9182 50.7887 41.8976 50.7714 41.8776L50.7671 41.874C50.7548 41.86 50.7424 41.8479 50.7295 41.8358C50.7258 41.8322 50.7221 41.8292 50.7178 41.8255C50.7073 41.8158 50.6962 41.8067 50.6845 41.7983C50.6796 41.7934 50.674 41.7898 50.6685 41.7855C50.6574 41.7783 50.6469 41.7704 50.6358 41.7637C50.6296 41.7595 50.6235 41.7558 50.6167 41.7528C50.6056 41.7461 50.5945 41.7395 50.5834 41.734C50.5766 41.731 50.5704 41.7274 50.5637 41.7249C50.5519 41.7195 50.5402 41.714 50.5279 41.7098C50.5205 41.7074 50.5143 41.7049 50.5076 41.7025C50.4952 41.6983 50.4829 41.694 50.47 41.691C50.4632 41.6886 50.4558 41.6874 50.4484 41.685C50.436 41.6825 50.4243 41.6795 50.4126 41.6771C50.404 41.6759 50.3947 41.6747 50.3861 41.674C50.375 41.6716 50.3639 41.671 50.3528 41.6698C50.3423 41.6686 50.3319 41.6686 50.3208 41.668C50.3127 41.668 50.3066 41.6668 50.2986 41.6668H48.0435C47.6976 41.6668 47.4165 41.9424 47.4165 42.2811V56.0524C47.4165 56.3917 47.6976 56.6668 48.0435 56.6668H50.2986C50.645 56.6668 50.9255 56.3917 50.9255 56.0524V47.8733L57.3549 56.4069C57.3992 56.4687 57.4541 56.519 57.5139 56.5589C57.5158 56.5602 57.5182 56.562 57.5201 56.5638C57.533 56.5717 57.546 56.5795 57.5589 56.5868C57.5651 56.5904 57.5706 56.5929 57.5768 56.5959C57.586 56.6013 57.5965 56.6062 57.6064 56.6104C57.6169 56.6147 57.6261 56.6189 57.6372 56.6232C57.6434 56.6256 57.6495 56.628 57.6557 56.6298C57.6705 56.6353 57.6841 56.6395 57.6982 56.6438C57.7013 56.6438 57.7044 56.645 57.7075 56.6456C57.7587 56.6589 57.8123 56.6668 57.8678 56.6668H60.1235C60.47 56.6668 60.7498 56.3917 60.7498 56.0524V42.2811C60.7498 41.9424 60.47 41.6668 60.1235 41.6668Z" fill="#00B900"/>
<path d="M40.1409 53.2183H34.1686V42.2823C34.1686 41.9424 33.8953 41.6668 33.5589 41.6668H31.3603C31.0233 41.6668 30.75 41.9424 30.75 42.2823V56.0506V56.0519C30.75 56.2172 30.8155 56.3669 30.9206 56.4772C30.923 56.4802 30.9254 56.4832 30.929 56.4862C30.932 56.4893 30.935 56.4917 30.938 56.4947C31.048 56.6014 31.1957 56.6668 31.3597 56.6668H40.1409C40.4779 56.6668 40.75 56.3905 40.75 56.0506V53.8339C40.75 53.494 40.4779 53.2183 40.1409 53.2183Z" fill="#00B900"/>
<path d="M71.8076 45.1152C72.1446 45.1152 72.4168 44.8402 72.4168 44.4997V42.2829C72.4168 41.943 72.1446 41.6668 71.8076 41.6668H63.0271H63.0259C62.8613 41.6668 62.7129 41.7334 62.603 41.8407C62.6006 41.8431 62.5976 41.8449 62.5958 41.8473C62.5922 41.851 62.5892 41.8546 62.5861 41.8582C62.4816 41.9685 62.4167 42.1175 62.4167 42.2823V42.2829V56.0512V56.0519C62.4167 56.2172 62.4822 56.3669 62.5873 56.4772C62.5898 56.4802 62.5928 56.4838 62.5958 56.4862C62.5982 56.4893 62.6018 56.4923 62.6048 56.4947C62.7141 56.6007 62.8625 56.6668 63.0259 56.6668H71.8076C72.1446 56.6668 72.4168 56.3905 72.4168 56.0512V53.8339C72.4168 53.4946 72.1446 53.2183 71.8076 53.2183H65.836V50.8907H71.8076C72.1446 50.8907 72.4168 50.615 72.4168 50.2752V48.0584C72.4168 47.7185 72.1446 47.4423 71.8076 47.4423H65.836V45.1152H71.8076Z" fill="#00B900"/>
</svg>
