<svg width="101" height="100" viewBox="0 0 101 100" fill="none" xmlns="http://www.w3.org/2000/svg">
<path d="M0.75 50.0001C0.75 22.3859 23.1358 0.00012207 50.75 0.00012207C78.3642 0.00012207 100.75 22.3859 100.75 50.0001C100.75 77.6144 78.3642 100 50.75 100C23.1358 100 0.75 77.6144 0.75 50.0001Z" fill="#55ACEE"/>
<path d="M49.2525 40.6406L49.3574 42.3707L47.6087 42.1589C41.2435 41.3468 35.6826 38.5927 30.9611 33.9673L28.6528 31.6723L28.0583 33.3671C26.7992 37.1451 27.6036 41.1349 30.2267 43.8184C31.6256 45.3013 31.3109 45.5132 28.8977 44.6305C28.0583 44.348 27.3238 44.1362 27.2539 44.2421C27.0091 44.4892 27.8484 47.7023 28.5129 48.9734C29.4223 50.7388 31.2759 52.4689 33.3044 53.4929L35.0181 54.305L32.9896 54.3403C31.0311 54.3403 30.9611 54.3756 31.171 55.1171C31.8704 57.4121 34.6334 59.8484 37.7111 60.9077L39.8795 61.6491L37.9909 62.779C35.193 64.4032 31.9054 65.3212 28.6179 65.3918C27.044 65.4271 25.75 65.5684 25.75 65.6743C25.75 66.0274 30.0168 68.0047 32.5 68.7814C39.9494 71.0765 48.7978 70.0879 55.4429 66.1686C60.1644 63.3793 64.8859 57.8358 67.0892 52.4689C68.2783 49.609 69.4675 44.3833 69.4675 41.8764C69.4675 40.2522 69.5724 40.0404 71.5309 38.0984C72.6851 36.9685 73.7693 35.7328 73.9791 35.3797C74.3288 34.7088 74.2939 34.7088 72.5102 35.3091C69.5374 36.3683 69.1177 36.2271 70.5866 34.6382C71.6708 33.5083 72.9649 31.4604 72.9649 30.8602C72.9649 30.7543 72.4403 30.9308 71.8457 31.2486C71.2162 31.6017 69.8172 32.1313 68.768 32.4491L66.8794 33.0493L65.1657 31.8841C64.2214 31.2486 62.8924 30.5424 62.1929 30.3306C60.4092 29.8362 57.6812 29.9069 56.0724 30.4718C51.7007 32.0607 48.9377 36.1565 49.2525 40.6406Z" fill="white"/>
</svg>
