<svg width="100" height="100" viewBox="0 0 100 100" fill="none" xmlns="http://www.w3.org/2000/svg">
<path d="M50 100C77.6142 100 100 77.6142 100 50C100 22.3858 77.6142 0 50 0C22.3858 0 0 22.3858 0 50C0 77.6142 22.3858 100 50 100Z" fill="#25D366"/>
<path fill-rule="evenodd" clip-rule="evenodd" d="M51.648 77.8179H51.6357C46.6597 77.8162 41.7703 76.5677 37.4277 74.199L21.6666 78.3335L25.8845 62.9269C23.2827 58.4179 21.9136 53.3033 21.9158 48.0632C21.9223 31.6704 35.2599 18.3335 51.6477 18.3335C59.6012 18.3369 67.0662 21.4332 72.6795 27.0531C78.2928 32.6727 81.3825 40.1425 81.3794 48.0866C81.3728 64.4757 68.0405 77.8112 51.648 77.8179ZM38.1581 68.8165L39.0604 69.3521C42.8546 71.6036 47.2038 72.7949 51.6381 72.7967H51.6481C65.2684 72.7967 76.354 61.7108 76.3595 48.0849C76.362 41.4818 73.7941 35.2732 69.1285 30.6022C64.4629 25.9311 58.2583 23.3575 51.6578 23.3552C38.027 23.3552 26.9412 34.4399 26.9358 48.0648C26.9339 52.7342 28.2404 57.2816 30.7141 61.216L31.3016 62.151L28.8052 71.27L38.1581 68.8165ZM65.609 54.4879C66.1271 54.7383 66.477 54.9074 66.6264 55.1567C66.812 55.4665 66.812 56.9539 66.1933 58.6895C65.574 60.4248 62.6061 62.0085 61.1787 62.2217C59.8989 62.4131 58.2792 62.4929 56.4997 61.9274C55.4207 61.585 54.037 61.1279 52.2646 60.3625C45.3001 57.3553 40.5936 50.6052 39.7041 49.3295C39.6417 49.2401 39.5982 49.1776 39.5738 49.1451L39.5678 49.1371C39.1747 48.6126 36.5404 45.0978 36.5404 41.4602C36.5404 38.0382 38.2213 36.2446 38.9951 35.419C39.0481 35.3624 39.0968 35.3104 39.1405 35.2627C39.8214 34.519 40.6263 34.333 41.1215 34.333C41.6167 34.333 42.1125 34.3376 42.5453 34.3594C42.5988 34.362 42.6543 34.3617 42.7117 34.3614C43.1447 34.3588 43.6844 34.3557 44.2168 35.6346C44.4217 36.1268 44.7214 36.8565 45.0375 37.6262C45.6768 39.1824 46.383 40.9018 46.5073 41.1507C46.693 41.5225 46.8168 41.9562 46.5692 42.4522C46.532 42.5266 46.4977 42.5968 46.4648 42.6638C46.2788 43.0435 46.142 43.3228 45.8263 43.6914C45.7022 43.8363 45.5739 43.9926 45.4456 44.1488C45.1901 44.4601 44.9345 44.7713 44.712 44.993C44.3401 45.3634 43.9529 45.7653 44.3863 46.5091C44.8196 47.2528 46.3106 49.6855 48.519 51.6554C50.893 53.7729 52.9564 54.6679 54.0022 55.1216C54.2065 55.2102 54.3719 55.2819 54.4933 55.3427C55.2359 55.7146 55.6692 55.6524 56.1026 55.1567C56.536 54.661 57.9597 52.9874 58.4549 52.2438C58.95 51.5004 59.4455 51.6242 60.1263 51.872C60.8074 52.1202 64.4598 53.9171 65.2027 54.289C65.3477 54.3616 65.4833 54.4271 65.609 54.4879Z" fill="#FDFDFD"/>
</svg>
