<svg width="36" height="36" viewBox="0 0 36 36" fill="none" xmlns="http://www.w3.org/2000/svg">
<path fill-rule="evenodd" clip-rule="evenodd" d="M18 6.75C10.5 6.75 4.095 11.415 1.5 18C4.095 24.585 10.5 29.25 18 29.25C25.5 29.25 31.905 24.585 34.5 18C31.905 11.415 25.5 6.75 18 6.75ZM18 25.5C13.86 25.5 10.5 22.14 10.5 18C10.5 13.86 13.86 10.5 18 10.5C22.14 10.5 25.5 13.86 25.5 18C25.5 22.14 22.14 25.5 18 25.5ZM13.5 18C13.5 15.51 15.51 13.5 18 13.5C20.49 13.5 22.5 15.51 22.5 18C22.5 20.49 20.49 22.5 18 22.5C15.51 22.5 13.5 20.49 13.5 18Z" fill="url(#paint0_linear)"/>
<defs>
<linearGradient id="paint0_linear" x1="2.29518" y1="28.9789" x2="22.6443" y2="-1.23488" gradientUnits="userSpaceOnUse">
<stop stop-color="#ED1C7D"/>
<stop offset="0.5" stop-color="#CD33D5"/>
<stop offset="1" stop-color="#5824FE"/>
</linearGradient>
</defs>
</svg>
