<svg width="36" height="36" viewBox="0 0 36 36" fill="none" xmlns="http://www.w3.org/2000/svg">
<path d="M30.996 5.21708L12 12.0001V22.5001L13.122 22.9006L11.4315 26.2816C11.0415 27.0601 11.01 27.9661 11.3415 28.7701C11.676 29.5741 12.339 30.1936 13.1655 30.4696L19.2915 32.5111C19.599 32.6131 19.9155 32.6626 20.2275 32.6626C21.339 32.6626 22.404 32.0416 22.923 31.0066L24.8775 27.0976L30.996 29.2831C31.971 29.6326 33 28.9081 33 27.8716V6.62858C33 5.59208 31.971 4.86758 30.996 5.21708ZM20.2395 29.6656L14.115 27.6241L15.9675 23.9176L22.0305 26.0836L20.2395 29.6656ZM6 22.5001H9V12.0001H6C4.3455 12.0001 3 13.3456 3 15.0001V19.5001C3 21.1546 4.3455 22.5001 6 22.5001Z" fill="url(#paint0_linear)"/>
<defs>
<linearGradient id="paint0_linear" x1="3.72289" y1="32.3308" x2="30.4672" y2="2.8319" gradientUnits="userSpaceOnUse">
<stop stop-color="#ED1C7D"/>
<stop offset="0.5" stop-color="#CD33D5"/>
<stop offset="1" stop-color="#5824FE"/>
</linearGradient>
</defs>
</svg>
