<svg width="36" height="36" viewBox="0 0 36 36" fill="none" xmlns="http://www.w3.org/2000/svg">
<path fill-rule="evenodd" clip-rule="evenodd" d="M16.485 12C16.485 14.49 14.49 16.5 12 16.5C9.51 16.5 7.5 14.49 7.5 12C7.5 9.51 9.51 7.5 12 7.5C14.49 7.5 16.485 9.51 16.485 12ZM28.485 12C28.485 14.49 26.49 16.5 24 16.5C21.51 16.5 19.5 14.49 19.5 12C19.5 9.51 21.51 7.5 24 7.5C26.49 7.5 28.485 9.51 28.485 12ZM12 19.5C8.505 19.5 1.5 21.255 1.5 24.75V27C1.5 27.825 2.175 28.5 3 28.5H21C21.825 28.5 22.5 27.825 22.5 27V24.75C22.5 21.255 15.495 19.5 12 19.5ZM22.545 19.575C23.07 19.53 23.565 19.5 24 19.5C27.495 19.5 34.5 21.255 34.5 24.75V27C34.5 27.825 33.825 28.5 33 28.5H25.23C25.395 28.035 25.5 27.525 25.5 27V24.75C25.5 22.545 24.315 20.88 22.605 19.635C22.6005 19.6305 22.5959 19.6245 22.591 19.6181C22.5795 19.6032 22.5659 19.5855 22.545 19.575Z" fill="url(#paint0_linear)"/>
<defs>
<linearGradient id="paint0_linear" x1="2.29518" y1="28.247" x2="20.7643" y2="-1.13428" gradientUnits="userSpaceOnUse">
<stop stop-color="#ED1C7D"/>
<stop offset="0.5" stop-color="#CD33D5"/>
<stop offset="1" stop-color="#5824FE"/>
</linearGradient>
</defs>
</svg>
