<svg width="36" height="36" viewBox="0 0 36 36" fill="none" xmlns="http://www.w3.org/2000/svg">
<path d="M18 33C26.271 33 33 26.271 33 18C33 9.729 26.271 3 18 3C9.729 3 3 9.729 3 18C3 26.271 9.729 33 18 33ZM23.2395 13.5C24.4755 13.5 25.479 14.5035 25.479 15.7395C25.479 16.9755 24.4755 17.979 23.2395 17.979C22.0035 17.979 21 16.9755 21 15.7395C21 14.5035 22.0035 13.5 23.2395 13.5ZM16.788 23.8785C17.5815 24.039 18.4155 24.039 19.212 23.8785C19.5915 23.8005 19.9695 23.682 20.337 23.529C20.688 23.379 21.033 23.193 21.3555 22.977C21.6675 22.764 21.966 22.518 22.242 22.2435C22.5165 21.9705 22.7625 21.672 22.9755 21.3555L25.4625 23.031C25.14 23.5095 24.7695 23.9595 24.3615 24.3675C23.955 24.774 23.5065 25.1445 23.034 25.4625C22.551 25.7895 22.0365 26.067 21.5025 26.2935C20.9505 26.5245 20.3835 26.7015 19.8105 26.8185C19.2165 26.9385 18.606 27 18 27C17.394 27 16.7835 26.9385 16.1895 26.817C15.615 26.7015 15.048 26.5245 14.499 26.2935C13.9635 26.067 13.449 25.788 12.9675 25.4625C12.4935 25.1415 12.045 24.7725 11.6355 24.363C11.229 23.958 10.857 23.5095 10.536 23.0295L13.023 21.354C13.2375 21.6705 13.4835 21.969 13.755 22.239C14.0325 22.518 14.331 22.764 14.646 22.977C14.9655 23.193 15.309 23.379 15.6645 23.529C16.0305 23.682 16.407 23.8005 16.788 23.8785ZM12.75 13.5C13.992 13.5 15 14.508 15 15.75C15 16.992 13.992 18 12.75 18C11.508 18 10.5 16.992 10.5 15.75C10.5 14.508 11.508 13.5 12.75 13.5Z" fill="url(#paint0_linear)"/>
<defs>
<linearGradient id="paint0_linear" x1="3.72289" y1="32.6386" x2="33" y2="2.99999" gradientUnits="userSpaceOnUse">
<stop stop-color="#ED1C7D"/>
<stop offset="0.5" stop-color="#CD33D5"/>
<stop offset="1" stop-color="#5824FE"/>
</linearGradient>
</defs>
</svg>
