<svg width="320" height="82" viewBox="0 0 320 82" fill="none" xmlns="http://www.w3.org/2000/svg">
<path d="M0.888139 21V3.54545H7.7745C9.75746 3.54545 11.2944 4.0625 12.3853 5.09659C13.4819 6.13068 14.0302 7.5142 14.0302 9.24716C14.0302 10.4403 13.7631 11.4602 13.229 12.3068C12.7006 13.1534 11.9393 13.7898 10.945 14.2159L14.6523 21H10.5785L7.27166 14.8125H4.57848V21H0.888139ZM4.57848 11.8466H7.08416C9.18075 11.8466 10.229 10.9801 10.229 9.24716C10.229 7.45739 9.17507 6.5625 7.06712 6.5625H4.57848V11.8466ZM22.3249 21.2557C20.984 21.2557 19.8278 20.983 18.8562 20.4375C17.8846 19.8864 17.1374 19.108 16.6147 18.1023C16.092 17.0909 15.8306 15.8949 15.8306 14.5142C15.8306 13.1676 16.092 11.9858 16.6147 10.9688C17.1374 9.9517 17.8732 9.15909 18.8221 8.59091C19.7766 8.02273 20.896 7.73864 22.18 7.73864C23.3335 7.73864 24.3732 7.98295 25.2994 8.47159C26.2312 8.96023 26.9698 9.69886 27.5153 10.6875C28.0607 11.6705 28.3335 12.9034 28.3335 14.3864V15.3835H19.4187V15.392C19.4187 16.3693 19.6857 17.1392 20.2198 17.7017C20.7539 18.2642 21.4755 18.5455 22.3846 18.5455C22.9925 18.5455 23.5181 18.4176 23.9613 18.1619C24.4045 17.9062 24.717 17.5284 24.8988 17.0284L28.2567 17.25C28.0011 18.4659 27.3533 19.4375 26.3136 20.1648C25.2738 20.892 23.9442 21.2557 22.3249 21.2557ZM19.4187 13.1335H24.9158C24.9102 12.3551 24.6602 11.7131 24.1658 11.2074C23.6715 10.7017 23.0295 10.4489 22.2397 10.4489C21.4329 10.4489 20.771 10.7102 20.2539 11.233C19.7369 11.7557 19.4585 12.3892 19.4187 13.1335ZM30.7028 21V3.54545H34.3335V12.8778H34.5295L38.7227 7.90909H42.8903L38.0323 13.5767L43.1374 21H38.8846L35.3136 15.7244L34.3335 16.8409V21H30.7028ZM50.0472 21.2557C48.7234 21.2557 47.5785 20.9744 46.6126 20.4119C45.6523 19.8437 44.9109 19.054 44.3881 18.0426C43.8654 17.0256 43.604 15.8466 43.604 14.5057C43.604 13.1534 43.8654 11.9716 44.3881 10.9602C44.9109 9.94318 45.6523 9.15341 46.6126 8.59091C47.5785 8.02273 48.7234 7.73864 50.0472 7.73864C51.3711 7.73864 52.5131 8.02273 53.4734 8.59091C54.4393 9.15341 55.1836 9.94318 55.7063 10.9602C56.229 11.9716 56.4904 13.1534 56.4904 14.5057C56.4904 15.8466 56.229 17.0256 55.7063 18.0426C55.1836 19.054 54.4393 19.8437 53.4734 20.4119C52.5131 20.9744 51.3711 21.2557 50.0472 21.2557ZM50.0643 18.4432C50.962 18.4432 51.641 18.0682 52.1012 17.3182C52.5671 16.5682 52.8001 15.6222 52.8001 14.4801C52.8001 13.3381 52.5671 12.392 52.1012 11.642C51.641 10.8864 50.962 10.5085 50.0643 10.5085C49.1495 10.5085 48.4592 10.8864 47.9933 11.642C47.5273 12.392 47.2944 13.3381 47.2944 14.4801C47.2944 15.6222 47.5273 16.5682 47.9933 17.3182C48.4592 18.0682 49.1495 18.4432 50.0643 18.4432ZM58.8512 21V7.90909H62.3711V10.1932H62.5075C62.7461 9.38068 63.1438 8.76705 63.7006 8.35227C64.2631 7.93182 64.9137 7.72159 65.6523 7.72159C66.0046 7.72159 66.3313 7.7642 66.6325 7.84943C66.9336 7.93466 67.2035 8.05114 67.4421 8.19886L66.3512 11.1989C66.1808 11.1136 65.9933 11.0426 65.7887 10.9858C65.5898 10.9233 65.3654 10.892 65.1154 10.892C64.3825 10.892 63.7603 11.142 63.2489 11.642C62.7433 12.142 62.4876 12.7926 62.4819 13.5938V21H58.8512ZM127.293 19.1719C126.871 19.1719 126.441 19.1719 126.004 19.1719C125.566 19.1719 125.129 19.1719 124.691 19.1719C124.582 19.1719 124.504 19.1562 124.457 19.125C124.426 19.0781 124.41 18.9922 124.41 18.8672C124.41 17.6328 124.41 16.3906 124.41 15.1406C124.41 13.8906 124.41 12.6406 124.41 11.3906C124.41 10.1406 124.41 8.89844 124.41 7.66406C124.41 6.41406 124.41 5.16406 124.41 3.91406C124.41 3.80469 124.426 3.72656 124.457 3.67969C124.488 3.63281 124.566 3.60938 124.691 3.60938C125.238 3.60938 125.777 3.60938 126.309 3.60938C126.855 3.60938 127.395 3.60938 127.926 3.60938C128.035 3.60938 128.113 3.63281 128.16 3.67969C128.207 3.71094 128.238 3.78125 128.254 3.89062C128.473 4.79687 128.691 5.70312 128.91 6.60938C129.129 7.5 129.348 8.39844 129.566 9.30469C129.785 10.2109 130.004 11.1172 130.223 12.0234C130.441 12.9141 130.66 13.8125 130.879 14.7188C130.895 14.7656 130.91 14.8125 130.926 14.8594C130.941 14.9062 130.965 14.9531 130.996 15C131.074 14.7656 131.145 14.5312 131.207 14.2969C131.27 14.0625 131.324 13.8203 131.371 13.5703C131.637 12.4922 131.895 11.4141 132.145 10.3359C132.41 9.25781 132.684 8.17969 132.965 7.10156C133.105 6.55469 133.23 6.01562 133.34 5.48438C133.465 4.95313 133.598 4.42187 133.738 3.89062C133.77 3.79688 133.801 3.73438 133.832 3.70312C133.879 3.65625 133.941 3.63281 134.02 3.63281C134.582 3.63281 135.145 3.63281 135.707 3.63281C136.27 3.63281 136.832 3.63281 137.395 3.63281C137.551 3.63281 137.629 3.67969 137.629 3.77344C137.645 3.85156 137.652 3.9375 137.652 4.03125C137.652 5.0625 137.652 6.09375 137.652 7.125C137.652 8.15625 137.652 9.1875 137.652 10.2188C137.652 11.25 137.652 12.2891 137.652 13.3359C137.652 14.3672 137.652 15.3984 137.652 16.4297C137.652 16.8359 137.652 17.2422 137.652 17.6484C137.652 18.0547 137.652 18.4688 137.652 18.8906C137.652 19 137.629 19.0781 137.582 19.125C137.551 19.1562 137.48 19.1719 137.371 19.1719C136.934 19.1719 136.496 19.1719 136.059 19.1719C135.621 19.1719 135.184 19.1719 134.746 19.1719C134.73 19.125 134.715 19.0703 134.699 19.0078C134.699 18.9453 134.707 18.8828 134.723 18.8203C134.723 18.0859 134.723 17.3438 134.723 16.5938C134.723 15.8594 134.723 15.125 134.723 14.3906C134.723 13.6562 134.723 12.9297 134.723 12.2109C134.723 11.4766 134.723 10.7422 134.723 10.0078C134.723 9.96094 134.73 9.90625 134.746 9.84375C134.762 9.76562 134.723 9.71094 134.629 9.67969C134.473 10.2578 134.309 10.8359 134.137 11.4141C133.98 11.9766 133.824 12.5391 133.668 13.1016C133.402 14.0859 133.129 15.0703 132.848 16.0547C132.582 17.0391 132.316 18.0312 132.051 19.0312C132.035 19.0938 132.012 19.1406 131.98 19.1719C131.949 19.1875 131.902 19.1953 131.84 19.1953C131.574 19.1953 131.301 19.1953 131.02 19.1953C130.754 19.1953 130.488 19.1953 130.223 19.1953C130.066 19.1953 129.98 19.1406 129.965 19.0312C129.949 18.9219 129.926 18.8281 129.895 18.75C129.738 18.2031 129.582 17.6484 129.426 17.0859C129.27 16.5234 129.121 15.9609 128.98 15.3984C128.824 14.8672 128.676 14.3359 128.535 13.8047C128.395 13.2734 128.254 12.7422 128.113 12.2109C128.004 11.8047 127.887 11.3984 127.762 10.9922C127.652 10.5859 127.543 10.1719 127.434 9.75C127.34 9.79688 127.301 9.85938 127.316 9.9375C127.332 10 127.34 10.0625 127.34 10.125C127.34 10.8594 127.34 11.5859 127.34 12.3047C127.34 13.0234 127.34 13.75 127.34 14.4844C127.34 15.2031 127.34 15.9297 127.34 16.6641C127.34 17.3828 127.34 18.1016 127.34 18.8203C127.34 18.8828 127.34 18.9453 127.34 19.0078C127.34 19.0547 127.324 19.1094 127.293 19.1719ZM178.199 8.01562C178.199 7.54688 178.121 7.11719 177.965 6.72656C177.824 6.33594 177.527 6.03125 177.074 5.8125C176.48 5.54688 175.902 5.5625 175.34 5.85938C174.793 6.14062 174.52 6.64844 174.52 7.38281C174.488 7.44531 174.473 7.51562 174.473 7.59375C174.473 7.65625 174.488 7.71875 174.52 7.78125C174.504 8.10938 174.574 8.38281 174.73 8.60156C174.902 8.80469 175.105 8.99219 175.34 9.16406C175.715 9.41406 176.098 9.64062 176.488 9.84375C176.895 10.0312 177.309 10.2031 177.73 10.3594C178.277 10.5938 178.793 10.875 179.277 11.2031C179.777 11.5156 180.199 11.9297 180.543 12.4453C180.73 12.7422 180.871 13.0625 180.965 13.4062C181.074 13.75 181.145 14.0938 181.176 14.4375C181.191 14.5781 181.199 14.7188 181.199 14.8594C181.199 15 181.191 15.1406 181.176 15.2812C181.082 16.3906 180.691 17.2578 180.004 17.8828C179.332 18.4922 178.512 18.875 177.543 19.0312C177.418 19.0625 177.285 19.0859 177.145 19.1016C177.02 19.1016 176.887 19.1094 176.746 19.125C176.637 19.1406 176.527 19.1484 176.418 19.1484C176.309 19.1484 176.191 19.1406 176.066 19.125C175.551 19.1094 175.043 19.0234 174.543 18.8672C174.043 18.7109 173.574 18.4922 173.137 18.2109C172.902 18.0547 172.691 17.8828 172.504 17.6953C172.316 17.5078 172.145 17.3047 171.988 17.0859C171.848 16.8672 171.723 16.6328 171.613 16.3828C171.52 16.1328 171.449 15.875 171.402 15.6094C171.371 15.4688 171.348 15.3359 171.332 15.2109C171.332 15.0703 171.324 14.9297 171.309 14.7891C171.293 14.6797 171.285 14.5781 171.285 14.4844C171.285 14.375 171.293 14.2734 171.309 14.1797C171.496 14.1328 171.676 14.1094 171.848 14.1094C172.02 14.0938 172.199 14.1016 172.387 14.1328C172.621 14.1328 172.855 14.1328 173.09 14.1328C173.324 14.1328 173.566 14.1328 173.816 14.1328C173.957 14.1328 174.051 14.1562 174.098 14.2031C174.145 14.2344 174.168 14.3281 174.168 14.4844C174.168 14.6562 174.176 14.8281 174.191 15C174.223 15.1562 174.262 15.3125 174.309 15.4688C174.371 15.625 174.441 15.7734 174.52 15.9141C174.613 16.0547 174.715 16.1875 174.824 16.3125C175.105 16.6094 175.574 16.7812 176.23 16.8281C176.902 16.875 177.426 16.6797 177.801 16.2422C177.91 16.1016 177.996 15.9531 178.059 15.7969C178.137 15.625 178.191 15.4453 178.223 15.2578C178.254 15.0859 178.262 14.9062 178.246 14.7188C178.23 14.5312 178.191 14.3516 178.129 14.1797C178.035 13.8203 177.863 13.5391 177.613 13.3359C177.363 13.1172 177.09 12.9297 176.793 12.7734C176.465 12.5859 176.113 12.4297 175.738 12.3047C175.379 12.1797 175.027 12.0312 174.684 11.8594C174.324 11.6875 173.98 11.5 173.652 11.2969C173.324 11.0781 173.004 10.8438 172.691 10.5938C172.41 10.3438 172.176 10.0547 171.988 9.72656C171.801 9.38281 171.676 9.02344 171.613 8.64844C171.535 8.22656 171.504 7.8125 171.52 7.40625C171.535 6.98438 171.605 6.57031 171.73 6.16406C171.855 5.75781 172.043 5.39062 172.293 5.0625C172.543 4.73438 172.84 4.45312 173.184 4.21875C174.012 3.60938 175.035 3.3125 176.254 3.32812C177.488 3.32812 178.512 3.625 179.324 4.21875C179.574 4.39063 179.801 4.59375 180.004 4.82812C180.223 5.0625 180.41 5.3125 180.566 5.57812C180.707 5.85938 180.816 6.15625 180.895 6.46875C180.988 6.76562 181.043 7.07031 181.059 7.38281C181.059 7.47656 181.066 7.57031 181.082 7.66406C181.098 7.75781 181.105 7.85938 181.105 7.96875C181.105 8.01562 181.082 8.04688 181.035 8.0625C180.988 8.07812 180.941 8.08594 180.895 8.08594H178.316C178.301 8.08594 178.285 8.08594 178.27 8.08594C178.27 8.08594 178.262 8.08594 178.246 8.08594C178.23 8.07031 178.215 8.0625 178.199 8.0625C178.199 8.04688 178.199 8.03125 178.199 8.01562ZM161.324 3.60938C161.559 3.60938 161.793 3.60938 162.027 3.60938C162.277 3.60938 162.527 3.60938 162.777 3.60938C163.887 3.60938 164.996 3.60938 166.105 3.60938C167.215 3.60938 168.332 3.60938 169.457 3.60938C169.598 3.60938 169.691 3.64063 169.738 3.70312C169.785 3.75 169.809 3.84375 169.809 3.98438C169.809 4.26562 169.809 4.55469 169.809 4.85156C169.809 5.13281 169.809 5.42188 169.809 5.71875C169.809 5.82812 169.785 5.90625 169.738 5.95312C169.707 5.98438 169.637 6 169.527 6C168.715 6 167.895 6 167.066 6C166.254 6 165.434 6 164.605 6C164.465 6 164.371 6.02344 164.324 6.07031C164.277 6.11719 164.254 6.21875 164.254 6.375C164.254 6.92188 164.254 7.47656 164.254 8.03906C164.254 8.58594 164.254 9.13281 164.254 9.67969C164.254 9.78906 164.27 9.86719 164.301 9.91406C164.348 9.94531 164.426 9.96094 164.535 9.96094C165.207 9.96094 165.879 9.96094 166.551 9.96094C167.238 9.96094 167.918 9.96094 168.59 9.96094C168.715 9.96094 168.801 9.98438 168.848 10.0312C168.895 10.0781 168.918 10.1719 168.918 10.3125C168.902 10.5781 168.895 10.8594 168.895 11.1562C168.895 11.4375 168.902 11.7188 168.918 12C168.918 12.1406 168.895 12.2344 168.848 12.2812C168.801 12.3281 168.699 12.3516 168.543 12.3516C167.887 12.3516 167.223 12.3516 166.551 12.3516C165.895 12.3516 165.238 12.3516 164.582 12.3516C164.457 12.3516 164.363 12.375 164.301 12.4219C164.254 12.4531 164.23 12.5391 164.23 12.6797C164.23 13.3203 164.23 13.9688 164.23 14.625C164.23 15.2656 164.23 15.9062 164.23 16.5469C164.23 16.625 164.23 16.6953 164.23 16.7578C164.246 16.8203 164.309 16.8516 164.418 16.8516C165.309 16.8516 166.199 16.8516 167.09 16.8516C167.98 16.8359 168.871 16.8281 169.762 16.8281C169.762 16.8281 169.77 16.8359 169.785 16.8516C169.801 16.8516 169.809 16.8516 169.809 16.8516C169.824 17.2422 169.824 17.6328 169.809 18.0234C169.809 18.4141 169.801 18.8047 169.785 19.1953H161.277C161.262 19.1484 161.246 19.0938 161.23 19.0312C161.23 18.9688 161.238 18.9141 161.254 18.8672C161.254 17.6172 161.254 16.375 161.254 15.1406C161.254 13.9062 161.254 12.6719 161.254 11.4375C161.254 10.1875 161.254 8.94531 161.254 7.71094C161.254 6.47656 161.254 5.23438 161.254 3.98438C161.254 3.92188 161.246 3.85937 161.23 3.79688C161.215 3.71875 161.246 3.65625 161.324 3.60938ZM107.535 14.1328C107.941 14.1328 108.348 14.1328 108.754 14.1328C109.176 14.1328 109.59 14.1328 109.996 14.1328C110.137 14.1328 110.23 14.1562 110.277 14.2031C110.34 14.25 110.363 14.3438 110.348 14.4844C110.316 15.0156 110.246 15.5312 110.137 16.0312C110.043 16.5312 109.84 17 109.527 17.4375C109.184 17.9062 108.77 18.2656 108.285 18.5156C107.816 18.7656 107.309 18.9453 106.762 19.0547C106.621 19.0703 106.473 19.0859 106.316 19.1016C106.176 19.1172 106.027 19.1328 105.871 19.1484C105.762 19.1641 105.645 19.1719 105.52 19.1719C105.395 19.1719 105.27 19.1641 105.145 19.1484C104.801 19.1328 104.449 19.0938 104.09 19.0312C103.746 18.9531 103.41 18.8438 103.082 18.7031C102.785 18.5781 102.496 18.4219 102.215 18.2344C101.949 18.0312 101.707 17.8047 101.488 17.5547C101.27 17.3047 101.082 17.0391 100.926 16.7578C100.77 16.4609 100.645 16.1562 100.551 15.8438C100.457 15.5469 100.379 15.25 100.316 14.9531C100.27 14.6562 100.238 14.3516 100.223 14.0391C100.223 13.1016 100.223 12.1641 100.223 11.2266C100.223 10.2891 100.23 9.35156 100.246 8.41406C100.246 7.86719 100.316 7.33594 100.457 6.82031C100.613 6.30469 100.84 5.82031 101.137 5.36719C101.324 5.08594 101.535 4.82812 101.77 4.59375C102.004 4.35938 102.27 4.15625 102.566 3.98438C102.848 3.8125 103.145 3.67969 103.457 3.58594C103.785 3.47656 104.113 3.41406 104.441 3.39844C105.035 3.30469 105.629 3.29687 106.223 3.375C106.816 3.45313 107.387 3.60156 107.934 3.82031C108.23 3.94531 108.504 4.10156 108.754 4.28906C109.004 4.47656 109.23 4.69531 109.434 4.94531C109.637 5.19531 109.801 5.46875 109.926 5.76562C110.051 6.04688 110.145 6.34375 110.207 6.65625C110.254 6.89062 110.285 7.125 110.301 7.35938C110.332 7.59375 110.348 7.83594 110.348 8.08594C110.348 8.17969 110.324 8.25 110.277 8.29688C110.246 8.32812 110.184 8.34375 110.09 8.34375C109.715 8.34375 109.355 8.34375 109.012 8.34375C108.668 8.34375 108.316 8.34375 107.957 8.34375C107.723 8.34375 107.574 8.3125 107.512 8.25C107.465 8.1875 107.441 8.03125 107.441 7.78125C107.457 7.625 107.449 7.47656 107.418 7.33594C107.402 7.19531 107.371 7.05469 107.324 6.91406C107.262 6.77344 107.191 6.64062 107.113 6.51562C107.035 6.39062 106.941 6.28125 106.832 6.1875C106.707 6.07812 106.574 5.99219 106.434 5.92969C106.293 5.85156 106.145 5.78906 105.988 5.74219C105.816 5.71094 105.652 5.69531 105.496 5.69531C105.34 5.67969 105.184 5.6875 105.027 5.71875C104.434 5.82812 103.996 6.04688 103.715 6.375C103.449 6.6875 103.277 7.14844 103.199 7.75781C103.152 8.16406 103.121 8.57031 103.105 8.97656C103.105 9.38281 103.113 9.79688 103.129 10.2188C103.129 10.875 103.129 11.5391 103.129 12.2109C103.129 12.8828 103.137 13.5469 103.152 14.2031C103.152 14.5 103.191 14.7969 103.27 15.0938C103.363 15.375 103.488 15.6406 103.645 15.8906C103.723 16.0469 103.824 16.1797 103.949 16.2891C104.074 16.3984 104.207 16.4922 104.348 16.5703C104.504 16.6484 104.66 16.7031 104.816 16.7344C104.988 16.7656 105.152 16.7812 105.309 16.7812C105.371 16.7969 105.434 16.8047 105.496 16.8047C105.574 16.8047 105.645 16.7969 105.707 16.7812C105.91 16.7812 106.105 16.75 106.293 16.6875C106.496 16.625 106.676 16.5234 106.832 16.3828C106.988 16.2422 107.113 16.0781 107.207 15.8906C107.301 15.7031 107.355 15.5078 107.371 15.3047C107.387 15.2109 107.41 15.1172 107.441 15.0234C107.488 14.9141 107.488 14.8047 107.441 14.6953C107.488 14.6016 107.496 14.5078 107.465 14.4141C107.434 14.3047 107.457 14.2109 107.535 14.1328ZM158.582 12.6797C157.801 12.6797 157.012 12.6797 156.215 12.6797C155.418 12.6641 154.621 12.6719 153.824 12.7031C153.809 12.7656 153.793 12.8281 153.777 12.8906C153.777 12.9531 153.785 13.0156 153.801 13.0781C153.801 14.0312 153.801 14.9844 153.801 15.9375C153.801 16.875 153.801 17.8203 153.801 18.7734C153.816 18.8359 153.816 18.8984 153.801 18.9609C153.801 19.0234 153.793 19.0859 153.777 19.1484C153.324 19.1484 152.871 19.1484 152.418 19.1484C151.965 19.1484 151.52 19.1484 151.082 19.1484C150.973 19.1484 150.895 19.1328 150.848 19.1016C150.816 19.0703 150.801 18.9922 150.801 18.8672C150.801 17.6172 150.801 16.3672 150.801 15.1172C150.801 13.8672 150.801 12.6172 150.801 11.3672C150.801 10.1172 150.801 8.875 150.801 7.64062C150.801 6.39062 150.801 5.14062 150.801 3.89062C150.801 3.78125 150.816 3.71094 150.848 3.67969C150.879 3.63281 150.949 3.60938 151.059 3.60938C151.746 3.60938 152.434 3.60938 153.121 3.60938C153.793 3.60938 154.473 3.60938 155.16 3.60938C155.848 3.60938 156.527 3.60938 157.199 3.60938C157.887 3.60938 158.574 3.60938 159.262 3.60938C159.371 3.60938 159.449 3.625 159.496 3.65625C159.543 3.6875 159.559 3.76562 159.543 3.89062C159.543 4.1875 159.543 4.48438 159.543 4.78125C159.543 5.07812 159.543 5.38281 159.543 5.69531C159.543 5.80469 159.52 5.88281 159.473 5.92969C159.441 5.96094 159.371 5.97656 159.262 5.97656C158.418 5.97656 157.574 5.97656 156.73 5.97656C155.887 5.97656 155.043 5.97656 154.199 5.97656C154.152 5.97656 154.09 5.97656 154.012 5.97656C153.949 5.97656 153.895 5.97656 153.848 5.97656C153.832 6.00781 153.816 6.03906 153.801 6.07031C153.801 6.08594 153.801 6.10938 153.801 6.14062V10.125C153.801 10.1406 153.801 10.1641 153.801 10.1953C153.816 10.2266 153.832 10.2578 153.848 10.2891L156.66 10.3125C156.988 10.3125 157.309 10.3125 157.621 10.3125C157.949 10.3125 158.277 10.3125 158.605 10.3125C158.637 10.5 158.652 10.6875 158.652 10.875C158.668 11.0625 158.66 11.2578 158.629 11.4609C158.645 11.6641 158.645 11.8672 158.629 12.0703C158.629 12.2734 158.613 12.4766 158.582 12.6797ZM186.098 6.02344C185.598 6.02344 185.09 6.02344 184.574 6.02344C184.059 6.00781 183.543 6.00781 183.027 6.02344C182.918 6.02344 182.84 6.00781 182.793 5.97656C182.746 5.92969 182.723 5.84375 182.723 5.71875C182.723 5.40625 182.723 5.10156 182.723 4.80469C182.723 4.50781 182.723 4.21094 182.723 3.91406C182.723 3.80469 182.738 3.73438 182.77 3.70312C182.816 3.65625 182.895 3.63281 183.004 3.63281C183.77 3.63281 184.543 3.63281 185.324 3.63281C186.105 3.63281 186.879 3.63281 187.645 3.63281C188.426 3.63281 189.207 3.63281 189.988 3.63281C190.77 3.63281 191.543 3.63281 192.309 3.63281C192.434 3.63281 192.512 3.65625 192.543 3.70312C192.574 3.75 192.59 3.82813 192.59 3.9375C192.59 4.23437 192.59 4.53906 192.59 4.85156C192.59 5.14844 192.59 5.44531 192.59 5.74219C192.59 5.85156 192.574 5.92969 192.543 5.97656C192.512 6.00781 192.441 6.02344 192.332 6.02344C191.863 6.02344 191.387 6.02344 190.902 6.02344C190.434 6.02344 189.965 6.02344 189.496 6.02344C189.309 6.02344 189.191 6.05469 189.145 6.11719C189.098 6.17969 189.074 6.29688 189.074 6.46875C189.074 7.5 189.074 8.52344 189.074 9.53906C189.074 10.5703 189.074 11.6016 189.074 12.6328C189.074 13.6484 189.074 14.6719 189.074 15.7031C189.074 16.7344 189.074 17.7656 189.074 18.7969C189.074 18.9688 189.043 19.0859 188.98 19.1484C188.934 19.1953 188.832 19.2188 188.676 19.2188C188.254 19.2031 187.832 19.2031 187.41 19.2188C187.004 19.2188 186.59 19.2188 186.168 19.2188C186.137 19.1562 186.121 19.0938 186.121 19.0312C186.121 18.9688 186.121 18.9062 186.121 18.8438C186.121 17.8125 186.121 16.7812 186.121 15.75C186.121 14.7188 186.121 13.6875 186.121 12.6562C186.121 11.6094 186.121 10.5703 186.121 9.53906C186.121 8.50781 186.121 7.47656 186.121 6.44531C186.152 6.38281 186.16 6.3125 186.145 6.23438C186.145 6.15625 186.129 6.08594 186.098 6.02344ZM122.676 8.27344C122.629 7.66406 122.473 7.08594 122.207 6.53906C121.957 5.97656 121.621 5.47656 121.199 5.03906C120.762 4.61719 120.27 4.28125 119.723 4.03125C119.176 3.78125 118.598 3.64063 117.988 3.60938C116.988 3.53125 116.051 3.625 115.176 3.89062C114.301 4.14062 113.535 4.70312 112.879 5.57812C112.566 6 112.324 6.46875 112.152 6.98438C111.98 7.48438 111.887 8 111.871 8.53125C111.84 9.40625 111.832 10.2422 111.848 11.0391C111.863 11.8203 111.863 12.6562 111.848 13.5469C111.848 14.4688 112.027 15.3594 112.387 16.2188C112.746 17.0625 113.324 17.75 114.121 18.2812C114.621 18.5938 115.184 18.8203 115.809 18.9609C116.434 19.1016 117.066 19.1484 117.707 19.1016C118.363 19.0547 118.996 18.9141 119.605 18.6797C120.215 18.4297 120.746 18.0859 121.199 17.6484C121.449 17.3984 121.668 17.125 121.855 16.8281C122.043 16.5312 122.207 16.2188 122.348 15.8906C122.473 15.5625 122.566 15.2266 122.629 14.8828C122.707 14.5391 122.738 14.1875 122.723 13.8281C122.77 12.9062 122.785 11.9844 122.77 11.0625C122.77 10.125 122.738 9.1875 122.676 8.25V8.27344ZM119.09 14.5547C118.418 14.9297 117.855 14.8125 117.402 14.2031C116.949 13.5781 117.004 13.1328 117.566 12.8672C117.66 12.8203 117.746 12.7969 117.824 12.7969C117.918 12.7969 118.004 12.8125 118.082 12.8438C118.176 12.8594 118.254 12.8984 118.316 12.9609C118.379 13.0234 118.434 13.0938 118.48 13.1719C118.543 13.3125 118.629 13.4375 118.738 13.5469C118.848 13.6562 118.973 13.7422 119.113 13.8047C119.145 13.8359 119.168 13.8672 119.184 13.8984C119.215 13.9141 119.246 13.9375 119.277 13.9688C119.293 14 119.301 14.0391 119.301 14.0859C119.316 14.1172 119.324 14.1562 119.324 14.2031C119.324 14.2344 119.316 14.2734 119.301 14.3203C119.285 14.3516 119.27 14.3828 119.254 14.4141C119.238 14.4453 119.215 14.4766 119.184 14.5078C119.152 14.5234 119.121 14.5391 119.09 14.5547ZM120.684 13.1484C120.652 13.2266 120.605 13.2969 120.543 13.3594C120.48 13.4219 120.41 13.4766 120.332 13.5234C120.27 13.5703 120.191 13.6094 120.098 13.6406C120.02 13.6562 119.934 13.6562 119.84 13.6406C119.762 13.6406 119.676 13.625 119.582 13.5938C119.504 13.5625 119.434 13.5234 119.371 13.4766C119.293 13.4297 119.223 13.375 119.16 13.3125C119.113 13.2344 119.074 13.1484 119.043 13.0547C118.84 12.5703 118.527 12.3047 118.105 12.2578C117.699 12.1953 117.27 12.2891 116.816 12.5391C115.77 13.1172 114.855 13.0078 114.074 12.2109C113.293 11.3984 113.176 10.4531 113.723 9.375C114.191 8.46875 114.84 7.85156 115.668 7.52344C116.48 7.19531 117.293 7.125 118.105 7.3125C118.934 7.5 119.652 7.92969 120.262 8.60156C120.887 9.28906 121.215 10.1953 121.246 11.3203C121.246 11.6484 121.191 11.9688 121.082 12.2812C120.988 12.5781 120.855 12.8672 120.684 13.1484ZM149.348 8.17969C149.332 8.07031 149.316 7.96094 149.301 7.85156C149.285 7.74219 149.27 7.63281 149.254 7.52344C149.191 7.03906 149.043 6.57812 148.809 6.14062C148.59 5.6875 148.309 5.28906 147.965 4.94531C147.746 4.72656 147.504 4.53906 147.238 4.38281C146.973 4.21094 146.699 4.07031 146.418 3.96094C146.137 3.85156 145.84 3.77344 145.527 3.72656C145.23 3.66406 144.926 3.63281 144.613 3.63281C143.785 3.63281 142.949 3.63281 142.105 3.63281C141.277 3.63281 140.449 3.63281 139.621 3.63281C139.496 3.63281 139.418 3.65625 139.387 3.70312C139.355 3.75 139.34 3.82813 139.34 3.9375C139.34 5.1875 139.34 6.42969 139.34 7.66406C139.34 8.91406 139.34 10.1641 139.34 11.4141C139.34 12.6641 139.34 13.9141 139.34 15.1641C139.34 16.3984 139.34 17.6406 139.34 18.8906C139.34 19.0156 139.355 19.1016 139.387 19.1484C139.434 19.1797 139.512 19.1953 139.621 19.1953C140.059 19.1953 140.496 19.1953 140.934 19.1953C141.387 19.1953 141.832 19.1953 142.27 19.1953C142.285 19.1328 142.293 19.0703 142.293 19.0078C142.309 18.9453 142.309 18.8828 142.293 18.8203V13.9688C142.293 13.7656 142.309 13.6484 142.34 13.6172C142.371 13.5859 142.48 13.5703 142.668 13.5703C143.027 13.5703 143.379 13.5703 143.723 13.5703C144.082 13.5703 144.434 13.5703 144.777 13.5703C145.121 13.5547 145.457 13.5078 145.785 13.4297C146.129 13.3516 146.449 13.2422 146.746 13.1016C147.574 12.6797 148.191 12.125 148.598 11.4375C149.004 10.75 149.246 9.95312 149.324 9.04688C149.34 8.90625 149.348 8.76562 149.348 8.625C149.348 8.48438 149.34 8.34375 149.324 8.20312L149.348 8.17969ZM146.184 9.89062C146.137 10.0781 146.051 10.2578 145.926 10.4297C145.816 10.5859 145.676 10.7266 145.504 10.8516C145.348 10.9609 145.168 11.0469 144.965 11.1094C144.777 11.1562 144.582 11.1719 144.379 11.1562C144.098 11.1562 143.809 11.1562 143.512 11.1562C143.215 11.1562 142.918 11.1562 142.621 11.1562C142.48 11.1562 142.387 11.1328 142.34 11.0859C142.293 11.0234 142.27 10.9297 142.27 10.8047C142.285 10.4297 142.285 10.0547 142.27 9.67969C142.27 9.30469 142.27 8.92969 142.27 8.55469C142.27 8.17969 142.27 7.79688 142.27 7.40625C142.27 7.01562 142.27 6.63281 142.27 6.25781C142.27 6.14844 142.285 6.07812 142.316 6.04688C142.363 6 142.441 5.97656 142.551 5.97656C142.801 5.97656 143.059 5.97656 143.324 5.97656C143.59 5.97656 143.855 5.97656 144.121 5.97656C144.777 5.97656 145.277 6.11719 145.621 6.39844C145.965 6.67969 146.199 7.15625 146.324 7.82812C146.402 8.17188 146.426 8.52344 146.395 8.88281C146.379 9.22656 146.309 9.5625 146.184 9.89062ZM76.7617 21.6328C76.6523 21.6328 76.543 21.625 76.4336 21.6094C76.3398 21.5938 76.2383 21.5781 76.1289 21.5625C75.957 21.5156 75.793 21.4531 75.6367 21.375C75.4805 21.2969 75.3398 21.2031 75.2148 21.0938C75.0273 20.9375 74.8555 20.7734 74.6992 20.6016C74.5586 20.4141 74.4414 20.2188 74.3477 20.0156C74.2695 19.8281 74.207 19.6484 74.1602 19.4766C74.1289 19.2891 74.1211 19.0938 74.1367 18.8906C74.1367 18.8281 74.1367 18.7734 74.1367 18.7266C74.1523 18.6641 74.168 18.6016 74.1836 18.5391C74.1992 18.5234 74.1992 18.5078 74.1836 18.4922C74.1836 18.4766 74.1836 18.4609 74.1836 18.4453C74.1836 18.4141 74.1758 18.3984 74.1602 18.3984C74.1602 18.3828 74.1523 18.3672 74.1367 18.3516C73.9805 18.1172 73.8242 17.8828 73.668 17.6484C73.5273 17.4141 73.3945 17.1719 73.2695 16.9219C73.2695 16.9062 73.2617 16.8984 73.2461 16.8984C73.2461 16.8828 73.2461 16.8672 73.2461 16.8516C73.2461 16.8359 73.2461 16.8203 73.2461 16.8047C73.2617 16.7891 73.2695 16.7734 73.2695 16.7578C73.3477 16.6484 73.4258 16.5391 73.5039 16.4297C73.582 16.3047 73.668 16.1875 73.7617 16.0781C73.8398 15.9844 73.918 15.8906 73.9961 15.7969C74.0742 15.7031 74.1602 15.6094 74.2539 15.5156L74.3008 15.4688C74.332 15.4375 74.3633 15.4219 74.3945 15.4219C74.4258 15.4062 74.457 15.4219 74.4883 15.4688C74.6602 15.7344 74.8398 15.9922 75.0273 16.2422C75.2148 16.4766 75.4023 16.7109 75.5898 16.9453C75.7461 17.1328 75.9023 17.3203 76.0586 17.5078C76.2305 17.6953 76.3945 17.8828 76.5508 18.0703C76.7227 18.2578 76.8867 18.4375 77.043 18.6094C77.2148 18.7656 77.3789 18.9297 77.5352 19.1016C77.7695 19.3203 78.0039 19.5391 78.2383 19.7578C78.4727 19.9609 78.707 20.1562 78.9414 20.3438C79.1445 20.5 79.3398 20.6562 79.5273 20.8125C79.7305 20.9531 79.9414 21.0938 80.1602 21.2344C80.1758 21.25 80.1836 21.2656 80.1836 21.2812C80.1836 21.2969 80.1758 21.3125 80.1602 21.3281C79.957 21.5469 79.7383 21.75 79.5039 21.9375C79.2852 22.1406 79.0586 22.3203 78.8242 22.4766C78.8086 22.4922 78.793 22.5 78.7773 22.5C78.7617 22.5 78.7461 22.5 78.7305 22.5C78.7305 22.5 78.7305 22.4922 78.7305 22.4766C78.4961 22.3516 78.2695 22.2188 78.0508 22.0781C77.832 21.9375 77.6211 21.7891 77.418 21.6328C77.3867 21.6016 77.3555 21.5781 77.3242 21.5625C77.3086 21.5469 77.2852 21.5391 77.2539 21.5391C77.2227 21.5234 77.1836 21.5156 77.1367 21.5156C77.1055 21.5156 77.0742 21.5234 77.043 21.5391C77.0117 21.5547 76.9805 21.5625 76.9492 21.5625C76.918 21.5625 76.8867 21.5625 76.8555 21.5625C76.8555 21.5938 76.8477 21.6094 76.832 21.6094C76.8164 21.6094 76.793 21.6172 76.7617 21.6328ZM95.5117 8.15625C95.3242 7.10938 94.9727 6.11719 94.457 5.17969C93.9414 4.22656 93.293 3.39062 92.5117 2.67188C91.6055 1.8125 90.5742 1.15625 89.418 0.703125C88.2617 0.234375 87.0664 0 85.832 0C85.5664 0 85.3086 0.015625 85.0586 0.046875C84.8086 0.0625 84.5586 0.0859375 84.3086 0.117188C83.7773 0.210938 83.2539 0.34375 82.7383 0.515625C82.2383 0.6875 81.7461 0.898438 81.2617 1.14844C80.9961 1.28906 80.7383 1.44531 80.4883 1.61719C80.2383 1.77344 79.9961 1.95313 79.7617 2.15625C79.6211 2.26562 79.4805 2.38281 79.3398 2.50781C79.2148 2.63281 79.0898 2.75781 78.9648 2.88281C78.8711 2.97656 78.7695 3.07813 78.6602 3.1875C78.5664 3.28125 78.4727 3.38281 78.3789 3.49219C78.2852 3.60156 78.207 3.69531 78.1445 3.77344C78.082 3.85156 78.0117 3.92969 77.9336 4.00781C77.793 4.19531 77.6602 4.38281 77.5352 4.57031C77.4102 4.75781 77.293 4.95313 77.1836 5.15625C77.0273 5.42188 76.8867 5.69531 76.7617 5.97656C76.6367 6.24219 76.5195 6.52344 76.4102 6.82031C76.3477 6.99219 76.2852 7.17188 76.2227 7.35938C76.1758 7.53125 76.1289 7.71094 76.082 7.89844C76.0508 8.08594 76.0117 8.28125 75.9648 8.48438C75.9336 8.67188 75.9023 8.86719 75.8711 9.07031C75.8555 9.19531 75.8477 9.32031 75.8477 9.44531C75.8477 9.55469 75.8398 9.67188 75.8242 9.79688C75.8242 9.82812 75.8164 9.85938 75.8008 9.89062C75.8008 9.90625 75.8008 9.92188 75.8008 9.9375V10.6641C75.8164 10.6953 75.8164 10.7266 75.8008 10.7578C75.8008 10.7891 75.8008 10.8125 75.8008 10.8281C75.8008 10.9844 75.8086 11.1406 75.8242 11.2969C75.8398 11.4375 75.8555 11.5781 75.8711 11.7188C75.9023 11.8906 75.9258 12.0547 75.9414 12.2109C75.9727 12.3672 76.0117 12.5234 76.0586 12.6797C76.0586 12.7109 76.0586 12.7422 76.0586 12.7734C76.0742 12.7891 76.0742 12.8203 76.0586 12.8672C75.9961 12.9453 75.9258 13.0234 75.8477 13.1016C75.7852 13.1641 75.7227 13.2422 75.6602 13.3359C75.5664 13.4609 75.4727 13.5859 75.3789 13.7109C75.2852 13.8359 75.1992 13.9688 75.1211 14.1094C75.1055 14.1094 75.0977 14.1172 75.0977 14.1328C75.0977 14.1484 75.0977 14.1562 75.0977 14.1562C75.0977 14.1719 75.0977 14.1875 75.0977 14.2031C75.0977 14.2031 75.1055 14.2109 75.1211 14.2266C75.1992 14.3516 75.2695 14.4766 75.332 14.6016C75.4102 14.7109 75.4805 14.8281 75.543 14.9531C75.7617 15.2969 75.9805 15.6328 76.1992 15.9609C76.4336 16.2734 76.6758 16.5781 76.9258 16.875C77.082 17.0625 77.2305 17.2422 77.3711 17.4141C77.5273 17.5703 77.6836 17.7422 77.8398 17.9297C77.918 18.0078 77.9961 18.0859 78.0742 18.1641C78.1523 18.2422 78.2305 18.3125 78.3086 18.375C78.3867 18.4531 78.4727 18.5391 78.5664 18.6328C78.6758 18.7266 78.7773 18.8203 78.8711 18.9141C78.9961 19.0234 79.1211 19.1328 79.2461 19.2422C79.3867 19.3516 79.5195 19.4609 79.6445 19.5703C79.8164 19.7109 79.9883 19.8516 80.1602 19.9922C80.3477 20.1172 80.5273 20.2422 80.6992 20.3672C80.8867 20.4922 81.0664 20.6172 81.2383 20.7422C81.4258 20.8516 81.6133 20.9609 81.8008 21.0703C81.8164 21.0859 81.832 21.0938 81.8477 21.0938C81.8633 21.1094 81.8867 21.1172 81.918 21.1172C81.9336 21.1172 81.9492 21.1094 81.9648 21.0938C81.9805 21.0938 81.9961 21.0859 82.0117 21.0703C82.2148 20.9453 82.4023 20.8125 82.5742 20.6719C82.7617 20.5156 82.9414 20.3516 83.1133 20.1797C83.1289 20.1797 83.1445 20.1719 83.1602 20.1562C83.1758 20.1406 83.1914 20.1406 83.207 20.1562C83.2383 20.1562 83.2695 20.1641 83.3008 20.1797C83.332 20.1797 83.3711 20.1875 83.418 20.2031C83.5898 20.25 83.7617 20.2891 83.9336 20.3203C84.1055 20.3516 84.2852 20.375 84.4727 20.3906C84.5977 20.4062 84.7227 20.4219 84.8477 20.4375C84.9883 20.4375 85.1289 20.4375 85.2695 20.4375C85.3164 20.4375 85.3555 20.4375 85.3867 20.4375C85.4336 20.4375 85.4805 20.4375 85.5273 20.4375C85.5586 20.4375 85.5898 20.4375 85.6211 20.4375C85.668 20.4375 85.707 20.4375 85.7383 20.4375C85.7852 20.4375 85.8242 20.4375 85.8555 20.4375C85.9023 20.4375 85.9492 20.4375 85.9961 20.4375C86.1055 20.4375 86.2148 20.4375 86.3242 20.4375C86.4336 20.4219 86.543 20.4062 86.6523 20.3906C86.9336 20.3594 87.207 20.3203 87.4727 20.2734C87.7383 20.2266 88.0039 20.1641 88.2695 20.0859C88.6914 19.9609 89.0977 19.8125 89.4883 19.6406C89.8945 19.4688 90.2852 19.2734 90.6602 19.0547C91.082 18.7891 91.4883 18.4922 91.8789 18.1641C92.2695 17.8359 92.6289 17.4844 92.957 17.1094C93.5195 16.5156 93.9961 15.8672 94.3867 15.1641C94.793 14.4609 95.1055 13.7188 95.3242 12.9375C95.543 12.1719 95.668 11.3828 95.6992 10.5703C95.7305 9.75781 95.668 8.95312 95.5117 8.15625ZM91.668 16.2656C91.1367 16.8281 90.5352 17.3047 89.8633 17.6953C89.1914 18.0703 88.4805 18.3359 87.7305 18.4922C87.3711 18.5859 87.0117 18.6562 86.6523 18.7031C86.293 18.7344 85.9336 18.7422 85.5742 18.7266C84.5586 18.6953 83.582 18.4844 82.6445 18.0938C81.707 17.7031 80.8711 17.1484 80.1367 16.4297C79.4961 15.8203 78.957 15.125 78.5195 14.3438C78.0977 13.5625 77.8086 12.7266 77.6523 11.8359C77.5117 11.1953 77.4492 10.5547 77.4648 9.91406C77.4805 9.25781 77.5664 8.60938 77.7227 7.96875C77.8945 7.34375 78.1289 6.74219 78.4258 6.16406C78.7227 5.58594 79.0898 5.04688 79.5273 4.54688C80.1055 3.85937 80.7773 3.28906 81.543 2.83594C82.3242 2.36719 83.1523 2.04688 84.0273 1.875C84.3398 1.8125 84.6602 1.76563 84.9883 1.73438C85.3164 1.70312 85.6367 1.69531 85.9492 1.71094C86.8555 1.74219 87.7305 1.92188 88.5742 2.25C89.4336 2.5625 90.207 3.00781 90.8945 3.58594C91.6289 4.16406 92.2461 4.85156 92.7461 5.64844C93.2461 6.44531 93.6055 7.30469 93.8242 8.22656C93.9023 8.57031 93.957 8.91406 93.9883 9.25781C94.0352 9.60156 94.0586 9.95312 94.0586 10.3125C94.0586 11.4219 93.8555 12.4922 93.4492 13.5234C93.043 14.5547 92.4492 15.4688 91.668 16.2656ZM85.6445 3.375C86.4258 3.375 87.1836 3.50781 87.918 3.77344C88.668 4.03906 89.3555 4.42187 89.9805 4.92188C90.5898 5.40625 91.0977 5.99219 91.5039 6.67969C91.9258 7.35156 92.2227 8.07812 92.3945 8.85938C92.5977 9.70312 92.6367 10.5625 92.5117 11.4375C92.4023 12.3125 92.1367 13.1328 91.7148 13.8984C91.668 13.9922 91.6133 14.0859 91.5508 14.1797C91.5039 14.2734 91.4492 14.3594 91.3867 14.4375C91.3086 14.5312 91.207 14.6172 91.082 14.6953C90.9727 14.7734 90.8555 14.8359 90.7305 14.8828C90.6055 14.9297 90.4727 14.9609 90.332 14.9766C90.1914 14.9766 90.0586 14.9688 89.9336 14.9531C89.793 14.9219 89.6602 14.875 89.5352 14.8125C89.4102 14.75 89.3008 14.6719 89.207 14.5781C89.0977 14.5 89.0039 14.4062 88.9258 14.2969C88.8477 14.1719 88.7852 14.0469 88.7383 13.9219C88.6445 13.6094 88.4883 13.3359 88.2695 13.1016C88.0664 12.8516 87.8242 12.6562 87.543 12.5156C87.3398 12.4062 87.1211 12.3281 86.8867 12.2812C86.668 12.2188 86.4414 12.1953 86.207 12.2109C85.9883 12.2266 85.7695 12.2734 85.5508 12.3516C85.332 12.4141 85.1211 12.5078 84.918 12.6328C84.668 12.7891 84.4023 12.9141 84.1211 13.0078C83.8398 13.0859 83.5508 13.1406 83.2539 13.1719C82.957 13.1875 82.6602 13.1719 82.3633 13.125C82.082 13.0781 81.8008 13 81.5195 12.8906C81.2539 12.7812 80.9961 12.6406 80.7461 12.4688C80.4961 12.2969 80.2773 12.1016 80.0898 11.8828C79.8867 11.6641 79.7148 11.4297 79.5742 11.1797C79.4336 10.9141 79.3164 10.6328 79.2227 10.3359C79.1445 10.0859 79.0898 9.82812 79.0586 9.5625C79.043 9.28125 79.0508 9 79.082 8.71875C79.0977 8.45312 79.1445 8.19531 79.2227 7.94531C79.3164 7.67969 79.4258 7.42188 79.5508 7.17188C79.7852 6.70312 80.0742 6.26562 80.418 5.85938C80.7617 5.45312 81.1445 5.09375 81.5664 4.78125C81.9727 4.45312 82.418 4.1875 82.9023 3.98438C83.3867 3.76562 83.8867 3.60156 84.4023 3.49219C84.4805 3.47656 84.5508 3.46875 84.6133 3.46875C84.6914 3.45313 84.7695 3.4375 84.8477 3.42188C84.9727 3.40625 85.0977 3.39844 85.2227 3.39844C85.3633 3.38281 85.5039 3.375 85.6445 3.375ZM88.457 16.7109C88.582 16.6797 88.6914 16.6406 88.7852 16.5938C88.8945 16.5312 88.9883 16.4609 89.0664 16.3828C89.1133 16.3359 89.1523 16.2812 89.1836 16.2188C89.2148 16.1562 89.2383 16.0938 89.2539 16.0312C89.2695 15.9688 89.2773 15.9062 89.2773 15.8438C89.2773 15.7812 89.2695 15.7188 89.2539 15.6562C89.2383 15.5781 89.2148 15.5156 89.1836 15.4688C89.1523 15.4062 89.1133 15.3516 89.0664 15.3047C89.0195 15.2578 88.9648 15.2188 88.9023 15.1875C88.8555 15.1406 88.8008 15.1094 88.7383 15.0938C88.6445 15.0781 88.5508 15.0469 88.457 15C88.3789 14.9375 88.3086 14.875 88.2461 14.8125C88.1836 14.7344 88.1211 14.6484 88.0586 14.5547C88.0117 14.4609 87.9727 14.3594 87.9414 14.25C87.8789 14.125 87.8008 14.0078 87.707 13.8984C87.6133 13.7891 87.5039 13.6953 87.3789 13.6172C87.2539 13.5547 87.1211 13.5078 86.9805 13.4766C86.8398 13.4453 86.6992 13.4453 86.5586 13.4766C86.4492 13.4922 86.3477 13.5234 86.2539 13.5703C86.1758 13.6016 86.0898 13.6484 85.9961 13.7109C85.918 13.7734 85.8477 13.8438 85.7852 13.9219C85.7227 13.9844 85.668 14.0625 85.6211 14.1562C85.5742 14.25 85.5352 14.3438 85.5039 14.4375C85.4883 14.5312 85.4805 14.625 85.4805 14.7188C85.4805 14.8281 85.4883 14.9297 85.5039 15.0234C85.5195 15.1172 85.5508 15.2109 85.5977 15.3047C85.6914 15.5391 85.8086 15.75 85.9492 15.9375C86.1055 16.125 86.2852 16.2812 86.4883 16.4062C86.6914 16.5469 86.9102 16.6562 87.1445 16.7344C87.3789 16.7969 87.6133 16.8203 87.8477 16.8047C87.957 16.8047 88.0586 16.7969 88.1523 16.7812C88.2617 16.7656 88.3633 16.7422 88.457 16.7109ZM216.837 11.642L213.513 11.8466C213.422 11.4261 213.192 11.0653 212.823 10.7642C212.453 10.4631 211.953 10.3125 211.323 10.3125C210.76 10.3125 210.283 10.4318 209.891 10.6705C209.505 10.9034 209.314 11.2159 209.32 11.608C209.314 11.9205 209.436 12.1847 209.686 12.4006C209.942 12.6165 210.374 12.7898 210.982 12.9205L213.351 13.3977C215.868 13.9148 217.13 15.0966 217.135 16.9432C217.135 17.8011 216.882 18.554 216.377 19.2017C215.877 19.8494 215.189 20.3551 214.314 20.7188C213.439 21.0767 212.436 21.2557 211.306 21.2557C209.573 21.2557 208.192 20.8949 207.164 20.1733C206.135 19.446 205.536 18.4574 205.365 17.2074L208.936 17.0199C209.05 17.554 209.311 17.9574 209.721 18.2301C210.135 18.5028 210.667 18.6392 211.314 18.6392C211.951 18.6392 212.462 18.5142 212.848 18.2642C213.24 18.0142 213.439 17.696 213.445 17.3097C213.428 16.6619 212.868 16.2273 211.766 16.0057L209.499 15.554C206.965 15.0483 205.703 13.8011 205.715 11.8125C205.709 10.5511 206.212 9.55682 207.223 8.82954C208.24 8.10227 209.587 7.73864 211.263 7.73864C212.917 7.73864 214.218 8.08807 215.167 8.78693C216.121 9.4858 216.678 10.4375 216.837 11.642ZM225.387 21.2557C224.047 21.2557 222.89 20.983 221.919 20.4375C220.947 19.8864 220.2 19.108 219.677 18.1023C219.154 17.0909 218.893 15.8949 218.893 14.5142C218.893 13.1676 219.154 11.9858 219.677 10.9688C220.2 9.9517 220.936 9.15909 221.885 8.59091C222.839 8.02273 223.958 7.73864 225.243 7.73864C226.396 7.73864 227.436 7.98295 228.362 8.47159C229.294 8.96023 230.032 9.69886 230.578 10.6875C231.123 11.6705 231.396 12.9034 231.396 14.3864V15.3835H222.481V15.392C222.481 16.3693 222.748 17.1392 223.282 17.7017C223.816 18.2642 224.538 18.5455 225.447 18.5455C226.055 18.5455 226.581 18.4176 227.024 18.1619C227.467 17.9062 227.779 17.5284 227.961 17.0284L231.319 17.25C231.064 18.4659 230.416 19.4375 229.376 20.1648C228.336 20.892 227.007 21.2557 225.387 21.2557ZM222.481 13.1335H227.978C227.973 12.3551 227.723 11.7131 227.228 11.2074C226.734 10.7017 226.092 10.4489 225.302 10.4489C224.495 10.4489 223.833 10.7102 223.316 11.233C222.799 11.7557 222.521 12.3892 222.481 13.1335ZM237.396 3.54545V21H233.765V3.54545H237.396ZM244.037 21.2472C242.787 21.2472 241.75 20.9205 240.926 20.267C240.103 19.6136 239.691 18.6392 239.691 17.3438C239.691 16.3665 239.921 15.5994 240.381 15.0426C240.841 14.4858 241.444 14.0795 242.188 13.8239C242.938 13.5625 243.745 13.392 244.608 13.3125C245.745 13.1989 246.557 13.0795 247.046 12.9545C247.534 12.8295 247.779 12.5568 247.779 12.1364V12.0852C247.779 11.5455 247.608 11.1278 247.267 10.8324C246.932 10.5369 246.455 10.3892 245.836 10.3892C245.182 10.3892 244.662 10.5312 244.276 10.8153C243.89 11.0994 243.634 11.4602 243.509 11.8977L240.151 11.625C240.401 10.4318 241.02 9.4858 242.009 8.78693C243.003 8.08807 244.284 7.73864 245.853 7.73864C246.824 7.73864 247.733 7.89205 248.58 8.19886C249.426 8.50568 250.108 8.9858 250.625 9.6392C251.148 10.2869 251.409 11.1307 251.409 12.1705V21H247.966V19.1847H247.864C247.546 19.7926 247.069 20.2898 246.432 20.6761C245.801 21.0568 245.003 21.2472 244.037 21.2472ZM245.077 18.7415C245.873 18.7415 246.526 18.5114 247.037 18.0511C247.549 17.5852 247.804 17.0085 247.804 16.321V14.9318C247.662 15.0284 247.441 15.1136 247.14 15.1875C246.844 15.2614 246.526 15.3267 246.185 15.3835C245.85 15.4347 245.549 15.4801 245.282 15.5199C244.645 15.6108 244.131 15.7898 243.739 16.0568C243.353 16.3239 243.159 16.7131 243.159 17.2244C243.159 17.7244 243.338 18.1023 243.696 18.358C244.06 18.6136 244.52 18.7415 245.077 18.7415ZM254.226 21V7.90909H257.686V10.2188H257.84C258.113 9.44602 258.567 8.84091 259.203 8.40341C259.846 7.96023 260.607 7.73864 261.488 7.73864C262.385 7.73864 263.15 7.96307 263.78 8.41193C264.411 8.85511 264.831 9.45739 265.042 10.2188H265.178C265.445 9.46875 265.928 8.86932 266.627 8.42045C267.331 7.96591 268.164 7.73864 269.124 7.73864C270.346 7.73864 271.337 8.12784 272.098 8.90625C272.865 9.67898 273.249 10.7756 273.249 12.196V21H269.627V12.9119C269.627 12.1847 269.434 11.6392 269.047 11.2756C268.661 10.9119 268.178 10.7301 267.598 10.7301C266.939 10.7301 266.425 10.9403 266.056 11.3608C265.686 11.7812 265.502 12.3295 265.502 13.0057V21H261.982V12.8352C261.982 12.1932 261.797 11.6818 261.428 11.3011C261.064 10.9205 260.584 10.7301 259.988 10.7301C259.385 10.7301 258.88 10.9517 258.471 11.3949C258.061 11.8324 257.857 12.4148 257.857 13.142V21H254.226ZM279.85 21.2472C278.6 21.2472 277.563 20.9205 276.739 20.267C275.915 19.6136 275.503 18.6392 275.503 17.3438C275.503 16.3665 275.733 15.5994 276.194 15.0426C276.654 14.4858 277.256 14.0795 278 13.8239C278.75 13.5625 279.557 13.392 280.421 13.3125C281.557 13.1989 282.37 13.0795 282.858 12.9545C283.347 12.8295 283.591 12.5568 283.591 12.1364V12.0852C283.591 11.5455 283.421 11.1278 283.08 10.8324C282.745 10.5369 282.267 10.3892 281.648 10.3892C280.995 10.3892 280.475 10.5312 280.088 10.8153C279.702 11.0994 279.446 11.4602 279.321 11.8977L275.963 11.625C276.213 10.4318 276.833 9.4858 277.821 8.78693C278.816 8.08807 280.097 7.73864 281.665 7.73864C282.637 7.73864 283.546 7.89205 284.392 8.19886C285.239 8.50568 285.921 8.9858 286.438 9.6392C286.961 10.2869 287.222 11.1307 287.222 12.1705V21H283.779V19.1847H283.676C283.358 19.7926 282.881 20.2898 282.245 20.6761C281.614 21.0568 280.816 21.2472 279.85 21.2472ZM280.89 18.7415C281.685 18.7415 282.338 18.5114 282.85 18.0511C283.361 17.5852 283.617 17.0085 283.617 16.321V14.9318C283.475 15.0284 283.253 15.1136 282.952 15.1875C282.657 15.2614 282.338 15.3267 281.998 15.3835C281.662 15.4347 281.361 15.4801 281.094 15.5199C280.458 15.6108 279.944 15.7898 279.551 16.0568C279.165 16.3239 278.972 16.7131 278.972 17.2244C278.972 17.7244 279.151 18.1023 279.509 18.358C279.873 18.6136 280.333 18.7415 280.89 18.7415ZM302.787 3.54545V21H299.105V8.0625H298.943C298.755 8.35227 298.358 8.64204 297.75 8.93182C297.142 9.21591 296.355 9.35795 295.389 9.35795V6.42614C296.139 6.42614 296.795 6.26136 297.358 5.93182C297.92 5.59659 298.36 5.20455 298.679 4.75568C298.997 4.30114 299.162 3.89773 299.173 3.54545H302.787ZM306.926 21V18.3409L313.14 12.5881C313.935 11.8267 314.54 11.1648 314.955 10.6023C315.37 10.0398 315.577 9.41193 315.577 8.71875C315.577 7.9517 315.321 7.34659 314.81 6.90341C314.304 6.45455 313.668 6.23011 312.901 6.23011C312.105 6.23011 311.463 6.47159 310.975 6.95454C310.492 7.43182 310.253 8.08807 310.259 8.92329H306.756C306.756 7.78125 307.015 6.78977 307.532 5.94886C308.049 5.10795 308.77 4.45739 309.696 3.99716C310.628 3.53693 311.705 3.30682 312.926 3.30682C314.176 3.30682 315.265 3.52841 316.191 3.97159C317.123 4.40909 317.847 5.01705 318.364 5.79545C318.881 6.56818 319.14 7.46023 319.14 8.47159C319.14 9.13068 319.009 9.78125 318.748 10.4233C318.486 11.0653 318.026 11.7784 317.367 12.5625C316.713 13.3409 315.787 14.2756 314.588 15.3665L312.04 17.8636V17.983H319.37V21H306.926ZM49.2205 37.9091V40.6364H46.7575V46.9773C46.7575 47.4773 46.8711 47.8153 47.0984 47.9915C47.3256 48.1676 47.6211 48.2557 47.9847 48.2557C48.1552 48.2557 48.3256 48.2415 48.4961 48.2131C48.6665 48.179 48.7972 48.1534 48.8881 48.1364L49.4592 50.8381C49.2773 50.8949 49.0217 50.9602 48.6921 51.0341C48.3626 51.1136 47.962 51.1619 47.4904 51.179C46.1722 51.2358 45.1126 50.9517 44.3114 50.3267C43.516 49.696 43.1211 48.7386 43.1268 47.4545V40.6364H41.337V37.9091H43.1268V34.7727H46.7575V37.9091H49.2205ZM55.3185 51.2472C54.0685 51.2472 53.0316 50.9205 52.2077 50.267C51.3839 49.6136 50.9719 48.6392 50.9719 47.3438C50.9719 46.3665 51.2021 45.5994 51.6623 45.0426C52.1225 44.4858 52.7248 44.0795 53.4691 43.8239C54.2191 43.5625 55.0259 43.392 55.8896 43.3125C57.0259 43.1989 57.8384 43.0795 58.3271 42.9545C58.8157 42.8295 59.06 42.5568 59.06 42.1364V42.0852C59.06 41.5455 58.8896 41.1278 58.5487 40.8324C58.2134 40.5369 57.7362 40.3892 57.1168 40.3892C56.4634 40.3892 55.9435 40.5312 55.5572 40.8153C55.1708 41.0994 54.9151 41.4602 54.7901 41.8977L51.4322 41.625C51.6822 40.4318 52.3015 39.4858 53.2901 38.7869C54.2844 38.0881 55.5657 37.7386 57.1339 37.7386C58.1055 37.7386 59.0146 37.892 59.8612 38.1989C60.7077 38.5057 61.3896 38.9858 61.9066 39.6392C62.4293 40.2869 62.6907 41.1307 62.6907 42.1705V51H59.2475V49.1847H59.1452C58.8271 49.7926 58.3498 50.2898 57.7134 50.6761C57.0827 51.0568 56.2844 51.2472 55.3185 51.2472ZM56.3583 48.7415C57.1538 48.7415 57.8072 48.5114 58.3185 48.0511C58.8299 47.5852 59.0856 47.0085 59.0856 46.321V44.9318C58.9435 45.0284 58.7219 45.1136 58.4208 45.1875C58.1254 45.2614 57.8072 45.3267 57.4663 45.3835C57.131 45.4347 56.8299 45.4801 56.5629 45.5199C55.9265 45.6108 55.4123 45.7898 55.0202 46.0568C54.6339 46.3239 54.4407 46.7131 54.4407 47.2244C54.4407 47.7244 54.6197 48.1023 54.9776 48.358C55.3413 48.6136 55.8015 48.7415 56.3583 48.7415ZM69.1381 43.4318V51H65.5075V33.5455H69.0359V40.2188H69.1893C69.4904 39.446 69.9677 38.8409 70.6211 38.4034C71.2802 37.9602 72.1069 37.7386 73.1012 37.7386C74.4648 37.7386 75.5614 38.1761 76.391 39.0511C77.2205 39.9261 77.6325 41.1307 77.6268 42.6648V51H73.9961V43.3125C74.0018 42.5057 73.7972 41.8778 73.3825 41.429C72.9734 40.9801 72.3995 40.7557 71.6609 40.7557C70.9222 40.7557 70.3171 40.9915 69.8455 41.4631C69.3796 41.929 69.1438 42.5852 69.1381 43.4318ZM88.8789 45.4261V37.9091H92.5096V51H89.0238V48.6222H88.8874C88.592 49.3892 88.1005 50.0057 87.413 50.4716C86.7312 50.9375 85.8988 51.1705 84.9158 51.1705C83.5977 51.1705 82.5295 50.733 81.7113 49.858C80.8988 48.9773 80.4897 47.7727 80.484 46.2443V37.9091H84.1147V45.5966C84.1204 46.3693 84.3278 46.9801 84.7369 47.429C85.146 47.8778 85.6942 48.1023 86.3817 48.1023C87.0352 48.1023 87.6147 47.875 88.1204 47.4205C88.6317 46.9659 88.8846 46.3011 88.8789 45.4261ZM99.0444 43.4318V51H95.4137V37.9091H98.8739V40.2188H99.0273C99.3228 39.4574 99.8086 38.8551 100.485 38.4119C101.167 37.9631 101.993 37.7386 102.965 37.7386C104.328 37.7386 105.422 38.179 106.246 39.0597C107.07 39.9347 107.482 41.1364 107.482 42.6648V51H103.851V43.3125C103.857 42.5114 103.652 41.8864 103.238 41.4375C102.823 40.983 102.252 40.7557 101.525 40.7557C100.792 40.7557 100.195 40.9915 99.7347 41.4631C99.2802 41.929 99.0501 42.5852 99.0444 43.4318ZM115.898 51V37.9091H119.358V40.2188H119.512C119.784 39.446 120.239 38.8409 120.875 38.4034C121.517 37.9602 122.279 37.7386 123.159 37.7386C124.057 37.7386 124.821 37.9631 125.452 38.4119C126.083 38.8551 126.503 39.4574 126.713 40.2188H126.85C127.117 39.4688 127.6 38.8693 128.299 38.4205C129.003 37.9659 129.836 37.7386 130.796 37.7386C132.017 37.7386 133.009 38.1278 133.77 38.9062C134.537 39.679 134.921 40.7756 134.921 42.196V51H131.299V42.9119C131.299 42.1847 131.105 41.6392 130.719 41.2756C130.333 40.9119 129.85 40.7301 129.27 40.7301C128.611 40.7301 128.097 40.9403 127.728 41.3608C127.358 41.7812 127.174 42.3295 127.174 43.0057V51H123.654V42.8352C123.654 42.1932 123.469 41.6818 123.1 41.3011C122.736 40.9205 122.256 40.7301 121.659 40.7301C121.057 40.7301 120.551 40.9517 120.142 41.3949C119.733 41.8324 119.529 42.4148 119.529 43.142V51H115.898ZM143.755 51.2557C142.414 51.2557 141.257 50.983 140.286 50.4375C139.314 49.8864 138.567 49.108 138.044 48.1023C137.522 47.0909 137.26 45.8949 137.26 44.5142C137.26 43.1676 137.522 41.9858 138.044 40.9688C138.567 39.9517 139.303 39.1591 140.252 38.5909C141.206 38.0227 142.326 37.7386 143.61 37.7386C144.763 37.7386 145.803 37.983 146.729 38.4716C147.661 38.9602 148.4 39.6989 148.945 40.6875C149.49 41.6705 149.763 42.9034 149.763 44.3864V45.3835H140.848V45.392C140.848 46.3693 141.115 47.1392 141.65 47.7017C142.184 48.2642 142.905 48.5455 143.814 48.5455C144.422 48.5455 144.948 48.4176 145.391 48.1619C145.834 47.9062 146.147 47.5284 146.328 47.0284L149.686 47.25C149.431 48.4659 148.783 49.4375 147.743 50.1648C146.703 50.892 145.374 51.2557 143.755 51.2557ZM140.848 43.1335H146.346C146.34 42.3551 146.09 41.7131 145.596 41.2074C145.101 40.7017 144.459 40.4489 143.669 40.4489C142.863 40.4489 142.201 40.7102 141.684 41.233C141.167 41.7557 140.888 42.3892 140.848 43.1335ZM155.763 43.4318V51H152.132V37.9091H155.593V40.2188H155.746C156.042 39.4574 156.527 38.8551 157.203 38.4119C157.885 37.9631 158.712 37.7386 159.684 37.7386C161.047 37.7386 162.141 38.179 162.965 39.0597C163.789 39.9347 164.201 41.1364 164.201 42.6648V51H160.57V43.3125C160.576 42.5114 160.371 41.8864 159.956 41.4375C159.542 40.983 158.971 40.7557 158.243 40.7557C157.51 40.7557 156.914 40.9915 156.453 41.4631C155.999 41.929 155.769 42.5852 155.763 43.4318ZM167.062 37.9091H170.693V51.6051C170.693 53.1222 170.25 54.2216 169.363 54.9034C168.477 55.5852 167.247 55.9063 165.673 55.8665C165.576 55.8665 165.477 55.8636 165.375 55.858C165.267 55.858 165.142 55.8551 165 55.8494V53.0114C165.096 53.017 165.181 53.0199 165.255 53.0199C165.329 53.0256 165.403 53.0284 165.477 53.0284C166.062 53.0284 166.471 52.9034 166.704 52.6534C166.943 52.4091 167.062 52.0398 167.062 51.5455V37.9091ZM168.869 36.2216C168.335 36.2216 167.875 36.0426 167.488 35.6847C167.102 35.321 166.909 34.8864 166.909 34.3807C166.909 33.875 167.102 33.4432 167.488 33.0852C167.875 32.7273 168.335 32.5483 168.869 32.5483C169.409 32.5483 169.872 32.7273 170.258 33.0852C170.645 33.4432 170.838 33.875 170.838 34.3807C170.838 34.8864 170.645 35.321 170.258 35.6847C169.872 36.0426 169.409 36.2216 168.869 36.2216ZM177.334 51.2472C176.084 51.2472 175.047 50.9205 174.223 50.267C173.4 49.6136 172.988 48.6392 172.988 47.3438C172.988 46.3665 173.218 45.5994 173.678 45.0426C174.138 44.4858 174.74 44.0795 175.485 43.8239C176.235 43.5625 177.042 43.392 177.905 43.3125C179.042 43.1989 179.854 43.0795 180.343 42.9545C180.831 42.8295 181.076 42.5568 181.076 42.1364V42.0852C181.076 41.5455 180.905 41.1278 180.564 40.8324C180.229 40.5369 179.752 40.3892 179.132 40.3892C178.479 40.3892 177.959 40.5312 177.573 40.8153C177.186 41.0994 176.931 41.4602 176.806 41.8977L173.448 41.625C173.698 40.4318 174.317 39.4858 175.306 38.7869C176.3 38.0881 177.581 37.7386 179.15 37.7386C180.121 37.7386 181.03 37.892 181.877 38.1989C182.723 38.5057 183.405 38.9858 183.922 39.6392C184.445 40.2869 184.706 41.1307 184.706 42.1705V51H181.263V49.1847H181.161C180.843 49.7926 180.365 50.2898 179.729 50.6761C179.098 51.0568 178.3 51.2472 177.334 51.2472ZM178.374 48.7415C179.169 48.7415 179.823 48.5114 180.334 48.0511C180.846 47.5852 181.101 47.0085 181.101 46.321V44.9318C180.959 45.0284 180.738 45.1136 180.436 45.1875C180.141 45.2614 179.823 45.3267 179.482 45.3835C179.147 45.4347 178.846 45.4801 178.578 45.5199C177.942 45.6108 177.428 45.7898 177.036 46.0568C176.65 46.3239 176.456 46.7131 176.456 47.2244C176.456 47.7244 176.635 48.1023 176.993 48.358C177.357 48.6136 177.817 48.7415 178.374 48.7415ZM192.347 51.2131C191.353 51.2131 190.455 50.9574 189.654 50.446C188.853 49.929 188.216 49.1705 187.745 48.1705C187.273 47.1648 187.037 45.9318 187.037 44.4716C187.037 42.9716 187.279 41.7244 187.762 40.7301C188.25 39.7301 188.895 38.983 189.696 38.4886C190.503 37.9886 191.384 37.7386 192.338 37.7386C193.071 37.7386 193.682 37.8636 194.171 38.1136C194.665 38.358 195.063 38.6619 195.364 39.0256C195.671 39.3892 195.904 39.75 196.063 40.108H196.174V33.5455H199.796V51H196.216V48.9034H196.063C195.898 49.267 195.659 49.6278 195.347 49.9858C195.034 50.3381 194.631 50.6307 194.137 50.8636C193.648 51.0966 193.051 51.2131 192.347 51.2131ZM193.498 48.3239C194.373 48.3239 195.049 47.9716 195.526 47.267C196.009 46.5568 196.25 45.6193 196.25 44.4545C196.25 43.2841 196.012 42.3551 195.534 41.6676C195.057 40.9744 194.378 40.6278 193.498 40.6278C192.6 40.6278 191.915 40.983 191.444 41.6932C190.978 42.3977 190.745 43.3182 190.745 44.4545C190.745 45.5966 190.98 46.5284 191.452 47.25C191.924 47.9659 192.605 48.3239 193.498 48.3239ZM202.781 51V37.9091H206.412V51H202.781ZM204.605 36.2216C204.071 36.2216 203.61 36.0426 203.224 35.6847C202.838 35.321 202.645 34.8864 202.645 34.3807C202.645 33.875 202.838 33.4432 203.224 33.0852C203.61 32.7273 204.071 32.5483 204.605 32.5483C205.145 32.5483 205.608 32.7273 205.994 33.0852C206.38 33.4432 206.574 33.875 206.574 34.3807C206.574 34.8864 206.38 35.321 205.994 35.6847C205.608 36.0426 205.145 36.2216 204.605 36.2216ZM218.608 51.2472C217.358 51.2472 216.321 50.9205 215.497 50.267C214.673 49.6136 214.261 48.6392 214.261 47.3438C214.261 46.3665 214.491 45.5994 214.951 45.0426C215.412 44.4858 216.014 44.0795 216.758 43.8239C217.508 43.5625 218.315 43.392 219.179 43.3125C220.315 43.1989 221.127 43.0795 221.616 42.9545C222.105 42.8295 222.349 42.5568 222.349 42.1364V42.0852C222.349 41.5455 222.179 41.1278 221.838 40.8324C221.502 40.5369 221.025 40.3892 220.406 40.3892C219.752 40.3892 219.233 40.5312 218.846 40.8153C218.46 41.0994 218.204 41.4602 218.079 41.8977L214.721 41.625C214.971 40.4318 215.591 39.4858 216.579 38.7869C217.574 38.0881 218.855 37.7386 220.423 37.7386C221.395 37.7386 222.304 37.892 223.15 38.1989C223.997 38.5057 224.679 38.9858 225.196 39.6392C225.718 40.2869 225.98 41.1307 225.98 42.1705V51H222.537V49.1847H222.434C222.116 49.7926 221.639 50.2898 221.002 50.6761C220.372 51.0568 219.574 51.2472 218.608 51.2472ZM219.647 48.7415C220.443 48.7415 221.096 48.5114 221.608 48.0511C222.119 47.5852 222.375 47.0085 222.375 46.321V44.9318C222.233 45.0284 222.011 45.1136 221.71 45.1875C221.414 45.2614 221.096 45.3267 220.755 45.3835C220.42 45.4347 220.119 45.4801 219.852 45.5199C219.216 45.6108 218.701 45.7898 218.309 46.0568C217.923 46.3239 217.73 46.7131 217.73 47.2244C217.73 47.7244 217.909 48.1023 218.267 48.358C218.63 48.6136 219.091 48.7415 219.647 48.7415ZM234.711 51.2557C233.37 51.2557 232.217 50.9716 231.251 50.4034C230.291 49.8295 229.552 49.0341 229.035 48.017C228.524 47 228.268 45.8295 228.268 44.5057C228.268 43.1648 228.527 41.9886 229.044 40.9773C229.566 39.9602 230.308 39.1676 231.268 38.5994C232.228 38.0256 233.37 37.7386 234.694 37.7386C235.836 37.7386 236.836 37.946 237.694 38.3608C238.558 38.7756 239.237 39.358 239.731 40.108C240.231 40.858 240.507 41.7386 240.558 42.75H237.132C237.035 42.0966 236.779 41.571 236.365 41.1733C235.956 40.7699 235.419 40.5682 234.754 40.5682C233.913 40.5682 233.237 40.9062 232.725 41.5824C232.214 42.2585 231.958 43.2159 231.958 44.4545C231.958 45.7045 232.211 46.6733 232.717 47.3608C233.228 48.0426 233.907 48.3835 234.754 48.3835C235.379 48.3835 235.904 48.196 236.331 47.821C236.757 47.4403 237.024 46.9006 237.132 46.2017H240.558C240.501 47.2017 240.228 48.0824 239.74 48.8438C239.257 49.6051 238.589 50.1989 237.737 50.625C236.885 51.0455 235.876 51.2557 234.711 51.2557ZM246.615 51.2472C245.365 51.2472 244.328 50.9205 243.505 50.267C242.681 49.6136 242.269 48.6392 242.269 47.3438C242.269 46.3665 242.499 45.5994 242.959 45.0426C243.419 44.4858 244.022 44.0795 244.766 43.8239C245.516 43.5625 246.323 43.392 247.186 43.3125C248.323 43.1989 249.135 43.0795 249.624 42.9545C250.113 42.8295 250.357 42.5568 250.357 42.1364V42.0852C250.357 41.5455 250.186 41.1278 249.846 40.8324C249.51 40.5369 249.033 40.3892 248.414 40.3892C247.76 40.3892 247.24 40.5312 246.854 40.8153C246.468 41.0994 246.212 41.4602 246.087 41.8977L242.729 41.625C242.979 40.4318 243.598 39.4858 244.587 38.7869C245.581 38.0881 246.863 37.7386 248.431 37.7386C249.402 37.7386 250.311 37.892 251.158 38.1989C252.005 38.5057 252.686 38.9858 253.203 39.6392C253.726 40.2869 253.988 41.1307 253.988 42.1705V51H250.544V49.1847H250.442C250.124 49.7926 249.647 50.2898 249.01 50.6761C248.38 51.0568 247.581 51.2472 246.615 51.2472ZM247.655 48.7415C248.451 48.7415 249.104 48.5114 249.615 48.0511C250.127 47.5852 250.382 47.0085 250.382 46.321V44.9318C250.24 45.0284 250.019 45.1136 249.718 45.1875C249.422 45.2614 249.104 45.3267 248.763 45.3835C248.428 45.4347 248.127 45.4801 247.86 45.5199C247.223 45.6108 246.709 45.7898 246.317 46.0568C245.931 46.3239 245.738 46.7131 245.738 47.2244C245.738 47.7244 245.917 48.1023 246.275 48.358C246.638 48.6136 247.098 48.7415 247.655 48.7415ZM256.804 51V37.9091H260.324V40.1932H260.461C260.699 39.3807 261.097 38.767 261.654 38.3523C262.216 37.9318 262.867 37.7216 263.605 37.7216C263.958 37.7216 264.284 37.7642 264.586 37.8494C264.887 37.9347 265.157 38.0511 265.395 38.1989L264.304 41.1989C264.134 41.1136 263.946 41.0426 263.742 40.9858C263.543 40.9233 263.319 40.892 263.069 40.892C262.336 40.892 261.713 41.142 261.202 41.642C260.696 42.142 260.441 42.7926 260.435 43.5938V51H256.804ZM270.451 51.2472C269.201 51.2472 268.164 50.9205 267.341 50.267C266.517 49.6136 266.105 48.6392 266.105 47.3438C266.105 46.3665 266.335 45.5994 266.795 45.0426C267.255 44.4858 267.858 44.0795 268.602 43.8239C269.352 43.5625 270.159 43.392 271.022 43.3125C272.159 43.1989 272.971 43.0795 273.46 42.9545C273.949 42.8295 274.193 42.5568 274.193 42.1364V42.0852C274.193 41.5455 274.022 41.1278 273.681 40.8324C273.346 40.5369 272.869 40.3892 272.25 40.3892C271.596 40.3892 271.076 40.5312 270.69 40.8153C270.304 41.0994 270.048 41.4602 269.923 41.8977L266.565 41.625C266.815 40.4318 267.434 39.4858 268.423 38.7869C269.417 38.0881 270.699 37.7386 272.267 37.7386C273.238 37.7386 274.147 37.892 274.994 38.1989C275.841 38.5057 276.522 38.9858 277.039 39.6392C277.562 40.2869 277.824 41.1307 277.824 42.1705V51H274.38V49.1847H274.278C273.96 49.7926 273.483 50.2898 272.846 50.6761C272.216 51.0568 271.417 51.2472 270.451 51.2472ZM271.491 48.7415C272.287 48.7415 272.94 48.5114 273.451 48.0511C273.963 47.5852 274.218 47.0085 274.218 46.321V44.9318C274.076 45.0284 273.855 45.1136 273.554 45.1875C273.258 45.2614 272.94 45.3267 272.599 45.3835C272.264 45.4347 271.963 45.4801 271.696 45.5199C271.059 45.6108 270.545 45.7898 270.153 46.0568C269.767 46.3239 269.574 46.7131 269.574 47.2244C269.574 47.7244 269.752 48.1023 270.11 48.358C270.474 48.6136 270.934 48.7415 271.491 48.7415ZM119.943 67.9091V70.6364H117.48V76.9773C117.48 77.4773 117.594 77.8153 117.821 77.9915C118.048 78.1676 118.344 78.2557 118.707 78.2557C118.878 78.2557 119.048 78.2415 119.219 78.2131C119.389 78.179 119.52 78.1534 119.611 78.1364L120.182 80.8381C120 80.8949 119.744 80.9602 119.415 81.0341C119.085 81.1136 118.685 81.1619 118.213 81.179C116.895 81.2358 115.835 80.9517 115.034 80.3267C114.239 79.696 113.844 78.7386 113.849 77.4545V70.6364H112.06V67.9091H113.849V64.7727H117.48V67.9091H119.943ZM126.041 81.2472C124.791 81.2472 123.754 80.9205 122.93 80.267C122.107 79.6136 121.695 78.6392 121.695 77.3438C121.695 76.3665 121.925 75.5994 122.385 75.0426C122.845 74.4858 123.447 74.0795 124.192 73.8239C124.942 73.5625 125.749 73.392 126.612 73.3125C127.749 73.1989 128.561 73.0795 129.05 72.9545C129.538 72.8295 129.783 72.5568 129.783 72.1364V72.0852C129.783 71.5455 129.612 71.1278 129.271 70.8324C128.936 70.5369 128.459 70.3892 127.839 70.3892C127.186 70.3892 126.666 70.5312 126.28 70.8153C125.893 71.0994 125.638 71.4602 125.513 71.8977L122.155 71.625C122.405 70.4318 123.024 69.4858 124.013 68.7869C125.007 68.0881 126.288 67.7386 127.857 67.7386C128.828 67.7386 129.737 67.892 130.584 68.1989C131.43 68.5057 132.112 68.9858 132.629 69.6392C133.152 70.2869 133.413 71.1307 133.413 72.1705V81H129.97V79.1847H129.868C129.55 79.7926 129.072 80.2898 128.436 80.6761C127.805 81.0568 127.007 81.2472 126.041 81.2472ZM127.081 78.7415C127.876 78.7415 128.53 78.5114 129.041 78.0511C129.553 77.5852 129.808 77.0085 129.808 76.321V74.9318C129.666 75.0284 129.445 75.1136 129.143 75.1875C128.848 75.2614 128.53 75.3267 128.189 75.3835C127.854 75.4347 127.553 75.4801 127.286 75.5199C126.649 75.6108 126.135 75.7898 125.743 76.0568C125.357 76.3239 125.163 76.7131 125.163 77.2244C125.163 77.7244 125.342 78.1023 125.7 78.358C126.064 78.6136 126.524 78.7415 127.081 78.7415ZM139.861 73.4318V81H136.23V63.5455H139.759V70.2188H139.912C140.213 69.446 140.69 68.8409 141.344 68.4034C142.003 67.9602 142.83 67.7386 143.824 67.7386C145.188 67.7386 146.284 68.1761 147.114 69.0511C147.943 69.9261 148.355 71.1307 148.349 72.6648V81H144.719V73.3125C144.724 72.5057 144.52 71.8778 144.105 71.429C143.696 70.9801 143.122 70.7557 142.384 70.7557C141.645 70.7557 141.04 70.9915 140.568 71.4631C140.102 71.929 139.866 72.5852 139.861 73.4318ZM159.602 75.4261V67.9091H163.232V81H159.746V78.6222H159.61C159.315 79.3892 158.823 80.0057 158.136 80.4716C157.454 80.9375 156.621 81.1705 155.638 81.1705C154.32 81.1705 153.252 80.733 152.434 79.858C151.621 78.9773 151.212 77.7727 151.207 76.2443V67.9091H154.837V75.5966C154.843 76.3693 155.05 76.9801 155.46 77.429C155.869 77.8778 156.417 78.1023 157.104 78.1023C157.758 78.1023 158.337 77.875 158.843 77.4205C159.354 76.9659 159.607 76.3011 159.602 75.4261ZM169.767 73.4318V81H166.136V67.9091H169.597V70.2188H169.75C170.045 69.4574 170.531 68.8551 171.207 68.4119C171.889 67.9631 172.716 67.7386 173.688 67.7386C175.051 67.7386 176.145 68.179 176.969 69.0597C177.793 69.9347 178.205 71.1364 178.205 72.6648V81H174.574V73.3125C174.58 72.5114 174.375 71.8864 173.96 71.4375C173.545 70.983 172.974 70.7557 172.247 70.7557C171.514 70.7557 170.918 70.9915 170.457 71.4631C170.003 71.929 169.773 72.5852 169.767 73.4318ZM184.799 81.2472C183.549 81.2472 182.512 80.9205 181.688 80.267C180.864 79.6136 180.452 78.6392 180.452 77.3438C180.452 76.3665 180.683 75.5994 181.143 75.0426C181.603 74.4858 182.205 74.0795 182.95 73.8239C183.7 73.5625 184.506 73.392 185.37 73.3125C186.506 73.1989 187.319 73.0795 187.808 72.9545C188.296 72.8295 188.54 72.5568 188.54 72.1364V72.0852C188.54 71.5455 188.37 71.1278 188.029 70.8324C187.694 70.5369 187.217 70.3892 186.597 70.3892C185.944 70.3892 185.424 70.5312 185.038 70.8153C184.651 71.0994 184.396 71.4602 184.271 71.8977L180.913 71.625C181.163 70.4318 181.782 69.4858 182.771 68.7869C183.765 68.0881 185.046 67.7386 186.614 67.7386C187.586 67.7386 188.495 67.892 189.342 68.1989C190.188 68.5057 190.87 68.9858 191.387 69.6392C191.91 70.2869 192.171 71.1307 192.171 72.1705V81H188.728V79.1847H188.626C188.308 79.7926 187.83 80.2898 187.194 80.6761C186.563 81.0568 185.765 81.2472 184.799 81.2472ZM185.839 78.7415C186.634 78.7415 187.288 78.5114 187.799 78.0511C188.31 77.5852 188.566 77.0085 188.566 76.321V74.9318C188.424 75.0284 188.202 75.1136 187.901 75.1875C187.606 75.2614 187.288 75.3267 186.947 75.3835C186.612 75.4347 186.31 75.4801 186.043 75.5199C185.407 75.6108 184.893 75.7898 184.501 76.0568C184.114 76.3239 183.921 76.7131 183.921 77.2244C183.921 77.7244 184.1 78.1023 184.458 78.358C184.822 78.6136 185.282 78.7415 185.839 78.7415ZM198.619 73.4318V81H194.988V67.9091H198.448V70.2188H198.602C198.897 69.4574 199.383 68.8551 200.059 68.4119C200.741 67.9631 201.567 67.7386 202.539 67.7386C203.903 67.7386 204.996 68.179 205.82 69.0597C206.644 69.9347 207.056 71.1364 207.056 72.6648V81H203.425V73.3125C203.431 72.5114 203.227 71.8864 202.812 71.4375C202.397 70.983 201.826 70.7557 201.099 70.7557C200.366 70.7557 199.769 70.9915 199.309 71.4631C198.854 71.929 198.624 72.5852 198.619 73.4318Z" fill="black"/>
</svg>
