<svg width="992" height="45" viewBox="0 0 992 45" fill="none" xmlns="http://www.w3.org/2000/svg">
<path d="M2.27557 36H7.81108V26.7188H11.8509L16.8111 36H22.9219L17.3608 25.8239C20.3395 24.5455 21.9886 21.9503 21.9886 18.3707C21.9886 13.1676 18.5497 9.81818 12.6051 9.81818H2.27557V36ZM7.81108 22.2699V14.3438H11.544C14.7401 14.3438 16.2869 15.7628 16.2869 18.3707C16.2869 20.9659 14.7401 22.2699 11.5696 22.2699H7.81108ZM34.4308 36.3835C39.2887 36.3835 42.5614 34.0185 43.3285 30.375L38.2915 30.0426C37.7418 31.5384 36.3356 32.3182 34.5202 32.3182C31.7972 32.3182 30.0714 30.5156 30.0714 27.5881V27.5753H43.4435V26.0795C43.4435 19.4062 39.4038 16.108 34.2134 16.108C28.435 16.108 24.6893 20.2116 24.6893 26.2713C24.6893 32.4972 28.3839 36.3835 34.4308 36.3835ZM30.0714 24.2003C30.1864 21.9631 31.8867 20.1733 34.3029 20.1733C36.668 20.1733 38.3043 21.8608 38.3171 24.2003H30.0714ZM46.9975 36H52.4435V29.7614L53.9137 28.0866L59.2702 36H65.6495L57.9918 24.8651L65.2788 16.3636H59.0273L52.7376 23.8168H52.4435V9.81818H46.9975V36ZM76.0142 36.3835C81.9716 36.3835 85.679 32.3054 85.679 26.2585C85.679 20.1733 81.9716 16.108 76.0142 16.108C70.0568 16.108 66.3494 20.1733 66.3494 26.2585C66.3494 32.3054 70.0568 36.3835 76.0142 36.3835ZM76.0398 32.1648C73.2912 32.1648 71.8849 29.6463 71.8849 26.2202C71.8849 22.794 73.2912 20.2628 76.0398 20.2628C78.7372 20.2628 80.1435 22.794 80.1435 26.2202C80.1435 29.6463 78.7372 32.1648 76.0398 32.1648ZM89.2202 36H94.6662V24.8906C94.6662 22.4744 96.4304 20.8125 98.8338 20.8125C99.5881 20.8125 100.624 20.9403 101.135 21.1065V16.2741C100.649 16.1591 99.9716 16.0824 99.4219 16.0824C97.223 16.0824 95.4205 17.3608 94.7045 19.7898H94.5V16.3636H89.2202V36ZM191.18 33.2578C190.547 33.2578 189.902 33.2578 189.246 33.2578C188.59 33.2578 187.934 33.2578 187.277 33.2578C187.113 33.2578 186.996 33.2344 186.926 33.1875C186.879 33.1172 186.855 32.9883 186.855 32.8008C186.855 30.9492 186.855 29.0859 186.855 27.2109C186.855 25.3359 186.855 23.4609 186.855 21.5859C186.855 19.7109 186.855 17.8477 186.855 15.9961C186.855 14.1211 186.855 12.2461 186.855 10.3711C186.855 10.207 186.879 10.0898 186.926 10.0195C186.973 9.94922 187.09 9.91406 187.277 9.91406C188.098 9.91406 188.906 9.91406 189.703 9.91406C190.523 9.91406 191.332 9.91406 192.129 9.91406C192.293 9.91406 192.41 9.94922 192.48 10.0195C192.551 10.0664 192.598 10.1719 192.621 10.3359C192.949 11.6953 193.277 13.0547 193.605 14.4141C193.934 15.75 194.262 17.0977 194.59 18.457C194.918 19.8164 195.246 21.1758 195.574 22.5352C195.902 23.8711 196.23 25.2188 196.559 26.5781C196.582 26.6484 196.605 26.7188 196.629 26.7891C196.652 26.8594 196.688 26.9297 196.734 27C196.852 26.6484 196.957 26.2969 197.051 25.9453C197.145 25.5938 197.227 25.2305 197.297 24.8555C197.695 23.2383 198.082 21.6211 198.457 20.0039C198.855 18.3867 199.266 16.7695 199.688 15.1523C199.898 14.332 200.086 13.5234 200.25 12.7266C200.438 11.9297 200.637 11.1328 200.848 10.3359C200.895 10.1953 200.941 10.1016 200.988 10.0547C201.059 9.98438 201.152 9.94922 201.27 9.94922C202.113 9.94922 202.957 9.94922 203.801 9.94922C204.645 9.94922 205.488 9.94922 206.332 9.94922C206.566 9.94922 206.684 10.0195 206.684 10.1602C206.707 10.2773 206.719 10.4062 206.719 10.5469C206.719 12.0938 206.719 13.6406 206.719 15.1875C206.719 16.7344 206.719 18.2812 206.719 19.8281C206.719 21.375 206.719 22.9336 206.719 24.5039C206.719 26.0508 206.719 27.5977 206.719 29.1445C206.719 29.7539 206.719 30.3633 206.719 30.9727C206.719 31.582 206.719 32.2031 206.719 32.8359C206.719 33 206.684 33.1172 206.613 33.1875C206.566 33.2344 206.461 33.2578 206.297 33.2578C205.641 33.2578 204.984 33.2578 204.328 33.2578C203.672 33.2578 203.016 33.2578 202.359 33.2578C202.336 33.1875 202.312 33.1055 202.289 33.0117C202.289 32.918 202.301 32.8242 202.324 32.7305C202.324 31.6289 202.324 30.5156 202.324 29.3906C202.324 28.2891 202.324 27.1875 202.324 26.0859C202.324 24.9844 202.324 23.8945 202.324 22.8164C202.324 21.7148 202.324 20.6133 202.324 19.5117C202.324 19.4414 202.336 19.3594 202.359 19.2656C202.383 19.1484 202.324 19.0664 202.184 19.0195C201.949 19.8867 201.703 20.7539 201.445 21.6211C201.211 22.4648 200.977 23.3086 200.742 24.1523C200.344 25.6289 199.934 27.1055 199.512 28.582C199.113 30.0586 198.715 31.5469 198.316 33.0469C198.293 33.1406 198.258 33.2109 198.211 33.2578C198.164 33.2812 198.094 33.293 198 33.293C197.602 33.293 197.191 33.293 196.77 33.293C196.371 33.293 195.973 33.293 195.574 33.293C195.34 33.293 195.211 33.2109 195.188 33.0469C195.164 32.8828 195.129 32.7422 195.082 32.625C194.848 31.8047 194.613 30.9727 194.379 30.1289C194.145 29.2852 193.922 28.4414 193.711 27.5977C193.477 26.8008 193.254 26.0039 193.043 25.207C192.832 24.4102 192.621 23.6133 192.41 22.8164C192.246 22.207 192.07 21.5977 191.883 20.9883C191.719 20.3789 191.555 19.7578 191.391 19.125C191.25 19.1953 191.191 19.2891 191.215 19.4062C191.238 19.5 191.25 19.5938 191.25 19.6875C191.25 20.7891 191.25 21.8789 191.25 22.957C191.25 24.0352 191.25 25.125 191.25 26.2266C191.25 27.3047 191.25 28.3945 191.25 29.4961C191.25 30.5742 191.25 31.6523 191.25 32.7305C191.25 32.8242 191.25 32.918 191.25 33.0117C191.25 33.082 191.227 33.1641 191.18 33.2578ZM267.539 16.5234C267.539 15.8203 267.422 15.1758 267.188 14.5898C266.977 14.0039 266.531 13.5469 265.852 13.2188C264.961 12.8203 264.094 12.8438 263.25 13.2891C262.43 13.7109 262.02 14.4727 262.02 15.5742C261.973 15.668 261.949 15.7734 261.949 15.8906C261.949 15.9844 261.973 16.0781 262.02 16.1719C261.996 16.6641 262.102 17.0742 262.336 17.4023C262.594 17.707 262.898 17.9883 263.25 18.2461C263.812 18.6211 264.387 18.9609 264.973 19.2656C265.582 19.5469 266.203 19.8047 266.836 20.0391C267.656 20.3906 268.43 20.8125 269.156 21.3047C269.906 21.7734 270.539 22.3945 271.055 23.168C271.336 23.6133 271.547 24.0938 271.688 24.6094C271.852 25.125 271.957 25.6406 272.004 26.1562C272.027 26.3672 272.039 26.5781 272.039 26.7891C272.039 27 272.027 27.2109 272.004 27.4219C271.863 29.0859 271.277 30.3867 270.246 31.3242C269.238 32.2383 268.008 32.8125 266.555 33.0469C266.367 33.0938 266.168 33.1289 265.957 33.1523C265.77 33.1523 265.57 33.1641 265.359 33.1875C265.195 33.2109 265.031 33.2227 264.867 33.2227C264.703 33.2227 264.527 33.2109 264.34 33.1875C263.566 33.1641 262.805 33.0352 262.055 32.8008C261.305 32.5664 260.602 32.2383 259.945 31.8164C259.594 31.582 259.277 31.3242 258.996 31.043C258.715 30.7617 258.457 30.457 258.223 30.1289C258.012 29.8008 257.824 29.4492 257.66 29.0742C257.52 28.6992 257.414 28.3125 257.344 27.9141C257.297 27.7031 257.262 27.5039 257.238 27.3164C257.238 27.1055 257.227 26.8945 257.203 26.6836C257.18 26.5195 257.168 26.3672 257.168 26.2266C257.168 26.0625 257.18 25.9102 257.203 25.7695C257.484 25.6992 257.754 25.6641 258.012 25.6641C258.27 25.6406 258.539 25.6523 258.82 25.6992C259.172 25.6992 259.523 25.6992 259.875 25.6992C260.227 25.6992 260.59 25.6992 260.965 25.6992C261.176 25.6992 261.316 25.7344 261.387 25.8047C261.457 25.8516 261.492 25.9922 261.492 26.2266C261.492 26.4844 261.504 26.7422 261.527 27C261.574 27.2344 261.633 27.4688 261.703 27.7031C261.797 27.9375 261.902 28.1602 262.02 28.3711C262.16 28.582 262.312 28.7812 262.477 28.9688C262.898 29.4141 263.602 29.6719 264.586 29.7422C265.594 29.8125 266.379 29.5195 266.941 28.8633C267.105 28.6523 267.234 28.4297 267.328 28.1953C267.445 27.9375 267.527 27.668 267.574 27.3867C267.621 27.1289 267.633 26.8594 267.609 26.5781C267.586 26.2969 267.527 26.0273 267.434 25.7695C267.293 25.2305 267.035 24.8086 266.66 24.5039C266.285 24.1758 265.875 23.8945 265.43 23.6602C264.938 23.3789 264.41 23.1445 263.848 22.957C263.309 22.7695 262.781 22.5469 262.266 22.2891C261.727 22.0312 261.211 21.75 260.719 21.4453C260.227 21.1172 259.746 20.7656 259.277 20.3906C258.855 20.0156 258.504 19.582 258.223 19.0898C257.941 18.5742 257.754 18.0352 257.66 17.4727C257.543 16.8398 257.496 16.2188 257.52 15.6094C257.543 14.9766 257.648 14.3555 257.836 13.7461C258.023 13.1367 258.305 12.5859 258.68 12.0938C259.055 11.6016 259.5 11.1797 260.016 10.8281C261.258 9.91406 262.793 9.46875 264.621 9.49219C266.473 9.49219 268.008 9.9375 269.227 10.8281C269.602 11.0859 269.941 11.3906 270.246 11.7422C270.574 12.0938 270.855 12.4687 271.09 12.8672C271.301 13.2891 271.465 13.7344 271.582 14.2031C271.723 14.6484 271.805 15.1055 271.828 15.5742C271.828 15.7148 271.84 15.8555 271.863 15.9961C271.887 16.1367 271.898 16.2891 271.898 16.4531C271.898 16.5234 271.863 16.5703 271.793 16.5938C271.723 16.6172 271.652 16.6289 271.582 16.6289H267.715C267.691 16.6289 267.668 16.6289 267.645 16.6289C267.645 16.6289 267.633 16.6289 267.609 16.6289C267.586 16.6055 267.562 16.5938 267.539 16.5938C267.539 16.5703 267.539 16.5469 267.539 16.5234ZM242.227 9.91406C242.578 9.91406 242.93 9.91406 243.281 9.91406C243.656 9.91406 244.031 9.91406 244.406 9.91406C246.07 9.91406 247.734 9.91406 249.398 9.91406C251.062 9.91406 252.738 9.91406 254.426 9.91406C254.637 9.91406 254.777 9.96094 254.848 10.0547C254.918 10.125 254.953 10.2656 254.953 10.4766C254.953 10.8984 254.953 11.332 254.953 11.7773C254.953 12.1992 254.953 12.6328 254.953 13.0781C254.953 13.2422 254.918 13.3594 254.848 13.4297C254.801 13.4766 254.695 13.5 254.531 13.5C253.312 13.5 252.082 13.5 250.84 13.5C249.621 13.5 248.391 13.5 247.148 13.5C246.938 13.5 246.797 13.5352 246.727 13.6055C246.656 13.6758 246.621 13.8281 246.621 14.0625C246.621 14.8828 246.621 15.7148 246.621 16.5586C246.621 17.3789 246.621 18.1992 246.621 19.0195C246.621 19.1836 246.645 19.3008 246.691 19.3711C246.762 19.418 246.879 19.4414 247.043 19.4414C248.051 19.4414 249.059 19.4414 250.066 19.4414C251.098 19.4414 252.117 19.4414 253.125 19.4414C253.312 19.4414 253.441 19.4766 253.512 19.5469C253.582 19.6172 253.617 19.7578 253.617 19.9688C253.594 20.3672 253.582 20.7891 253.582 21.2344C253.582 21.6562 253.594 22.0781 253.617 22.5C253.617 22.7109 253.582 22.8516 253.512 22.9219C253.441 22.9922 253.289 23.0273 253.055 23.0273C252.07 23.0273 251.074 23.0273 250.066 23.0273C249.082 23.0273 248.098 23.0273 247.113 23.0273C246.926 23.0273 246.785 23.0625 246.691 23.1328C246.621 23.1797 246.586 23.3086 246.586 23.5195C246.586 24.4805 246.586 25.4531 246.586 26.4375C246.586 27.3984 246.586 28.3594 246.586 29.3203C246.586 29.4375 246.586 29.543 246.586 29.6367C246.609 29.7305 246.703 29.7773 246.867 29.7773C248.203 29.7773 249.539 29.7773 250.875 29.7773C252.211 29.7539 253.547 29.7422 254.883 29.7422C254.883 29.7422 254.895 29.7539 254.918 29.7773C254.941 29.7773 254.953 29.7773 254.953 29.7773C254.977 30.3633 254.977 30.9492 254.953 31.5352C254.953 32.1211 254.941 32.707 254.918 33.293H242.156C242.133 33.2227 242.109 33.1406 242.086 33.0469C242.086 32.9531 242.098 32.8711 242.121 32.8008C242.121 30.9258 242.121 29.0625 242.121 27.2109C242.121 25.3594 242.121 23.5078 242.121 21.6562C242.121 19.7812 242.121 17.918 242.121 16.0664C242.121 14.2148 242.121 12.3516 242.121 10.4766C242.121 10.3828 242.109 10.2891 242.086 10.1953C242.062 10.0781 242.109 9.98438 242.227 9.91406ZM161.543 25.6992C162.152 25.6992 162.762 25.6992 163.371 25.6992C164.004 25.6992 164.625 25.6992 165.234 25.6992C165.445 25.6992 165.586 25.7344 165.656 25.8047C165.75 25.875 165.785 26.0156 165.762 26.2266C165.715 27.0234 165.609 27.7969 165.445 28.5469C165.305 29.2969 165 30 164.531 30.6562C164.016 31.3594 163.395 31.8984 162.668 32.2734C161.965 32.6484 161.203 32.918 160.383 33.082C160.172 33.1055 159.949 33.1289 159.715 33.1523C159.504 33.1758 159.281 33.1992 159.047 33.2227C158.883 33.2461 158.707 33.2578 158.52 33.2578C158.332 33.2578 158.145 33.2461 157.957 33.2227C157.441 33.1992 156.914 33.1406 156.375 33.0469C155.859 32.9297 155.355 32.7656 154.863 32.5547C154.418 32.3672 153.984 32.1328 153.562 31.8516C153.164 31.5469 152.801 31.207 152.473 30.832C152.145 30.457 151.863 30.0586 151.629 29.6367C151.395 29.1914 151.207 28.7344 151.066 28.2656C150.926 27.8203 150.809 27.375 150.715 26.9297C150.645 26.4844 150.598 26.0273 150.574 25.5586C150.574 24.1523 150.574 22.7461 150.574 21.3398C150.574 19.9336 150.586 18.5273 150.609 17.1211C150.609 16.3008 150.715 15.5039 150.926 14.7305C151.16 13.957 151.5 13.2305 151.945 12.5508C152.227 12.1289 152.543 11.7422 152.895 11.3906C153.246 11.0391 153.645 10.7344 154.09 10.4766C154.512 10.2187 154.957 10.0195 155.426 9.87891C155.918 9.71484 156.41 9.62109 156.902 9.59766C157.793 9.45703 158.684 9.44531 159.574 9.5625C160.465 9.67969 161.32 9.90234 162.141 10.2305C162.586 10.418 162.996 10.6523 163.371 10.9336C163.746 11.2148 164.086 11.543 164.391 11.918C164.695 12.293 164.941 12.7031 165.129 13.1484C165.316 13.5703 165.457 14.0156 165.551 14.4844C165.621 14.8359 165.668 15.1875 165.691 15.5391C165.738 15.8906 165.762 16.2539 165.762 16.6289C165.762 16.7695 165.727 16.875 165.656 16.9453C165.609 16.9922 165.516 17.0156 165.375 17.0156C164.812 17.0156 164.273 17.0156 163.758 17.0156C163.242 17.0156 162.715 17.0156 162.176 17.0156C161.824 17.0156 161.602 16.9688 161.508 16.875C161.438 16.7812 161.402 16.5469 161.402 16.1719C161.426 15.9375 161.414 15.7148 161.367 15.5039C161.344 15.293 161.297 15.082 161.227 14.8711C161.133 14.6602 161.027 14.4609 160.91 14.2734C160.793 14.0859 160.652 13.9219 160.488 13.7812C160.301 13.6172 160.102 13.4883 159.891 13.3945C159.68 13.2773 159.457 13.1836 159.223 13.1133C158.965 13.0664 158.719 13.043 158.484 13.043C158.25 13.0195 158.016 13.0312 157.781 13.0781C156.891 13.2422 156.234 13.5703 155.812 14.0625C155.414 14.5313 155.156 15.2227 155.039 16.1367C154.969 16.7461 154.922 17.3555 154.898 17.9648C154.898 18.5742 154.91 19.1953 154.934 19.8281C154.934 20.8125 154.934 21.8086 154.934 22.8164C154.934 23.8242 154.945 24.8203 154.969 25.8047C154.969 26.25 155.027 26.6953 155.145 27.1406C155.285 27.5625 155.473 27.9609 155.707 28.3359C155.824 28.5703 155.977 28.7695 156.164 28.9336C156.352 29.0977 156.551 29.2383 156.762 29.3555C156.996 29.4727 157.23 29.5547 157.465 29.6016C157.723 29.6484 157.969 29.6719 158.203 29.6719C158.297 29.6953 158.391 29.707 158.484 29.707C158.602 29.707 158.707 29.6953 158.801 29.6719C159.105 29.6719 159.398 29.625 159.68 29.5312C159.984 29.4375 160.254 29.2852 160.488 29.0742C160.723 28.8633 160.91 28.6172 161.051 28.3359C161.191 28.0547 161.273 27.7617 161.297 27.457C161.32 27.3164 161.355 27.1758 161.402 27.0352C161.473 26.8711 161.473 26.707 161.402 26.543C161.473 26.4023 161.484 26.2617 161.438 26.1211C161.391 25.957 161.426 25.8164 161.543 25.6992ZM238.113 23.5195C236.941 23.5195 235.758 23.5195 234.562 23.5195C233.367 23.4961 232.172 23.5078 230.977 23.5547C230.953 23.6484 230.93 23.7422 230.906 23.8359C230.906 23.9297 230.918 24.0234 230.941 24.1172C230.941 25.5469 230.941 26.9766 230.941 28.4062C230.941 29.8125 230.941 31.2305 230.941 32.6602C230.965 32.7539 230.965 32.8477 230.941 32.9414C230.941 33.0352 230.93 33.1289 230.906 33.2227C230.227 33.2227 229.547 33.2227 228.867 33.2227C228.188 33.2227 227.52 33.2227 226.863 33.2227C226.699 33.2227 226.582 33.1992 226.512 33.1523C226.465 33.1055 226.441 32.9883 226.441 32.8008C226.441 30.9258 226.441 29.0508 226.441 27.1758C226.441 25.3008 226.441 23.4258 226.441 21.5508C226.441 19.6758 226.441 17.8125 226.441 15.9609C226.441 14.0859 226.441 12.2109 226.441 10.3359C226.441 10.1719 226.465 10.0664 226.512 10.0195C226.559 9.94922 226.664 9.91406 226.828 9.91406C227.859 9.91406 228.891 9.91406 229.922 9.91406C230.93 9.91406 231.949 9.91406 232.98 9.91406C234.012 9.91406 235.031 9.91406 236.039 9.91406C237.07 9.91406 238.102 9.91406 239.133 9.91406C239.297 9.91406 239.414 9.9375 239.484 9.98438C239.555 10.0313 239.578 10.1484 239.555 10.3359C239.555 10.7812 239.555 11.2266 239.555 11.6719C239.555 12.1172 239.555 12.5742 239.555 13.043C239.555 13.207 239.52 13.3242 239.449 13.3945C239.402 13.4414 239.297 13.4648 239.133 13.4648C237.867 13.4648 236.602 13.4648 235.336 13.4648C234.07 13.4648 232.805 13.4648 231.539 13.4648C231.469 13.4648 231.375 13.4648 231.258 13.4648C231.164 13.4648 231.082 13.4648 231.012 13.4648C230.988 13.5117 230.965 13.5586 230.941 13.6055C230.941 13.6289 230.941 13.6641 230.941 13.7109V19.6875C230.941 19.7109 230.941 19.7461 230.941 19.793C230.965 19.8398 230.988 19.8867 231.012 19.9336L235.23 19.9688C235.723 19.9688 236.203 19.9688 236.672 19.9688C237.164 19.9688 237.656 19.9688 238.148 19.9688C238.195 20.25 238.219 20.5312 238.219 20.8125C238.242 21.0938 238.23 21.3867 238.184 21.6914C238.207 21.9961 238.207 22.3008 238.184 22.6055C238.184 22.9102 238.16 23.2148 238.113 23.5195ZM279.387 13.5352C278.637 13.5352 277.875 13.5352 277.102 13.5352C276.328 13.5117 275.555 13.5117 274.781 13.5352C274.617 13.5352 274.5 13.5117 274.43 13.4648C274.359 13.3945 274.324 13.2656 274.324 13.0781C274.324 12.6094 274.324 12.1523 274.324 11.707C274.324 11.2617 274.324 10.8164 274.324 10.3711C274.324 10.207 274.348 10.1016 274.395 10.0547C274.465 9.98438 274.582 9.94922 274.746 9.94922C275.895 9.94922 277.055 9.94922 278.227 9.94922C279.398 9.94922 280.559 9.94922 281.707 9.94922C282.879 9.94922 284.051 9.94922 285.223 9.94922C286.395 9.94922 287.555 9.94922 288.703 9.94922C288.891 9.94922 289.008 9.98438 289.055 10.0547C289.102 10.125 289.125 10.2422 289.125 10.4062C289.125 10.8516 289.125 11.3086 289.125 11.7773C289.125 12.2227 289.125 12.668 289.125 13.1133C289.125 13.2773 289.102 13.3945 289.055 13.4648C289.008 13.5117 288.902 13.5352 288.738 13.5352C288.035 13.5352 287.32 13.5352 286.594 13.5352C285.891 13.5352 285.188 13.5352 284.484 13.5352C284.203 13.5352 284.027 13.582 283.957 13.6758C283.887 13.7695 283.852 13.9453 283.852 14.2031C283.852 15.75 283.852 17.2852 283.852 18.8086C283.852 20.3555 283.852 21.9023 283.852 23.4492C283.852 24.9727 283.852 26.5078 283.852 28.0547C283.852 29.6016 283.852 31.1484 283.852 32.6953C283.852 32.9531 283.805 33.1289 283.711 33.2227C283.641 33.293 283.488 33.3281 283.254 33.3281C282.621 33.3047 281.988 33.3047 281.355 33.3281C280.746 33.3281 280.125 33.3281 279.492 33.3281C279.445 33.2344 279.422 33.1406 279.422 33.0469C279.422 32.9531 279.422 32.8594 279.422 32.7656C279.422 31.2188 279.422 29.6719 279.422 28.125C279.422 26.5781 279.422 25.0312 279.422 23.4844C279.422 21.9141 279.422 20.3555 279.422 18.8086C279.422 17.2617 279.422 15.7148 279.422 14.168C279.469 14.0742 279.48 13.9688 279.457 13.8516C279.457 13.7344 279.434 13.6289 279.387 13.5352ZM184.254 16.9102C184.184 15.9961 183.949 15.1289 183.551 14.3086C183.176 13.4648 182.672 12.7148 182.039 12.0586C181.383 11.4258 180.645 10.9219 179.824 10.5469C179.004 10.1719 178.137 9.96094 177.223 9.91406C175.723 9.79687 174.316 9.9375 173.004 10.3359C171.691 10.7109 170.543 11.5547 169.559 12.8672C169.09 13.5 168.727 14.2031 168.469 14.9766C168.211 15.7266 168.07 16.5 168.047 17.2969C168 18.6094 167.988 19.8633 168.012 21.0586C168.035 22.2305 168.035 23.4844 168.012 24.8203C168.012 26.2031 168.281 27.5391 168.82 28.8281C169.359 30.0938 170.227 31.125 171.422 31.9219C172.172 32.3906 173.016 32.7305 173.953 32.9414C174.891 33.1523 175.84 33.2227 176.801 33.1523C177.785 33.082 178.734 32.8711 179.648 32.5195C180.562 32.1445 181.359 31.6289 182.039 30.9727C182.414 30.5977 182.742 30.1875 183.023 29.7422C183.305 29.2969 183.551 28.8281 183.762 28.3359C183.949 27.8438 184.09 27.3398 184.184 26.8242C184.301 26.3086 184.348 25.7812 184.324 25.2422C184.395 23.8594 184.418 22.4766 184.395 21.0938C184.395 19.6875 184.348 18.2812 184.254 16.875V16.9102ZM178.875 26.332C177.867 26.8945 177.023 26.7188 176.344 25.8047C175.664 24.8672 175.746 24.1992 176.59 23.8008C176.73 23.7305 176.859 23.6953 176.977 23.6953C177.117 23.6953 177.246 23.7188 177.363 23.7656C177.504 23.7891 177.621 23.8477 177.715 23.9414C177.809 24.0352 177.891 24.1406 177.961 24.2578C178.055 24.4688 178.184 24.6562 178.348 24.8203C178.512 24.9844 178.699 25.1133 178.91 25.207C178.957 25.2539 178.992 25.3008 179.016 25.3477C179.062 25.3711 179.109 25.4062 179.156 25.4531C179.18 25.5 179.191 25.5586 179.191 25.6289C179.215 25.6758 179.227 25.7344 179.227 25.8047C179.227 25.8516 179.215 25.9102 179.191 25.9805C179.168 26.0273 179.145 26.0742 179.121 26.1211C179.098 26.168 179.062 26.2148 179.016 26.2617C178.969 26.2852 178.922 26.3086 178.875 26.332ZM181.266 24.2227C181.219 24.3398 181.148 24.4453 181.055 24.5391C180.961 24.6328 180.855 24.7148 180.738 24.7852C180.645 24.8555 180.527 24.9141 180.387 24.9609C180.27 24.9844 180.141 24.9844 180 24.9609C179.883 24.9609 179.754 24.9375 179.613 24.8906C179.496 24.8438 179.391 24.7852 179.297 24.7148C179.18 24.6445 179.074 24.5625 178.98 24.4688C178.91 24.3516 178.852 24.2227 178.805 24.082C178.5 23.3555 178.031 22.957 177.398 22.8867C176.789 22.793 176.145 22.9336 175.465 23.3086C173.895 24.1758 172.523 24.0117 171.352 22.8164C170.18 21.5977 170.004 20.1797 170.824 18.5625C171.527 17.2031 172.5 16.2773 173.742 15.7852C174.961 15.293 176.18 15.1875 177.398 15.4688C178.641 15.75 179.719 16.3945 180.633 17.4023C181.57 18.4336 182.062 19.793 182.109 21.4805C182.109 21.9727 182.027 22.4531 181.863 22.9219C181.723 23.3672 181.523 23.8008 181.266 24.2227ZM224.262 16.7695C224.238 16.6055 224.215 16.4414 224.191 16.2773C224.168 16.1133 224.145 15.9492 224.121 15.7852C224.027 15.0586 223.805 14.3672 223.453 13.7109C223.125 13.0312 222.703 12.4336 222.188 11.918C221.859 11.5898 221.496 11.3086 221.098 11.0742C220.699 10.8164 220.289 10.6055 219.867 10.4414C219.445 10.2773 219 10.1602 218.531 10.0898C218.086 9.99609 217.629 9.94922 217.16 9.94922C215.918 9.94922 214.664 9.94922 213.398 9.94922C212.156 9.94922 210.914 9.94922 209.672 9.94922C209.484 9.94922 209.367 9.98438 209.32 10.0547C209.273 10.125 209.25 10.2422 209.25 10.4062C209.25 12.2813 209.25 14.1445 209.25 15.9961C209.25 17.8711 209.25 19.7461 209.25 21.6211C209.25 23.4961 209.25 25.3711 209.25 27.2461C209.25 29.0977 209.25 30.9609 209.25 32.8359C209.25 33.0234 209.273 33.1523 209.32 33.2227C209.391 33.2695 209.508 33.293 209.672 33.293C210.328 33.293 210.984 33.293 211.641 33.293C212.32 33.293 212.988 33.293 213.645 33.293C213.668 33.1992 213.68 33.1055 213.68 33.0117C213.703 32.918 213.703 32.8242 213.68 32.7305V25.4531C213.68 25.1484 213.703 24.9727 213.75 24.9258C213.797 24.8789 213.961 24.8555 214.242 24.8555C214.781 24.8555 215.309 24.8555 215.824 24.8555C216.363 24.8555 216.891 24.8555 217.406 24.8555C217.922 24.832 218.426 24.7617 218.918 24.6445C219.434 24.5273 219.914 24.3633 220.359 24.1523C221.602 23.5195 222.527 22.6875 223.137 21.6562C223.746 20.625 224.109 19.4297 224.227 18.0703C224.25 17.8594 224.262 17.6484 224.262 17.4375C224.262 17.2266 224.25 17.0156 224.227 16.8047L224.262 16.7695ZM219.516 19.3359C219.445 19.6172 219.316 19.8867 219.129 20.1445C218.965 20.3789 218.754 20.5898 218.496 20.7773C218.262 20.9414 217.992 21.0703 217.688 21.1641C217.406 21.2344 217.113 21.2578 216.809 21.2344C216.387 21.2344 215.953 21.2344 215.508 21.2344C215.062 21.2344 214.617 21.2344 214.172 21.2344C213.961 21.2344 213.82 21.1992 213.75 21.1289C213.68 21.0352 213.645 20.8945 213.645 20.707C213.668 20.1445 213.668 19.582 213.645 19.0195C213.645 18.457 213.645 17.8945 213.645 17.332C213.645 16.7695 213.645 16.1953 213.645 15.6094C213.645 15.0234 213.645 14.4492 213.645 13.8867C213.645 13.7227 213.668 13.6172 213.715 13.5703C213.785 13.5 213.902 13.4648 214.066 13.4648C214.441 13.4648 214.828 13.4648 215.227 13.4648C215.625 13.4648 216.023 13.4648 216.422 13.4648C217.406 13.4648 218.156 13.6758 218.672 14.0977C219.188 14.5195 219.539 15.2344 219.727 16.2422C219.844 16.7578 219.879 17.2852 219.832 17.8242C219.809 18.3398 219.703 18.8438 219.516 19.3359ZM115.383 36.9492C115.219 36.9492 115.055 36.9375 114.891 36.9141C114.75 36.8906 114.598 36.8672 114.434 36.8438C114.176 36.7734 113.93 36.6797 113.695 36.5625C113.461 36.4453 113.25 36.3047 113.062 36.1406C112.781 35.9062 112.523 35.6602 112.289 35.4023C112.078 35.1211 111.902 34.8281 111.762 34.5234C111.645 34.2422 111.551 33.9727 111.48 33.7148C111.434 33.4336 111.422 33.1406 111.445 32.8359C111.445 32.7422 111.445 32.6602 111.445 32.5898C111.469 32.4961 111.492 32.4023 111.516 32.3086C111.539 32.2852 111.539 32.2617 111.516 32.2383C111.516 32.2148 111.516 32.1914 111.516 32.168C111.516 32.1211 111.504 32.0977 111.48 32.0977C111.48 32.0742 111.469 32.0508 111.445 32.0273C111.211 31.6758 110.977 31.3242 110.742 30.9727C110.531 30.6211 110.332 30.2578 110.145 29.8828C110.145 29.8594 110.133 29.8477 110.109 29.8477C110.109 29.8242 110.109 29.8008 110.109 29.7773C110.109 29.7539 110.109 29.7305 110.109 29.707C110.133 29.6836 110.145 29.6602 110.145 29.6367C110.262 29.4727 110.379 29.3086 110.496 29.1445C110.613 28.957 110.742 28.7812 110.883 28.6172C111 28.4766 111.117 28.3359 111.234 28.1953C111.352 28.0547 111.48 27.9141 111.621 27.7734L111.691 27.7031C111.738 27.6562 111.785 27.6328 111.832 27.6328C111.879 27.6094 111.926 27.6328 111.973 27.7031C112.23 28.1016 112.5 28.4883 112.781 28.8633C113.062 29.2148 113.344 29.5664 113.625 29.918C113.859 30.1992 114.094 30.4805 114.328 30.7617C114.586 31.043 114.832 31.3242 115.066 31.6055C115.324 31.8867 115.57 32.1562 115.805 32.4141C116.062 32.6484 116.309 32.8945 116.543 33.1523C116.895 33.4805 117.246 33.8086 117.598 34.1367C117.949 34.4414 118.301 34.7344 118.652 35.0156C118.957 35.25 119.25 35.4844 119.531 35.7188C119.836 35.9297 120.152 36.1406 120.48 36.3516C120.504 36.375 120.516 36.3984 120.516 36.4219C120.516 36.4453 120.504 36.4688 120.48 36.4922C120.176 36.8203 119.848 37.125 119.496 37.4062C119.168 37.7109 118.828 37.9805 118.477 38.2148C118.453 38.2383 118.43 38.25 118.406 38.25C118.383 38.25 118.359 38.25 118.336 38.25C118.336 38.25 118.336 38.2383 118.336 38.2148C117.984 38.0273 117.645 37.8281 117.316 37.6172C116.988 37.4062 116.672 37.1836 116.367 36.9492C116.32 36.9023 116.273 36.8672 116.227 36.8438C116.203 36.8203 116.168 36.8086 116.121 36.8086C116.074 36.7852 116.016 36.7734 115.945 36.7734C115.898 36.7734 115.852 36.7852 115.805 36.8086C115.758 36.832 115.711 36.8438 115.664 36.8438C115.617 36.8438 115.57 36.8438 115.523 36.8438C115.523 36.8906 115.512 36.9141 115.488 36.9141C115.465 36.9141 115.43 36.9258 115.383 36.9492ZM143.508 16.7344C143.227 15.1641 142.699 13.6758 141.926 12.2695C141.152 10.8398 140.18 9.58594 139.008 8.50781C137.648 7.21875 136.102 6.23438 134.367 5.55469C132.633 4.85156 130.84 4.5 128.988 4.5C128.59 4.5 128.203 4.52344 127.828 4.57031C127.453 4.59375 127.078 4.62891 126.703 4.67578C125.906 4.81641 125.121 5.01562 124.348 5.27344C123.598 5.53125 122.859 5.84766 122.133 6.22266C121.734 6.43359 121.348 6.66797 120.973 6.92578C120.598 7.16016 120.234 7.42969 119.883 7.73438C119.672 7.89844 119.461 8.07422 119.25 8.26172C119.062 8.44922 118.875 8.63672 118.688 8.82422C118.547 8.96484 118.395 9.11719 118.23 9.28125C118.09 9.42188 117.949 9.57422 117.809 9.73828C117.668 9.90234 117.551 10.043 117.457 10.1602C117.363 10.2773 117.258 10.3945 117.141 10.5117C116.93 10.793 116.73 11.0742 116.543 11.3555C116.355 11.6367 116.18 11.9297 116.016 12.2344C115.781 12.6328 115.57 13.043 115.383 13.4648C115.195 13.8633 115.02 14.2852 114.855 14.7305C114.762 14.9883 114.668 15.2578 114.574 15.5391C114.504 15.7969 114.434 16.0664 114.363 16.3477C114.316 16.6289 114.258 16.9219 114.188 17.2266C114.141 17.5078 114.094 17.8008 114.047 18.1055C114.023 18.293 114.012 18.4805 114.012 18.668C114.012 18.832 114 19.0078 113.977 19.1953C113.977 19.2422 113.965 19.2891 113.941 19.3359C113.941 19.3594 113.941 19.3828 113.941 19.4062V20.4961C113.965 20.543 113.965 20.5898 113.941 20.6367C113.941 20.6836 113.941 20.7188 113.941 20.7422C113.941 20.9766 113.953 21.2109 113.977 21.4453C114 21.6562 114.023 21.8672 114.047 22.0781C114.094 22.3359 114.129 22.582 114.152 22.8164C114.199 23.0508 114.258 23.2852 114.328 23.5195C114.328 23.5664 114.328 23.6133 114.328 23.6602C114.352 23.6836 114.352 23.7305 114.328 23.8008C114.234 23.918 114.129 24.0352 114.012 24.1523C113.918 24.2461 113.824 24.3633 113.73 24.5039C113.59 24.6914 113.449 24.8789 113.309 25.0664C113.168 25.2539 113.039 25.4531 112.922 25.6641C112.898 25.6641 112.887 25.6758 112.887 25.6992C112.887 25.7227 112.887 25.7344 112.887 25.7344C112.887 25.7578 112.887 25.7812 112.887 25.8047C112.887 25.8047 112.898 25.8164 112.922 25.8398C113.039 26.0273 113.145 26.2148 113.238 26.4023C113.355 26.5664 113.461 26.7422 113.555 26.9297C113.883 27.4453 114.211 27.9492 114.539 28.4414C114.891 28.9102 115.254 29.3672 115.629 29.8125C115.863 30.0938 116.086 30.3633 116.297 30.6211C116.531 30.8555 116.766 31.1133 117 31.3945C117.117 31.5117 117.234 31.6289 117.352 31.7461C117.469 31.8633 117.586 31.9688 117.703 32.0625C117.82 32.1797 117.949 32.3086 118.09 32.4492C118.254 32.5898 118.406 32.7305 118.547 32.8711C118.734 33.0352 118.922 33.1992 119.109 33.3633C119.32 33.5273 119.52 33.6914 119.707 33.8555C119.965 34.0664 120.223 34.2773 120.48 34.4883C120.762 34.6758 121.031 34.8633 121.289 35.0508C121.57 35.2383 121.84 35.4258 122.098 35.6133C122.379 35.7773 122.66 35.9414 122.941 36.1055C122.965 36.1289 122.988 36.1406 123.012 36.1406C123.035 36.1641 123.07 36.1758 123.117 36.1758C123.141 36.1758 123.164 36.1641 123.188 36.1406C123.211 36.1406 123.234 36.1289 123.258 36.1055C123.562 35.918 123.844 35.7188 124.102 35.5078C124.383 35.2734 124.652 35.0273 124.91 34.7695C124.934 34.7695 124.957 34.7578 124.98 34.7344C125.004 34.7109 125.027 34.7109 125.051 34.7344C125.098 34.7344 125.145 34.7461 125.191 34.7695C125.238 34.7695 125.297 34.7812 125.367 34.8047C125.625 34.875 125.883 34.9336 126.141 34.9805C126.398 35.0273 126.668 35.0625 126.949 35.0859C127.137 35.1094 127.324 35.1328 127.512 35.1562C127.723 35.1562 127.934 35.1562 128.145 35.1562C128.215 35.1562 128.273 35.1562 128.32 35.1562C128.391 35.1562 128.461 35.1562 128.531 35.1562C128.578 35.1562 128.625 35.1562 128.672 35.1562C128.742 35.1562 128.801 35.1562 128.848 35.1562C128.918 35.1562 128.977 35.1562 129.023 35.1562C129.094 35.1562 129.164 35.1562 129.234 35.1562C129.398 35.1562 129.562 35.1562 129.727 35.1562C129.891 35.1328 130.055 35.1094 130.219 35.0859C130.641 35.0391 131.051 34.9805 131.449 34.9102C131.848 34.8398 132.246 34.7461 132.645 34.6289C133.277 34.4414 133.887 34.2188 134.473 33.9609C135.082 33.7031 135.668 33.4102 136.23 33.082C136.863 32.6836 137.473 32.2383 138.059 31.7461C138.645 31.2539 139.184 30.7266 139.676 30.1641C140.52 29.2734 141.234 28.3008 141.82 27.2461C142.43 26.1914 142.898 25.0781 143.227 23.9062C143.555 22.7578 143.742 21.5742 143.789 20.3555C143.836 19.1367 143.742 17.9297 143.508 16.7344ZM137.742 28.8984C136.945 29.7422 136.043 30.457 135.035 31.043C134.027 31.6055 132.961 32.0039 131.836 32.2383C131.297 32.3789 130.758 32.4844 130.219 32.5547C129.68 32.6016 129.141 32.6133 128.602 32.5898C127.078 32.543 125.613 32.2266 124.207 31.6406C122.801 31.0547 121.547 30.2227 120.445 29.1445C119.484 28.2305 118.676 27.1875 118.02 26.0156C117.387 24.8438 116.953 23.5898 116.719 22.2539C116.508 21.293 116.414 20.332 116.438 19.3711C116.461 18.3867 116.59 17.4141 116.824 16.4531C117.082 15.5156 117.434 14.6133 117.879 13.7461C118.324 12.8789 118.875 12.0703 119.531 11.3203C120.398 10.2891 121.406 9.43359 122.555 8.75391C123.727 8.05078 124.969 7.57031 126.281 7.3125C126.75 7.21875 127.23 7.14844 127.723 7.10156C128.215 7.05469 128.695 7.04297 129.164 7.06641C130.523 7.11328 131.836 7.38281 133.102 7.875C134.391 8.34375 135.551 9.01172 136.582 9.87891C137.684 10.7461 138.609 11.7773 139.359 12.9727C140.109 14.168 140.648 15.457 140.977 16.8398C141.094 17.3555 141.176 17.8711 141.223 18.3867C141.293 18.9023 141.328 19.4297 141.328 19.9688C141.328 21.6328 141.023 23.2383 140.414 24.7852C139.805 26.332 138.914 27.7031 137.742 28.8984ZM128.707 9.5625C129.879 9.5625 131.016 9.76172 132.117 10.1602C133.242 10.5586 134.273 11.1328 135.211 11.8828C136.125 12.6094 136.887 13.4883 137.496 14.5195C138.129 15.5273 138.574 16.6172 138.832 17.7891C139.137 19.0547 139.195 20.3438 139.008 21.6562C138.844 22.9688 138.445 24.1992 137.812 25.3477C137.742 25.4883 137.66 25.6289 137.566 25.7695C137.496 25.9102 137.414 26.0391 137.32 26.1562C137.203 26.2969 137.051 26.4258 136.863 26.543C136.699 26.6602 136.523 26.7539 136.336 26.8242C136.148 26.8945 135.949 26.9414 135.738 26.9648C135.527 26.9648 135.328 26.9531 135.141 26.9297C134.93 26.8828 134.73 26.8125 134.543 26.7188C134.355 26.625 134.191 26.5078 134.051 26.3672C133.887 26.25 133.746 26.1094 133.629 25.9453C133.512 25.7578 133.418 25.5703 133.348 25.3828C133.207 24.9141 132.973 24.5039 132.645 24.1523C132.34 23.7773 131.977 23.4844 131.555 23.2734C131.25 23.1094 130.922 22.9922 130.57 22.9219C130.242 22.8281 129.902 22.793 129.551 22.8164C129.223 22.8398 128.895 22.9102 128.566 23.0273C128.238 23.1211 127.922 23.2617 127.617 23.4492C127.242 23.6836 126.844 23.8711 126.422 24.0117C126 24.1289 125.566 24.2109 125.121 24.2578C124.676 24.2812 124.23 24.2578 123.785 24.1875C123.363 24.1172 122.941 24 122.52 23.8359C122.121 23.6719 121.734 23.4609 121.359 23.2031C120.984 22.9453 120.656 22.6523 120.375 22.3242C120.07 21.9961 119.812 21.6445 119.602 21.2695C119.391 20.8711 119.215 20.4492 119.074 20.0039C118.957 19.6289 118.875 19.2422 118.828 18.8438C118.805 18.4219 118.816 18 118.863 17.5781C118.887 17.1797 118.957 16.793 119.074 16.418C119.215 16.0195 119.379 15.6328 119.566 15.2578C119.918 14.5547 120.352 13.8984 120.867 13.2891C121.383 12.6797 121.957 12.1406 122.59 11.6719C123.199 11.1797 123.867 10.7812 124.594 10.4766C125.32 10.1484 126.07 9.90234 126.844 9.73828C126.961 9.71484 127.066 9.70312 127.16 9.70312C127.277 9.67969 127.395 9.65625 127.512 9.63281C127.699 9.60938 127.887 9.59766 128.074 9.59766C128.285 9.57422 128.496 9.5625 128.707 9.5625ZM132.926 29.5664C133.113 29.5195 133.277 29.4609 133.418 29.3906C133.582 29.2969 133.723 29.1914 133.84 29.0742C133.91 29.0039 133.969 28.9219 134.016 28.8281C134.062 28.7344 134.098 28.6406 134.121 28.5469C134.145 28.4531 134.156 28.3594 134.156 28.2656C134.156 28.1719 134.145 28.0781 134.121 27.9844C134.098 27.8672 134.062 27.7734 134.016 27.7031C133.969 27.6094 133.91 27.5273 133.84 27.457C133.77 27.3867 133.688 27.3281 133.594 27.2812C133.523 27.2109 133.441 27.1641 133.348 27.1406C133.207 27.1172 133.066 27.0703 132.926 27C132.809 26.9062 132.703 26.8125 132.609 26.7188C132.516 26.6016 132.422 26.4727 132.328 26.332C132.258 26.1914 132.199 26.0391 132.152 25.875C132.059 25.6875 131.941 25.5117 131.801 25.3477C131.66 25.1836 131.496 25.043 131.309 24.9258C131.121 24.832 130.922 24.7617 130.711 24.7148C130.5 24.668 130.289 24.668 130.078 24.7148C129.914 24.7383 129.762 24.7852 129.621 24.8555C129.504 24.9023 129.375 24.9727 129.234 25.0664C129.117 25.1602 129.012 25.2656 128.918 25.3828C128.824 25.4766 128.742 25.5938 128.672 25.7344C128.602 25.875 128.543 26.0156 128.496 26.1562C128.473 26.2969 128.461 26.4375 128.461 26.5781C128.461 26.7422 128.473 26.8945 128.496 27.0352C128.52 27.1758 128.566 27.3164 128.637 27.457C128.777 27.8086 128.953 28.125 129.164 28.4062C129.398 28.6875 129.668 28.9219 129.973 29.1094C130.277 29.3203 130.605 29.4844 130.957 29.6016C131.309 29.6953 131.66 29.7305 132.012 29.707C132.176 29.707 132.328 29.6953 132.469 29.6719C132.633 29.6484 132.785 29.6133 132.926 29.5664ZM315.828 21.9631C315.342 18.3452 312.427 16.108 307.467 16.108C302.443 16.108 299.132 18.4347 299.145 22.2188C299.132 25.1591 300.985 27.0639 304.821 27.831L308.221 28.5085C309.934 28.8537 310.714 29.4801 310.74 30.4645C310.714 31.6278 309.449 32.4588 307.544 32.4588C305.6 32.4588 304.309 31.6278 303.977 30.0298L298.62 30.3111C299.132 34.0696 302.328 36.3835 307.531 36.3835C312.619 36.3835 316.262 33.7884 316.275 29.9148C316.262 27.0767 314.409 25.3764 310.599 24.5966L307.045 23.8807C305.217 23.4844 304.539 22.858 304.552 21.9119C304.539 20.7358 305.869 19.9688 307.556 19.9688C309.449 19.9688 310.574 21.0043 310.842 22.2699L315.828 21.9631ZM328.653 36.3835C333.511 36.3835 336.784 34.0185 337.551 30.375L332.514 30.0426C331.964 31.5384 330.558 32.3182 328.743 32.3182C326.02 32.3182 324.294 30.5156 324.294 27.5881V27.5753H337.666V26.0795C337.666 19.4062 333.626 16.108 328.436 16.108C322.658 16.108 318.912 20.2116 318.912 26.2713C318.912 32.4972 322.607 36.3835 328.653 36.3835ZM324.294 24.2003C324.409 21.9631 326.109 20.1733 328.526 20.1733C330.891 20.1733 332.527 21.8608 332.54 24.2003H324.294ZM346.666 9.81818H341.22V36H346.666V9.81818ZM356.628 36.3707C359.53 36.3707 361.409 35.1051 362.368 33.277H362.522V36H367.686V22.7557C367.686 18.0767 363.723 16.108 359.351 16.108C354.647 16.108 351.553 18.358 350.799 21.9375L355.836 22.3466C356.206 21.0426 357.37 20.0838 359.326 20.0838C361.179 20.0838 362.24 21.017 362.24 22.6278V22.7045C362.24 23.9702 360.898 24.1364 357.485 24.4688C353.598 24.8267 350.108 26.1307 350.108 30.5156C350.108 34.402 352.882 36.3707 356.628 36.3707ZM358.188 32.6122C356.513 32.6122 355.311 31.8324 355.311 30.3366C355.311 28.8026 356.577 28.0483 358.495 27.7798C359.684 27.6136 361.627 27.3324 362.279 26.8977V28.9815C362.279 31.0398 360.578 32.6122 358.188 32.6122ZM371.912 36H377.358V24.2131C377.358 22.0398 378.738 20.5952 380.554 20.5952C382.343 20.5952 383.545 21.8224 383.545 23.7528V36H388.825V24.0085C388.825 21.9759 389.988 20.5952 391.97 20.5952C393.708 20.5952 395.012 21.6818 395.012 23.8679V36H400.446V22.794C400.446 18.5369 397.914 16.108 394.258 16.108C391.382 16.108 389.145 17.5781 388.339 19.8281H388.135C387.508 17.5526 385.501 16.108 382.804 16.108C380.157 16.108 378.15 17.5142 377.332 19.8281H377.102V16.3636H371.912V36ZM410.347 36.3707C413.249 36.3707 415.128 35.1051 416.087 33.277H416.24V36H421.405V22.7557C421.405 18.0767 417.442 16.108 413.07 16.108C408.365 16.108 405.272 18.358 404.517 21.9375L409.554 22.3466C409.925 21.0426 411.088 20.0838 413.044 20.0838C414.898 20.0838 415.959 21.017 415.959 22.6278V22.7045C415.959 23.9702 414.617 24.1364 411.203 24.4688C407.317 24.8267 403.827 26.1307 403.827 30.5156C403.827 34.402 406.601 36.3707 410.347 36.3707ZM411.907 32.6122C410.232 32.6122 409.03 31.8324 409.03 30.3366C409.03 28.8026 410.296 28.0483 412.213 27.7798C413.402 27.6136 415.346 27.3324 415.998 26.8977V28.9815C415.998 31.0398 414.297 32.6122 411.907 32.6122ZM445.302 9.81818H440.099L433.617 13.9219V18.831L439.613 15.0724H439.766V36H445.302V9.81818ZM451.525 36H470.189V31.4744H459.195V31.2955L463.017 27.5497C468.4 22.6406 469.844 20.1861 469.844 17.2074C469.844 12.669 466.137 9.46023 460.525 9.46023C455.027 9.46023 451.256 12.7457 451.269 17.8849H456.523C456.51 15.3793 458.096 13.8452 460.486 13.8452C462.787 13.8452 464.5 15.277 464.5 17.5781C464.5 19.6619 463.222 21.0938 460.844 23.3821L451.525 32.0114V36ZM493.028 16.3636H489.333V11.6591H483.887V16.3636H481.203V20.4545H483.887V30.6818C483.862 34.5298 486.483 36.4347 490.433 36.2685C491.839 36.2173 492.836 35.9361 493.386 35.7571L492.529 31.7045C492.261 31.7557 491.686 31.8835 491.174 31.8835C490.088 31.8835 489.333 31.4744 489.333 29.9659V20.4545H493.028V16.3636ZM502.175 36.3707C505.077 36.3707 506.956 35.1051 507.915 33.277H508.069V36H513.233V22.7557C513.233 18.0767 509.27 16.108 504.898 16.108C500.194 16.108 497.1 18.358 496.346 21.9375L501.382 22.3466C501.753 21.0426 502.917 20.0838 504.873 20.0838C506.726 20.0838 507.787 21.017 507.787 22.6278V22.7045C507.787 23.9702 506.445 24.1364 503.032 24.4688C499.145 24.8267 495.655 26.1307 495.655 30.5156C495.655 34.402 498.429 36.3707 502.175 36.3707ZM503.735 32.6122C502.06 32.6122 500.858 31.8324 500.858 30.3366C500.858 28.8026 502.124 28.0483 504.042 27.7798C505.23 27.6136 507.174 27.3324 507.826 26.8977V28.9815C507.826 31.0398 506.125 32.6122 503.735 32.6122ZM522.904 24.6477C522.917 22.1165 524.464 20.6335 526.689 20.6335C528.9 20.6335 530.204 22.0526 530.191 24.4688V36H535.637V23.4972C535.65 18.8949 532.94 16.108 528.849 16.108C525.87 16.108 523.876 17.5142 522.981 19.8281H522.751V9.81818H517.458V36H522.904V24.6477ZM552.516 27.6392C552.528 30.2727 550.726 31.6534 548.77 31.6534C546.712 31.6534 545.382 30.2088 545.369 27.8949V16.3636H539.923V28.8665C539.936 33.456 542.621 36.2557 546.571 36.2557C549.524 36.2557 551.646 34.7344 552.528 32.4332H552.733V36H557.962V16.3636H552.516V27.6392ZM567.764 24.6477C567.777 22.1165 569.285 20.6335 571.484 20.6335C573.67 20.6335 574.987 22.0653 574.974 24.4688V36H580.42V23.4972C580.42 18.9205 577.735 16.108 573.645 16.108C570.73 16.108 568.62 17.5398 567.738 19.8281H567.508V16.3636H562.318V36H567.764V24.6477ZM593.044 36H598.49V24.2131C598.49 22.0398 599.871 20.5952 601.686 20.5952C603.476 20.5952 604.678 21.8224 604.678 23.7528V36H609.958V24.0085C609.958 21.9759 611.121 20.5952 613.103 20.5952C614.841 20.5952 616.145 21.6818 616.145 23.8679V36H621.578V22.794C621.578 18.5369 619.047 16.108 615.391 16.108C612.515 16.108 610.277 17.5781 609.472 19.8281H609.267C608.641 17.5526 606.634 16.108 603.936 16.108C601.29 16.108 599.283 17.5142 598.465 19.8281H598.235V16.3636H593.044V36ZM634.829 36.3835C639.687 36.3835 642.96 34.0185 643.727 30.375L638.69 30.0426C638.14 31.5384 636.734 32.3182 634.919 32.3182C632.196 32.3182 630.47 30.5156 630.47 27.5881V27.5753H643.842V26.0795C643.842 19.4062 639.802 16.108 634.612 16.108C628.833 16.108 625.088 20.2116 625.088 26.2713C625.088 32.4972 628.782 36.3835 634.829 36.3835ZM630.47 24.2003C630.585 21.9631 632.285 20.1733 634.701 20.1733C637.066 20.1733 638.703 21.8608 638.716 24.2003H630.47ZM652.842 24.6477C652.855 22.1165 654.363 20.6335 656.562 20.6335C658.748 20.6335 660.065 22.0653 660.052 24.4688V36H665.498V23.4972C665.498 18.9205 662.814 16.108 658.723 16.108C655.808 16.108 653.699 17.5398 652.816 19.8281H652.586V16.3636H647.396V36H652.842V24.6477ZM669.79 16.3636V36.8821C669.79 38.3651 669.164 39.1065 667.413 39.1065C667.183 39.1065 666.978 39.1065 666.697 39.081V43.3381C667.093 43.3509 667.413 43.3636 667.796 43.3636C672.424 43.3636 675.237 41.5227 675.237 36.9716V16.3636H669.79ZM672.501 13.8324C674.124 13.8324 675.454 12.5923 675.454 11.071C675.454 9.5625 674.124 8.32244 672.501 8.32244C670.89 8.32244 669.56 9.5625 669.56 11.071C669.56 12.5923 670.89 13.8324 672.501 13.8324ZM685.199 36.3707C688.1 36.3707 689.98 35.1051 690.939 33.277H691.092V36H696.257V22.7557C696.257 18.0767 692.294 16.108 687.922 16.108C683.217 16.108 680.123 18.358 679.369 21.9375L684.406 22.3466C684.777 21.0426 685.94 20.0838 687.896 20.0838C689.75 20.0838 690.811 21.017 690.811 22.6278V22.7045C690.811 23.9702 689.468 24.1364 686.055 24.4688C682.169 24.8267 678.679 26.1307 678.679 30.5156C678.679 34.402 681.453 36.3707 685.199 36.3707ZM686.758 32.6122C685.083 32.6122 683.882 31.8324 683.882 30.3366C683.882 28.8026 685.147 28.0483 687.065 27.7798C688.254 27.6136 690.197 27.3324 690.849 26.8977V28.9815C690.849 31.0398 689.149 32.6122 686.758 32.6122ZM707.718 36.3196C710.888 36.3196 712.537 34.4915 713.292 32.8551H713.522V36H718.891V9.81818H713.458V19.6619H713.292C712.563 18.0639 710.99 16.108 707.705 16.108C703.397 16.108 699.753 19.4574 699.753 26.2074C699.753 32.7784 703.243 36.3196 707.718 36.3196ZM709.444 31.9858C706.772 31.9858 705.314 29.608 705.314 26.1818C705.314 22.7812 706.746 20.4418 709.444 20.4418C712.09 20.4418 713.573 22.679 713.573 26.1818C713.573 29.6847 712.064 31.9858 709.444 31.9858ZM723.369 36H728.815V16.3636H723.369V36ZM726.104 13.8324C727.728 13.8324 729.058 12.5923 729.058 11.071C729.058 9.5625 727.728 8.32244 726.104 8.32244C724.494 8.32244 723.164 9.5625 723.164 11.071C723.164 12.5923 724.494 13.8324 726.104 13.8324ZM747.109 36.3707C750.011 36.3707 751.89 35.1051 752.849 33.277H753.002V36H758.167V22.7557C758.167 18.0767 754.204 16.108 749.832 16.108C745.127 16.108 742.033 18.358 741.279 21.9375L746.316 22.3466C746.687 21.0426 747.85 20.0838 749.806 20.0838C751.66 20.0838 752.721 21.017 752.721 22.6278V22.7045C752.721 23.9702 751.379 24.1364 747.965 24.4688C744.079 24.8267 740.589 26.1307 740.589 30.5156C740.589 34.402 743.363 36.3707 747.109 36.3707ZM748.668 32.6122C746.994 32.6122 745.792 31.8324 745.792 30.3366C745.792 28.8026 747.058 28.0483 748.975 27.7798C750.164 27.6136 752.107 27.3324 752.759 26.8977V28.9815C752.759 31.0398 751.059 32.6122 748.668 32.6122ZM771.264 36.3835C776.493 36.3835 779.778 33.3153 780.034 28.8026H774.895C774.575 30.8991 773.195 32.0753 771.328 32.0753C768.784 32.0753 767.135 29.9403 767.135 26.1818C767.135 22.4744 768.797 20.3523 771.328 20.3523C773.322 20.3523 774.601 21.669 774.895 23.625H780.034C779.804 19.0866 776.365 16.108 771.239 16.108C765.281 16.108 761.599 20.2372 761.599 26.2585C761.599 32.2287 765.217 36.3835 771.264 36.3835ZM789.12 36.3707C792.022 36.3707 793.902 35.1051 794.86 33.277H795.014V36H800.179V22.7557C800.179 18.0767 796.216 16.108 791.843 16.108C787.139 16.108 784.045 18.358 783.291 21.9375L788.328 22.3466C788.699 21.0426 789.862 20.0838 791.818 20.0838C793.672 20.0838 794.733 21.017 794.733 22.6278V22.7045C794.733 23.9702 793.39 24.1364 789.977 24.4688C786.091 24.8267 782.6 26.1307 782.6 30.5156C782.6 34.402 785.375 36.3707 789.12 36.3707ZM790.68 32.6122C789.005 32.6122 787.804 31.8324 787.804 30.3366C787.804 28.8026 789.069 28.0483 790.987 27.7798C792.176 27.6136 794.119 27.3324 794.771 26.8977V28.9815C794.771 31.0398 793.071 32.6122 790.68 32.6122ZM804.404 36H809.85V24.8906C809.85 22.4744 811.614 20.8125 814.017 20.8125C814.772 20.8125 815.807 20.9403 816.319 21.1065V16.2741C815.833 16.1591 815.155 16.0824 814.605 16.0824C812.407 16.0824 810.604 17.3608 809.888 19.7898H809.684V16.3636H804.404V36ZM824.171 36.3707C827.073 36.3707 828.952 35.1051 829.911 33.277H830.065V36H835.229V22.7557C835.229 18.0767 831.266 16.108 826.894 16.108C822.19 16.108 819.096 18.358 818.342 21.9375L823.379 22.3466C823.749 21.0426 824.913 20.0838 826.869 20.0838C828.722 20.0838 829.783 21.017 829.783 22.6278V22.7045C829.783 23.9702 828.441 24.1364 825.028 24.4688C821.141 24.8267 817.651 26.1307 817.651 30.5156C817.651 34.402 820.425 36.3707 824.171 36.3707ZM825.731 32.6122C824.056 32.6122 822.854 31.8324 822.854 30.3366C822.854 28.8026 824.12 28.0483 826.038 27.7798C827.227 27.6136 829.17 27.3324 829.822 26.8977V28.9815C829.822 31.0398 828.121 32.6122 825.731 32.6122ZM858.231 16.3636H854.537V11.6591H849.091V16.3636H846.406V20.4545H849.091V30.6818C849.065 34.5298 851.686 36.4347 855.636 36.2685C857.042 36.2173 858.039 35.9361 858.589 35.7571L857.733 31.7045C857.464 31.7557 856.889 31.8835 856.377 31.8835C855.291 31.8835 854.537 31.4744 854.537 29.9659V20.4545H858.231V16.3636ZM867.378 36.3707C870.28 36.3707 872.159 35.1051 873.118 33.277H873.272V36H878.436V22.7557C878.436 18.0767 874.473 16.108 870.101 16.108C865.397 16.108 862.303 18.358 861.549 21.9375L866.586 22.3466C866.956 21.0426 868.12 20.0838 870.076 20.0838C871.929 20.0838 872.99 21.017 872.99 22.6278V22.7045C872.99 23.9702 871.648 24.1364 868.235 24.4688C864.348 24.8267 860.858 26.1307 860.858 30.5156C860.858 34.402 863.632 36.3707 867.378 36.3707ZM868.938 32.6122C867.263 32.6122 866.061 31.8324 866.061 30.3366C866.061 28.8026 867.327 28.0483 869.245 27.7798C870.434 27.6136 872.377 27.3324 873.029 26.8977V28.9815C873.029 31.0398 871.328 32.6122 868.938 32.6122ZM888.108 24.6477C888.12 22.1165 889.667 20.6335 891.892 20.6335C894.103 20.6335 895.407 22.0526 895.395 24.4688V36H900.841V23.4972C900.853 18.8949 898.143 16.108 894.052 16.108C891.074 16.108 889.079 17.5142 888.184 19.8281H887.954V9.81818H882.662V36H888.108V24.6477ZM917.719 27.6392C917.732 30.2727 915.929 31.6534 913.973 31.6534C911.915 31.6534 910.585 30.2088 910.572 27.8949V16.3636H905.126V28.8665C905.139 33.456 907.824 36.2557 911.774 36.2557C914.727 36.2557 916.849 34.7344 917.732 32.4332H917.936V36H923.165V16.3636H917.719V27.6392ZM932.967 24.6477C932.98 22.1165 934.488 20.6335 936.687 20.6335C938.873 20.6335 940.19 22.0653 940.177 24.4688V36H945.623V23.4972C945.623 18.9205 942.939 16.108 938.848 16.108C935.933 16.108 933.824 17.5398 932.941 19.8281H932.711V16.3636H927.521V36H932.967V24.6477ZM955.515 36.3707C958.417 36.3707 960.296 35.1051 961.255 33.277H961.408V36H966.573V22.7557C966.573 18.0767 962.61 16.108 958.238 16.108C953.533 16.108 950.44 18.358 949.685 21.9375L954.722 22.3466C955.093 21.0426 956.256 20.0838 958.212 20.0838C960.066 20.0838 961.127 21.017 961.127 22.6278V22.7045C961.127 23.9702 959.785 24.1364 956.371 24.4688C952.485 24.8267 948.995 26.1307 948.995 30.5156C948.995 34.402 951.769 36.3707 955.515 36.3707ZM957.075 32.6122C955.4 32.6122 954.198 31.8324 954.198 30.3366C954.198 28.8026 955.464 28.0483 957.381 27.7798C958.57 27.6136 960.513 27.3324 961.165 26.8977V28.9815C961.165 31.0398 959.465 32.6122 957.075 32.6122ZM976.244 24.6477C976.257 22.1165 977.766 20.6335 979.964 20.6335C982.151 20.6335 983.467 22.0653 983.455 24.4688V36H988.901V23.4972C988.901 18.9205 986.216 16.108 982.125 16.108C979.21 16.108 977.101 17.5398 976.219 19.8281H975.989V16.3636H970.798V36H976.244V24.6477Z" fill="black"/>
</svg>
