<svg width="36" height="36" viewBox="0 0 36 36" fill="none" xmlns="http://www.w3.org/2000/svg">
<path fill-rule="evenodd" clip-rule="evenodd" d="M18 3C9.72 3 3 9.72 3 18C3 26.28 9.72 33 18 33C26.28 33 33 26.28 33 18C33 9.72 26.28 3 18 3ZM23.415 12.51C25.02 12.51 26.31 13.8 26.31 15.405C26.31 17.01 25.02 18.3 23.415 18.3C21.81 18.3 20.52 17.01 20.52 15.405C20.505 13.8 21.81 12.51 23.415 12.51ZM17.955 13.68C17.955 11.73 16.365 10.14 14.415 10.14C12.45 10.14 10.875 11.715 10.875 13.68C10.875 15.63 12.465 17.22 14.415 17.22C16.365 17.22 17.955 15.63 17.955 13.68ZM14.415 23.835V29.46C10.815 28.335 7.965 25.56 6.705 22.02C8.28 20.34 12.21 19.485 14.415 19.485C15.21 19.485 16.215 19.605 17.265 19.815C14.805 21.12 14.415 22.845 14.415 23.835ZM16.815 29.94C17.205 29.985 17.595 30 18 30C23.085 30 27.42 26.82 29.175 22.365C27.795 21.225 25.02 20.64 23.415 20.64C21.225 20.64 16.815 21.705 16.815 23.835V29.94Z" fill="url(#paint0_linear)"/>
<defs>
<linearGradient id="paint0_linear" x1="3.72289" y1="32.6386" x2="33" y2="2.99999" gradientUnits="userSpaceOnUse">
<stop stop-color="#ED1C7D"/>
<stop offset="0.5" stop-color="#CD33D5"/>
<stop offset="1" stop-color="#5824FE"/>
</linearGradient>
</defs>
</svg>
