<svg width="312" height="18" viewBox="0 0 312 18" fill="none" xmlns="http://www.w3.org/2000/svg">
<path d="M0.409091 2.36364L4.61364 9.20455V14H6.02273V9.20455L10.2273 2.36364H8.61364L5.38636 7.79545H5.25L2.02273 2.36364H0.409091ZM13.2955 14.2045C14.8182 14.2045 15.6136 13.3864 15.8864 12.8182H15.9545V14H17.2955V8.25C17.2955 5.47727 15.1818 5.15909 14.0682 5.15909C12.75 5.15909 11.25 5.61364 10.5682 7.20455L11.8409 7.65909C12.1364 7.02273 12.8352 6.34091 14.1136 6.34091C15.3466 6.34091 15.9545 6.99432 15.9545 8.11364V8.15909C15.9545 8.80682 15.2955 8.75 13.7045 8.95455C12.0852 9.16477 10.3182 9.52273 10.3182 11.5227C10.3182 13.2273 11.6364 14.2045 13.2955 14.2045ZM13.5 13C12.4318 13 11.6591 12.5227 11.6591 11.5909C11.6591 10.5682 12.5909 10.25 13.6364 10.1136C14.2045 10.0455 15.7273 9.88636 15.9545 9.61364V10.8409C15.9545 11.9318 15.0909 13 13.5 13ZM21.0838 8.75C21.0838 7.22727 22.027 6.36364 23.3111 6.36364C24.5554 6.36364 25.3111 7.17614 25.3111 8.54545V14H26.652V8.45455C26.652 6.22727 25.4645 5.15909 23.6974 5.15909C22.3793 5.15909 21.5611 5.75 21.152 6.63636H21.0384V5.27273H19.7429V14H21.0838V8.75ZM32.625 17.4545C34.7159 17.4545 36.3977 16.5 36.3977 14.25V5.27273H35.1023V6.65909H34.9659C34.6705 6.20455 34.125 5.15909 32.4205 5.15909C30.2159 5.15909 28.6932 6.90909 28.6932 9.59091C28.6932 12.3182 30.2841 13.8636 32.3977 13.8636C34.1023 13.8636 34.6477 12.8636 34.9432 12.3864H35.0568V14.1591C35.0568 15.6136 34.0341 16.2727 32.625 16.2727C31.0398 16.2727 30.483 15.4375 30.125 14.9545L29.0568 15.7045C29.6023 16.6193 30.6761 17.4545 32.625 17.4545ZM32.5795 12.6591C30.8977 12.6591 30.0341 11.3864 30.0341 9.56818C30.0341 7.79545 30.875 6.36364 32.5795 6.36364C34.2159 6.36364 35.0795 7.68182 35.0795 9.56818C35.0795 11.5 34.1932 12.6591 32.5795 12.6591ZM43.3523 14H44.6932V8.54545C44.6932 7.26705 45.625 6.36364 46.6705 6.36364C47.6875 6.36364 48.3977 7.02841 48.3977 8.02273V14H49.7614V8.31818C49.7614 7.19318 50.4659 6.36364 51.6932 6.36364C52.6477 6.36364 53.4659 6.86932 53.4659 8.15909V14H54.8068V8.15909C54.8068 6.10795 53.7045 5.15909 52.1477 5.15909C50.8977 5.15909 49.983 5.73295 49.5341 6.63636H49.4432C49.0114 5.70455 48.25 5.15909 47.1023 5.15909C45.9659 5.15909 45.125 5.70455 44.7614 6.63636H44.6477V5.27273H43.3523V14ZM60.9176 14.1818C62.6903 14.1818 63.9858 13.2955 64.3949 11.9773L63.0994 11.6136C62.7585 12.5227 61.9688 12.9773 60.9176 12.9773C59.3438 12.9773 58.2585 11.9602 58.196 10.0909H64.5312V9.52273C64.5312 6.27273 62.5994 5.15909 60.7812 5.15909C58.4176 5.15909 56.8494 7.02273 56.8494 9.70455C56.8494 12.3864 58.3949 14.1818 60.9176 14.1818ZM58.196 8.93182C58.2869 7.57386 59.2472 6.36364 60.7812 6.36364C62.2358 6.36364 63.1676 7.45455 63.1676 8.93182H58.196ZM66.571 14H67.9119V8.47727C67.9119 7.29545 68.8438 6.43182 70.1165 6.43182C70.4744 6.43182 70.8438 6.5 70.9347 6.52273V5.15909C70.7812 5.14773 70.429 5.13636 70.2301 5.13636C69.1847 5.13636 68.2756 5.72727 67.9574 6.59091H67.8665V5.27273H66.571V14ZM75.9176 14.1818C77.6903 14.1818 78.9858 13.2955 79.3949 11.9773L78.0994 11.6136C77.7585 12.5227 76.9688 12.9773 75.9176 12.9773C74.3438 12.9773 73.2585 11.9602 73.196 10.0909H79.5312V9.52273C79.5312 6.27273 77.5994 5.15909 75.7812 5.15909C73.4176 5.15909 71.8494 7.02273 71.8494 9.70455C71.8494 12.3864 73.3949 14.1818 75.9176 14.1818ZM73.196 8.93182C73.2869 7.57386 74.2472 6.36364 75.7812 6.36364C77.2358 6.36364 78.1676 7.45455 78.1676 8.93182H73.196ZM81.571 14H82.9119V10.733L83.8494 9.86364L87.1165 14H88.821L84.8608 9L88.5483 5.27273H86.8892L83.071 9.15909H82.9119V2.36364H81.571V14ZM92.8423 14.2045C94.3651 14.2045 95.1605 13.3864 95.4332 12.8182H95.5014V14H96.8423V8.25C96.8423 5.47727 94.7287 5.15909 93.6151 5.15909C92.2969 5.15909 90.7969 5.61364 90.1151 7.20455L91.3878 7.65909C91.6832 7.02273 92.3821 6.34091 93.6605 6.34091C94.8935 6.34091 95.5014 6.99432 95.5014 8.11364V8.15909C95.5014 8.80682 94.8423 8.75 93.2514 8.95455C91.6321 9.16477 89.8651 9.52273 89.8651 11.5227C89.8651 13.2273 91.1832 14.2045 92.8423 14.2045ZM93.0469 13C91.9787 13 91.206 12.5227 91.206 11.5909C91.206 10.5682 92.1378 10.25 93.1832 10.1136C93.7514 10.0455 95.2741 9.88636 95.5014 9.61364V10.8409C95.5014 11.9318 94.6378 13 93.0469 13ZM103.79 14H105.131V10.733L106.068 9.86364L109.335 14H111.04L107.08 9L110.767 5.27273H109.108L105.29 9.15909H105.131V2.36364H103.79V14ZM115.061 14.2045C116.584 14.2045 117.379 13.3864 117.652 12.8182H117.72V14H119.061V8.25C119.061 5.47727 116.947 5.15909 115.834 5.15909C114.516 5.15909 113.016 5.61364 112.334 7.20455L113.607 7.65909C113.902 7.02273 114.601 6.34091 115.879 6.34091C117.112 6.34091 117.72 6.99432 117.72 8.11364V8.15909C117.72 8.80682 117.061 8.75 115.47 8.95455C113.851 9.16477 112.084 9.52273 112.084 11.5227C112.084 13.2273 113.402 14.2045 115.061 14.2045ZM115.266 13C114.197 13 113.425 12.5227 113.425 11.5909C113.425 10.5682 114.357 10.25 115.402 10.1136C115.97 10.0455 117.493 9.88636 117.72 9.61364V10.8409C117.72 11.9318 116.857 13 115.266 13ZM125.304 5.27273H123.44V3.18182H122.099V5.27273H120.781V6.40909H122.099V11.8636C122.099 13.3864 123.327 14.1136 124.463 14.1136C124.963 14.1136 125.281 14.0227 125.463 13.9545L125.19 12.75C125.077 12.7727 124.895 12.8182 124.599 12.8182C124.009 12.8182 123.44 12.6364 123.44 11.5V6.40909H125.304V5.27273ZM129.889 14.2045C131.412 14.2045 132.207 13.3864 132.48 12.8182H132.548V14H133.889V8.25C133.889 5.47727 131.776 5.15909 130.662 5.15909C129.344 5.15909 127.844 5.61364 127.162 7.20455L128.435 7.65909C128.73 7.02273 129.429 6.34091 130.707 6.34091C131.94 6.34091 132.548 6.99432 132.548 8.11364V8.15909C132.548 8.80682 131.889 8.75 130.298 8.95455C128.679 9.16477 126.912 9.52273 126.912 11.5227C126.912 13.2273 128.23 14.2045 129.889 14.2045ZM130.094 13C129.026 13 128.253 12.5227 128.253 11.5909C128.253 10.5682 129.185 10.25 130.23 10.1136C130.798 10.0455 132.321 9.88636 132.548 9.61364V10.8409C132.548 11.9318 131.685 13 130.094 13ZM136.337 14H137.678V10.733L138.615 9.86364L141.882 14H143.587L139.626 9L143.314 5.27273H141.655L137.837 9.15909H137.678V2.36364H136.337V14ZM147.608 14.2045C149.131 14.2045 149.926 13.3864 150.199 12.8182H150.267V14H151.608V8.25C151.608 5.47727 149.494 5.15909 148.381 5.15909C147.062 5.15909 145.562 5.61364 144.881 7.20455L146.153 7.65909C146.449 7.02273 147.148 6.34091 148.426 6.34091C149.659 6.34091 150.267 6.99432 150.267 8.11364V8.15909C150.267 8.80682 149.608 8.75 148.017 8.95455C146.398 9.16477 144.631 9.52273 144.631 11.5227C144.631 13.2273 145.949 14.2045 147.608 14.2045ZM147.812 13C146.744 13 145.972 12.5227 145.972 11.5909C145.972 10.5682 146.903 10.25 147.949 10.1136C148.517 10.0455 150.04 9.88636 150.267 9.61364V10.8409C150.267 11.9318 149.403 13 147.812 13ZM155.396 8.75C155.396 7.22727 156.339 6.36364 157.624 6.36364C158.868 6.36364 159.624 7.17614 159.624 8.54545V14H160.964V8.45455C160.964 6.22727 159.777 5.15909 158.01 5.15909C156.692 5.15909 155.874 5.75 155.464 6.63636H155.351V5.27273H154.055V14H155.396V8.75ZM171.71 5.27273H169.847V3.18182H168.506V5.27273H167.188V6.40909H168.506V11.8636C168.506 13.3864 169.733 14.1136 170.869 14.1136C171.369 14.1136 171.688 14.0227 171.869 13.9545L171.597 12.75C171.483 12.7727 171.301 12.8182 171.006 12.8182C170.415 12.8182 169.847 12.6364 169.847 11.5V6.40909H171.71V5.27273ZM177.293 14.1818C179.065 14.1818 180.361 13.2955 180.77 11.9773L179.474 11.6136C179.134 12.5227 178.344 12.9773 177.293 12.9773C175.719 12.9773 174.634 11.9602 174.571 10.0909H180.906V9.52273C180.906 6.27273 178.974 5.15909 177.156 5.15909C174.793 5.15909 173.224 7.02273 173.224 9.70455C173.224 12.3864 174.77 14.1818 177.293 14.1818ZM174.571 8.93182C174.662 7.57386 175.622 6.36364 177.156 6.36364C178.611 6.36364 179.543 7.45455 179.543 8.93182H174.571ZM184.287 8.75C184.287 7.22727 185.23 6.36364 186.514 6.36364C187.759 6.36364 188.514 7.17614 188.514 8.54545V14H189.855V8.45455C189.855 6.22727 188.668 5.15909 186.901 5.15909C185.582 5.15909 184.764 5.75 184.355 6.63636H184.241V5.27273H182.946V14H184.287V8.75ZM196.101 5.27273H194.237V3.18182H192.896V5.27273H191.578V6.40909H192.896V11.8636C192.896 13.3864 194.124 14.1136 195.26 14.1136C195.76 14.1136 196.078 14.0227 196.26 13.9545L195.987 12.75C195.874 12.7727 195.692 12.8182 195.396 12.8182C194.805 12.8182 194.237 12.6364 194.237 11.5V6.40909H196.101V5.27273ZM200.686 14.2045C202.209 14.2045 203.004 13.3864 203.277 12.8182H203.345V14H204.686V8.25C204.686 5.47727 202.572 5.15909 201.459 5.15909C200.141 5.15909 198.641 5.61364 197.959 7.20455L199.232 7.65909C199.527 7.02273 200.226 6.34091 201.504 6.34091C202.737 6.34091 203.345 6.99432 203.345 8.11364V8.15909C203.345 8.80682 202.686 8.75 201.095 8.95455C199.476 9.16477 197.709 9.52273 197.709 11.5227C197.709 13.2273 199.027 14.2045 200.686 14.2045ZM200.891 13C199.822 13 199.05 12.5227 199.05 11.5909C199.05 10.5682 199.982 10.25 201.027 10.1136C201.595 10.0455 203.118 9.88636 203.345 9.61364V10.8409C203.345 11.9318 202.482 13 200.891 13ZM208.474 8.75C208.474 7.22727 209.418 6.36364 210.702 6.36364C211.946 6.36364 212.702 7.17614 212.702 8.54545V14H214.043V8.45455C214.043 6.22727 212.855 5.15909 211.088 5.15909C209.77 5.15909 208.952 5.75 208.543 6.63636H208.429V5.27273H207.134V14H208.474V8.75ZM220.016 17.4545C222.107 17.4545 223.788 16.5 223.788 14.25V5.27273H222.493V6.65909H222.357C222.061 6.20455 221.516 5.15909 219.811 5.15909C217.607 5.15909 216.084 6.90909 216.084 9.59091C216.084 12.3182 217.675 13.8636 219.788 13.8636C221.493 13.8636 222.038 12.8636 222.334 12.3864H222.447V14.1591C222.447 15.6136 221.425 16.2727 220.016 16.2727C218.43 16.2727 217.874 15.4375 217.516 14.9545L216.447 15.7045C216.993 16.6193 218.067 17.4545 220.016 17.4545ZM219.97 12.6591C218.288 12.6591 217.425 11.3864 217.425 9.56818C217.425 7.79545 218.266 6.36364 219.97 6.36364C221.607 6.36364 222.47 7.68182 222.47 9.56818C222.47 11.5 221.584 12.6591 219.97 12.6591ZM267.797 12.7812C267.516 12.7812 267.229 12.7812 266.938 12.7812C266.646 12.7812 266.354 12.7812 266.062 12.7812C265.99 12.7812 265.938 12.7708 265.906 12.75C265.885 12.7188 265.875 12.6615 265.875 12.5781C265.875 11.7552 265.875 10.9271 265.875 10.0938C265.875 9.26042 265.875 8.42708 265.875 7.59375C265.875 6.76042 265.875 5.93229 265.875 5.10938C265.875 4.27604 265.875 3.44271 265.875 2.60938C265.875 2.53646 265.885 2.48438 265.906 2.45312C265.927 2.42188 265.979 2.40625 266.062 2.40625C266.427 2.40625 266.786 2.40625 267.141 2.40625C267.505 2.40625 267.865 2.40625 268.219 2.40625C268.292 2.40625 268.344 2.42188 268.375 2.45312C268.406 2.47396 268.427 2.52083 268.438 2.59375C268.583 3.19792 268.729 3.80208 268.875 4.40625C269.021 5 269.167 5.59896 269.312 6.20312C269.458 6.80729 269.604 7.41146 269.75 8.01562C269.896 8.60938 270.042 9.20833 270.188 9.8125C270.198 9.84375 270.208 9.875 270.219 9.90625C270.229 9.9375 270.245 9.96875 270.266 10C270.318 9.84375 270.365 9.6875 270.406 9.53125C270.448 9.375 270.484 9.21354 270.516 9.04688C270.693 8.32812 270.865 7.60938 271.031 6.89062C271.208 6.17188 271.391 5.45312 271.578 4.73438C271.672 4.36979 271.755 4.01042 271.828 3.65625C271.911 3.30208 272 2.94792 272.094 2.59375C272.115 2.53125 272.135 2.48958 272.156 2.46875C272.188 2.4375 272.229 2.42188 272.281 2.42188C272.656 2.42188 273.031 2.42188 273.406 2.42188C273.781 2.42188 274.156 2.42188 274.531 2.42188C274.635 2.42188 274.688 2.45312 274.688 2.51562C274.698 2.56771 274.703 2.625 274.703 2.6875C274.703 3.375 274.703 4.0625 274.703 4.75C274.703 5.4375 274.703 6.125 274.703 6.8125C274.703 7.5 274.703 8.19271 274.703 8.89062C274.703 9.57812 274.703 10.2656 274.703 10.9531C274.703 11.224 274.703 11.4948 274.703 11.7656C274.703 12.0365 274.703 12.3125 274.703 12.5938C274.703 12.6667 274.688 12.7188 274.656 12.75C274.635 12.7708 274.589 12.7812 274.516 12.7812C274.224 12.7812 273.932 12.7812 273.641 12.7812C273.349 12.7812 273.057 12.7812 272.766 12.7812C272.755 12.75 272.745 12.7135 272.734 12.6719C272.734 12.6302 272.74 12.5885 272.75 12.5469C272.75 12.0573 272.75 11.5625 272.75 11.0625C272.75 10.5729 272.75 10.0833 272.75 9.59375C272.75 9.10417 272.75 8.61979 272.75 8.14062C272.75 7.65104 272.75 7.16146 272.75 6.67188C272.75 6.64062 272.755 6.60417 272.766 6.5625C272.776 6.51042 272.75 6.47396 272.688 6.45312C272.583 6.83854 272.474 7.22396 272.359 7.60938C272.255 7.98438 272.151 8.35938 272.047 8.73438C271.87 9.39062 271.688 10.0469 271.5 10.7031C271.323 11.3594 271.146 12.0208 270.969 12.6875C270.958 12.7292 270.943 12.7604 270.922 12.7812C270.901 12.7917 270.87 12.7969 270.828 12.7969C270.651 12.7969 270.469 12.7969 270.281 12.7969C270.104 12.7969 269.927 12.7969 269.75 12.7969C269.646 12.7969 269.589 12.7604 269.578 12.6875C269.568 12.6146 269.552 12.5521 269.531 12.5C269.427 12.1354 269.323 11.7656 269.219 11.3906C269.115 11.0156 269.016 10.6406 268.922 10.2656C268.818 9.91146 268.719 9.55729 268.625 9.20312C268.531 8.84896 268.438 8.49479 268.344 8.14062C268.271 7.86979 268.193 7.59896 268.109 7.32812C268.036 7.05729 267.964 6.78125 267.891 6.5C267.828 6.53125 267.802 6.57292 267.812 6.625C267.823 6.66667 267.828 6.70833 267.828 6.75C267.828 7.23958 267.828 7.72396 267.828 8.20312C267.828 8.68229 267.828 9.16667 267.828 9.65625C267.828 10.1354 267.828 10.6198 267.828 11.1094C267.828 11.5885 267.828 12.0677 267.828 12.5469C267.828 12.5885 267.828 12.6302 267.828 12.6719C267.828 12.7031 267.818 12.7396 267.797 12.7812ZM301.734 5.34375C301.734 5.03125 301.682 4.74479 301.578 4.48438C301.484 4.22396 301.286 4.02083 300.984 3.875C300.589 3.69792 300.203 3.70833 299.828 3.90625C299.464 4.09375 299.281 4.43229 299.281 4.92188C299.26 4.96354 299.25 5.01042 299.25 5.0625C299.25 5.10417 299.26 5.14583 299.281 5.1875C299.271 5.40625 299.318 5.58854 299.422 5.73438C299.536 5.86979 299.672 5.99479 299.828 6.10938C300.078 6.27604 300.333 6.42708 300.594 6.5625C300.865 6.6875 301.141 6.80208 301.422 6.90625C301.786 7.0625 302.13 7.25 302.453 7.46875C302.786 7.67708 303.068 7.95312 303.297 8.29688C303.422 8.49479 303.516 8.70833 303.578 8.9375C303.651 9.16667 303.698 9.39583 303.719 9.625C303.729 9.71875 303.734 9.8125 303.734 9.90625C303.734 10 303.729 10.0938 303.719 10.1875C303.656 10.9271 303.396 11.5052 302.938 11.9219C302.49 12.3281 301.943 12.5833 301.297 12.6875C301.214 12.7083 301.125 12.724 301.031 12.7344C300.948 12.7344 300.859 12.7396 300.766 12.75C300.693 12.7604 300.62 12.7656 300.547 12.7656C300.474 12.7656 300.396 12.7604 300.312 12.75C299.969 12.7396 299.63 12.6823 299.297 12.5781C298.964 12.474 298.651 12.3281 298.359 12.1406C298.203 12.0365 298.062 11.9219 297.938 11.7969C297.812 11.6719 297.698 11.5365 297.594 11.3906C297.5 11.2448 297.417 11.0885 297.344 10.9219C297.281 10.7552 297.234 10.5833 297.203 10.4062C297.182 10.3125 297.167 10.224 297.156 10.1406C297.156 10.0469 297.151 9.95312 297.141 9.85938C297.13 9.78646 297.125 9.71875 297.125 9.65625C297.125 9.58333 297.13 9.51562 297.141 9.45312C297.266 9.42188 297.385 9.40625 297.5 9.40625C297.615 9.39583 297.734 9.40104 297.859 9.42188C298.016 9.42188 298.172 9.42188 298.328 9.42188C298.484 9.42188 298.646 9.42188 298.812 9.42188C298.906 9.42188 298.969 9.4375 299 9.46875C299.031 9.48958 299.047 9.55208 299.047 9.65625C299.047 9.77083 299.052 9.88542 299.062 10C299.083 10.1042 299.109 10.2083 299.141 10.3125C299.182 10.4167 299.229 10.5156 299.281 10.6094C299.344 10.7031 299.411 10.7917 299.484 10.875C299.672 11.0729 299.984 11.1875 300.422 11.2188C300.87 11.25 301.219 11.1198 301.469 10.8281C301.542 10.7344 301.599 10.6354 301.641 10.5312C301.693 10.4167 301.729 10.2969 301.75 10.1719C301.771 10.0573 301.776 9.9375 301.766 9.8125C301.755 9.6875 301.729 9.56771 301.688 9.45312C301.625 9.21354 301.51 9.02604 301.344 8.89062C301.177 8.74479 300.995 8.61979 300.797 8.51562C300.578 8.39062 300.344 8.28646 300.094 8.20312C299.854 8.11979 299.62 8.02083 299.391 7.90625C299.151 7.79167 298.922 7.66667 298.703 7.53125C298.484 7.38542 298.271 7.22917 298.062 7.0625C297.875 6.89583 297.719 6.70312 297.594 6.48438C297.469 6.25521 297.385 6.01562 297.344 5.76562C297.292 5.48438 297.271 5.20833 297.281 4.9375C297.292 4.65625 297.339 4.38021 297.422 4.10938C297.505 3.83854 297.63 3.59375 297.797 3.375C297.964 3.15625 298.161 2.96875 298.391 2.8125C298.943 2.40625 299.625 2.20833 300.438 2.21875C301.26 2.21875 301.943 2.41667 302.484 2.8125C302.651 2.92708 302.802 3.0625 302.938 3.21875C303.083 3.375 303.208 3.54167 303.312 3.71875C303.406 3.90625 303.479 4.10417 303.531 4.3125C303.594 4.51042 303.63 4.71354 303.641 4.92188C303.641 4.98438 303.646 5.04688 303.656 5.10938C303.667 5.17188 303.672 5.23958 303.672 5.3125C303.672 5.34375 303.656 5.36458 303.625 5.375C303.594 5.38542 303.562 5.39062 303.531 5.39062H301.812C301.802 5.39062 301.792 5.39062 301.781 5.39062C301.781 5.39062 301.776 5.39062 301.766 5.39062C301.755 5.38021 301.745 5.375 301.734 5.375C301.734 5.36458 301.734 5.35417 301.734 5.34375ZM290.484 2.40625C290.641 2.40625 290.797 2.40625 290.953 2.40625C291.12 2.40625 291.286 2.40625 291.453 2.40625C292.193 2.40625 292.932 2.40625 293.672 2.40625C294.411 2.40625 295.156 2.40625 295.906 2.40625C296 2.40625 296.062 2.42708 296.094 2.46875C296.125 2.5 296.141 2.5625 296.141 2.65625C296.141 2.84375 296.141 3.03646 296.141 3.23438C296.141 3.42188 296.141 3.61458 296.141 3.8125C296.141 3.88542 296.125 3.9375 296.094 3.96875C296.073 3.98958 296.026 4 295.953 4C295.411 4 294.865 4 294.312 4C293.771 4 293.224 4 292.672 4C292.578 4 292.516 4.01562 292.484 4.04688C292.453 4.07812 292.438 4.14583 292.438 4.25C292.438 4.61458 292.438 4.98438 292.438 5.35938C292.438 5.72396 292.438 6.08854 292.438 6.45312C292.438 6.52604 292.448 6.57812 292.469 6.60938C292.5 6.63021 292.552 6.64062 292.625 6.64062C293.073 6.64062 293.521 6.64062 293.969 6.64062C294.427 6.64062 294.88 6.64062 295.328 6.64062C295.411 6.64062 295.469 6.65625 295.5 6.6875C295.531 6.71875 295.547 6.78125 295.547 6.875C295.536 7.05208 295.531 7.23958 295.531 7.4375C295.531 7.625 295.536 7.8125 295.547 8C295.547 8.09375 295.531 8.15625 295.5 8.1875C295.469 8.21875 295.401 8.23438 295.297 8.23438C294.859 8.23438 294.417 8.23438 293.969 8.23438C293.531 8.23438 293.094 8.23438 292.656 8.23438C292.573 8.23438 292.51 8.25 292.469 8.28125C292.438 8.30208 292.422 8.35938 292.422 8.45312C292.422 8.88021 292.422 9.3125 292.422 9.75C292.422 10.1771 292.422 10.6042 292.422 11.0312C292.422 11.0833 292.422 11.1302 292.422 11.1719C292.432 11.2135 292.474 11.2344 292.547 11.2344C293.141 11.2344 293.734 11.2344 294.328 11.2344C294.922 11.224 295.516 11.2188 296.109 11.2188C296.109 11.2188 296.115 11.224 296.125 11.2344C296.135 11.2344 296.141 11.2344 296.141 11.2344C296.151 11.4948 296.151 11.7552 296.141 12.0156C296.141 12.276 296.135 12.5365 296.125 12.7969H290.453C290.443 12.7656 290.432 12.7292 290.422 12.6875C290.422 12.6458 290.427 12.6094 290.438 12.5781C290.438 11.7448 290.438 10.9167 290.438 10.0938C290.438 9.27083 290.438 8.44792 290.438 7.625C290.438 6.79167 290.438 5.96354 290.438 5.14062C290.438 4.31771 290.438 3.48958 290.438 2.65625C290.438 2.61458 290.432 2.57292 290.422 2.53125C290.411 2.47917 290.432 2.4375 290.484 2.40625ZM254.625 9.42188C254.896 9.42188 255.167 9.42188 255.438 9.42188C255.719 9.42188 255.995 9.42188 256.266 9.42188C256.359 9.42188 256.422 9.4375 256.453 9.46875C256.495 9.5 256.51 9.5625 256.5 9.65625C256.479 10.0104 256.432 10.3542 256.359 10.6875C256.297 11.0208 256.161 11.3333 255.953 11.625C255.724 11.9375 255.448 12.1771 255.125 12.3438C254.812 12.5104 254.474 12.6302 254.109 12.7031C254.016 12.7135 253.917 12.724 253.812 12.7344C253.719 12.7448 253.62 12.7552 253.516 12.7656C253.443 12.776 253.365 12.7812 253.281 12.7812C253.198 12.7812 253.115 12.776 253.031 12.7656C252.802 12.7552 252.568 12.7292 252.328 12.6875C252.099 12.6354 251.875 12.5625 251.656 12.4688C251.458 12.3854 251.266 12.2812 251.078 12.1562C250.901 12.0208 250.74 11.8698 250.594 11.7031C250.448 11.5365 250.323 11.3594 250.219 11.1719C250.115 10.974 250.031 10.7708 249.969 10.5625C249.906 10.3646 249.854 10.1667 249.812 9.96875C249.781 9.77083 249.76 9.56771 249.75 9.35938C249.75 8.73438 249.75 8.10938 249.75 7.48438C249.75 6.85938 249.755 6.23438 249.766 5.60938C249.766 5.24479 249.812 4.89062 249.906 4.54688C250.01 4.20312 250.161 3.88021 250.359 3.57812C250.484 3.39062 250.625 3.21875 250.781 3.0625C250.938 2.90625 251.115 2.77083 251.312 2.65625C251.5 2.54167 251.698 2.45312 251.906 2.39062C252.125 2.31771 252.344 2.27604 252.562 2.26562C252.958 2.20312 253.354 2.19792 253.75 2.25C254.146 2.30208 254.526 2.40104 254.891 2.54688C255.089 2.63021 255.271 2.73438 255.438 2.85938C255.604 2.98438 255.755 3.13021 255.891 3.29688C256.026 3.46354 256.135 3.64583 256.219 3.84375C256.302 4.03125 256.365 4.22917 256.406 4.4375C256.438 4.59375 256.458 4.75 256.469 4.90625C256.49 5.0625 256.5 5.22396 256.5 5.39062C256.5 5.45312 256.484 5.5 256.453 5.53125C256.432 5.55208 256.391 5.5625 256.328 5.5625C256.078 5.5625 255.839 5.5625 255.609 5.5625C255.38 5.5625 255.146 5.5625 254.906 5.5625C254.75 5.5625 254.651 5.54167 254.609 5.5C254.578 5.45833 254.562 5.35417 254.562 5.1875C254.573 5.08333 254.568 4.98438 254.547 4.89062C254.536 4.79688 254.516 4.70312 254.484 4.60938C254.443 4.51562 254.396 4.42708 254.344 4.34375C254.292 4.26042 254.229 4.1875 254.156 4.125C254.073 4.05208 253.984 3.99479 253.891 3.95312C253.797 3.90104 253.698 3.85938 253.594 3.82812C253.479 3.80729 253.37 3.79688 253.266 3.79688C253.161 3.78646 253.057 3.79167 252.953 3.8125C252.557 3.88542 252.266 4.03125 252.078 4.25C251.901 4.45833 251.786 4.76562 251.734 5.17188C251.703 5.44271 251.682 5.71354 251.672 5.98438C251.672 6.25521 251.677 6.53125 251.688 6.8125C251.688 7.25 251.688 7.69271 251.688 8.14062C251.688 8.58854 251.693 9.03125 251.703 9.46875C251.703 9.66667 251.729 9.86458 251.781 10.0625C251.844 10.25 251.927 10.4271 252.031 10.5938C252.083 10.6979 252.151 10.7865 252.234 10.8594C252.318 10.9323 252.406 10.9948 252.5 11.0469C252.604 11.099 252.708 11.1354 252.812 11.1562C252.927 11.1771 253.036 11.1875 253.141 11.1875C253.182 11.1979 253.224 11.2031 253.266 11.2031C253.318 11.2031 253.365 11.1979 253.406 11.1875C253.542 11.1875 253.672 11.1667 253.797 11.125C253.932 11.0833 254.052 11.0156 254.156 10.9219C254.26 10.8281 254.344 10.7188 254.406 10.5938C254.469 10.4688 254.505 10.3385 254.516 10.2031C254.526 10.1406 254.542 10.0781 254.562 10.0156C254.594 9.94271 254.594 9.86979 254.562 9.79688C254.594 9.73438 254.599 9.67188 254.578 9.60938C254.557 9.53646 254.573 9.47396 254.625 9.42188ZM288.656 8.45312C288.135 8.45312 287.609 8.45312 287.078 8.45312C286.547 8.44271 286.016 8.44792 285.484 8.46875C285.474 8.51042 285.464 8.55208 285.453 8.59375C285.453 8.63542 285.458 8.67708 285.469 8.71875C285.469 9.35417 285.469 9.98958 285.469 10.625C285.469 11.25 285.469 11.8802 285.469 12.5156C285.479 12.5573 285.479 12.599 285.469 12.6406C285.469 12.6823 285.464 12.724 285.453 12.7656C285.151 12.7656 284.849 12.7656 284.547 12.7656C284.245 12.7656 283.948 12.7656 283.656 12.7656C283.583 12.7656 283.531 12.7552 283.5 12.7344C283.479 12.7135 283.469 12.6615 283.469 12.5781C283.469 11.7448 283.469 10.9115 283.469 10.0781C283.469 9.24479 283.469 8.41146 283.469 7.57812C283.469 6.74479 283.469 5.91667 283.469 5.09375C283.469 4.26042 283.469 3.42708 283.469 2.59375C283.469 2.52083 283.479 2.47396 283.5 2.45312C283.521 2.42188 283.568 2.40625 283.641 2.40625C284.099 2.40625 284.557 2.40625 285.016 2.40625C285.464 2.40625 285.917 2.40625 286.375 2.40625C286.833 2.40625 287.286 2.40625 287.734 2.40625C288.193 2.40625 288.651 2.40625 289.109 2.40625C289.182 2.40625 289.234 2.41667 289.266 2.4375C289.297 2.45833 289.307 2.51042 289.297 2.59375C289.297 2.79167 289.297 2.98958 289.297 3.1875C289.297 3.38542 289.297 3.58854 289.297 3.79688C289.297 3.86979 289.281 3.92188 289.25 3.95312C289.229 3.97396 289.182 3.98438 289.109 3.98438C288.547 3.98438 287.984 3.98438 287.422 3.98438C286.859 3.98438 286.297 3.98438 285.734 3.98438C285.703 3.98438 285.661 3.98438 285.609 3.98438C285.568 3.98438 285.531 3.98438 285.5 3.98438C285.49 4.00521 285.479 4.02604 285.469 4.04688C285.469 4.05729 285.469 4.07292 285.469 4.09375V6.75C285.469 6.76042 285.469 6.77604 285.469 6.79688C285.479 6.81771 285.49 6.83854 285.5 6.85938L287.375 6.875C287.594 6.875 287.807 6.875 288.016 6.875C288.234 6.875 288.453 6.875 288.672 6.875C288.693 7 288.703 7.125 288.703 7.25C288.714 7.375 288.708 7.50521 288.688 7.64062C288.698 7.77604 288.698 7.91146 288.688 8.04688C288.688 8.18229 288.677 8.31771 288.656 8.45312ZM307 4.01562C306.667 4.01562 306.328 4.01562 305.984 4.01562C305.641 4.00521 305.297 4.00521 304.953 4.01562C304.88 4.01562 304.828 4.00521 304.797 3.98438C304.766 3.95312 304.75 3.89583 304.75 3.8125C304.75 3.60417 304.75 3.40104 304.75 3.20312C304.75 3.00521 304.75 2.80729 304.75 2.60938C304.75 2.53646 304.76 2.48958 304.781 2.46875C304.812 2.4375 304.865 2.42188 304.938 2.42188C305.448 2.42188 305.964 2.42188 306.484 2.42188C307.005 2.42188 307.521 2.42188 308.031 2.42188C308.552 2.42188 309.073 2.42188 309.594 2.42188C310.115 2.42188 310.63 2.42188 311.141 2.42188C311.224 2.42188 311.276 2.4375 311.297 2.46875C311.318 2.5 311.328 2.55208 311.328 2.625C311.328 2.82292 311.328 3.02604 311.328 3.23438C311.328 3.43229 311.328 3.63021 311.328 3.82812C311.328 3.90104 311.318 3.95312 311.297 3.98438C311.276 4.00521 311.229 4.01562 311.156 4.01562C310.844 4.01562 310.526 4.01562 310.203 4.01562C309.891 4.01562 309.578 4.01562 309.266 4.01562C309.141 4.01562 309.062 4.03646 309.031 4.07812C309 4.11979 308.984 4.19792 308.984 4.3125C308.984 5 308.984 5.68229 308.984 6.35938C308.984 7.04688 308.984 7.73438 308.984 8.42188C308.984 9.09896 308.984 9.78125 308.984 10.4688C308.984 11.1562 308.984 11.8438 308.984 12.5312C308.984 12.6458 308.964 12.724 308.922 12.7656C308.891 12.7969 308.823 12.8125 308.719 12.8125C308.438 12.8021 308.156 12.8021 307.875 12.8125C307.604 12.8125 307.328 12.8125 307.047 12.8125C307.026 12.7708 307.016 12.7292 307.016 12.6875C307.016 12.6458 307.016 12.6042 307.016 12.5625C307.016 11.875 307.016 11.1875 307.016 10.5C307.016 9.8125 307.016 9.125 307.016 8.4375C307.016 7.73958 307.016 7.04688 307.016 6.35938C307.016 5.67188 307.016 4.98438 307.016 4.29688C307.036 4.25521 307.042 4.20833 307.031 4.15625C307.031 4.10417 307.021 4.05729 307 4.01562ZM264.719 5.51562C264.688 5.10938 264.583 4.72396 264.406 4.35938C264.24 3.98438 264.016 3.65104 263.734 3.35938C263.443 3.07812 263.115 2.85417 262.75 2.6875C262.385 2.52083 262 2.42708 261.594 2.40625C260.927 2.35417 260.302 2.41667 259.719 2.59375C259.135 2.76042 258.625 3.13542 258.188 3.71875C257.979 4 257.818 4.3125 257.703 4.65625C257.589 4.98958 257.526 5.33333 257.516 5.6875C257.495 6.27083 257.49 6.82812 257.5 7.35938C257.51 7.88021 257.51 8.4375 257.5 9.03125C257.5 9.64583 257.62 10.2396 257.859 10.8125C258.099 11.375 258.484 11.8333 259.016 12.1875C259.349 12.3958 259.724 12.5469 260.141 12.6406C260.557 12.7344 260.979 12.7656 261.406 12.7344C261.844 12.7031 262.266 12.6094 262.672 12.4531C263.078 12.2865 263.432 12.0573 263.734 11.7656C263.901 11.599 264.047 11.4167 264.172 11.2188C264.297 11.0208 264.406 10.8125 264.5 10.5938C264.583 10.375 264.646 10.151 264.688 9.92188C264.74 9.69271 264.76 9.45833 264.75 9.21875C264.781 8.60417 264.792 7.98958 264.781 7.375C264.781 6.75 264.76 6.125 264.719 5.5V5.51562ZM262.328 9.70312C261.88 9.95312 261.505 9.875 261.203 9.46875C260.901 9.05208 260.938 8.75521 261.312 8.57812C261.375 8.54688 261.432 8.53125 261.484 8.53125C261.547 8.53125 261.604 8.54167 261.656 8.5625C261.719 8.57292 261.771 8.59896 261.812 8.64062C261.854 8.68229 261.891 8.72917 261.922 8.78125C261.964 8.875 262.021 8.95833 262.094 9.03125C262.167 9.10417 262.25 9.16146 262.344 9.20312C262.365 9.22396 262.38 9.24479 262.391 9.26562C262.411 9.27604 262.432 9.29167 262.453 9.3125C262.464 9.33333 262.469 9.35938 262.469 9.39062C262.479 9.41146 262.484 9.4375 262.484 9.46875C262.484 9.48958 262.479 9.51562 262.469 9.54688C262.458 9.56771 262.448 9.58854 262.438 9.60938C262.427 9.63021 262.411 9.65104 262.391 9.67188C262.37 9.68229 262.349 9.69271 262.328 9.70312ZM263.391 8.76562C263.37 8.81771 263.339 8.86458 263.297 8.90625C263.255 8.94792 263.208 8.98438 263.156 9.01562C263.115 9.04688 263.062 9.07292 263 9.09375C262.948 9.10417 262.891 9.10417 262.828 9.09375C262.776 9.09375 262.719 9.08333 262.656 9.0625C262.604 9.04167 262.557 9.01562 262.516 8.98438C262.464 8.95312 262.417 8.91667 262.375 8.875C262.344 8.82292 262.318 8.76562 262.297 8.70312C262.161 8.38021 261.953 8.20312 261.672 8.17188C261.401 8.13021 261.115 8.19271 260.812 8.35938C260.115 8.74479 259.505 8.67188 258.984 8.14062C258.464 7.59896 258.385 6.96875 258.75 6.25C259.062 5.64583 259.495 5.23438 260.047 5.01562C260.589 4.79688 261.13 4.75 261.672 4.875C262.224 5 262.703 5.28646 263.109 5.73438C263.526 6.19271 263.745 6.79688 263.766 7.54688C263.766 7.76562 263.729 7.97917 263.656 8.1875C263.594 8.38542 263.505 8.57812 263.391 8.76562ZM282.5 5.45312C282.49 5.38021 282.479 5.30729 282.469 5.23438C282.458 5.16146 282.448 5.08854 282.438 5.01562C282.396 4.69271 282.297 4.38542 282.141 4.09375C281.995 3.79167 281.807 3.52604 281.578 3.29688C281.432 3.15104 281.271 3.02604 281.094 2.92188C280.917 2.80729 280.734 2.71354 280.547 2.64062C280.359 2.56771 280.161 2.51562 279.953 2.48438C279.755 2.44271 279.552 2.42188 279.344 2.42188C278.792 2.42188 278.234 2.42188 277.672 2.42188C277.12 2.42188 276.568 2.42188 276.016 2.42188C275.932 2.42188 275.88 2.4375 275.859 2.46875C275.839 2.5 275.828 2.55208 275.828 2.625C275.828 3.45833 275.828 4.28646 275.828 5.10938C275.828 5.94271 275.828 6.77604 275.828 7.60938C275.828 8.44271 275.828 9.27604 275.828 10.1094C275.828 10.9323 275.828 11.7604 275.828 12.5938C275.828 12.6771 275.839 12.7344 275.859 12.7656C275.891 12.7865 275.943 12.7969 276.016 12.7969C276.307 12.7969 276.599 12.7969 276.891 12.7969C277.193 12.7969 277.49 12.7969 277.781 12.7969C277.792 12.7552 277.797 12.7135 277.797 12.6719C277.807 12.6302 277.807 12.5885 277.797 12.5469V9.3125C277.797 9.17708 277.807 9.09896 277.828 9.07812C277.849 9.05729 277.922 9.04688 278.047 9.04688C278.286 9.04688 278.521 9.04688 278.75 9.04688C278.99 9.04688 279.224 9.04688 279.453 9.04688C279.682 9.03646 279.906 9.00521 280.125 8.95312C280.354 8.90104 280.568 8.82812 280.766 8.73438C281.318 8.45312 281.729 8.08333 282 7.625C282.271 7.16667 282.432 6.63542 282.484 6.03125C282.495 5.9375 282.5 5.84375 282.5 5.75C282.5 5.65625 282.495 5.5625 282.484 5.46875L282.5 5.45312ZM280.391 6.59375C280.359 6.71875 280.302 6.83854 280.219 6.95312C280.146 7.05729 280.052 7.15104 279.938 7.23438C279.833 7.30729 279.714 7.36458 279.578 7.40625C279.453 7.4375 279.323 7.44792 279.188 7.4375C279 7.4375 278.807 7.4375 278.609 7.4375C278.411 7.4375 278.214 7.4375 278.016 7.4375C277.922 7.4375 277.859 7.42188 277.828 7.39062C277.797 7.34896 277.781 7.28646 277.781 7.20312C277.792 6.95312 277.792 6.70312 277.781 6.45312C277.781 6.20312 277.781 5.95312 277.781 5.70312C277.781 5.45312 277.781 5.19792 277.781 4.9375C277.781 4.67708 277.781 4.42188 277.781 4.17188C277.781 4.09896 277.792 4.05208 277.812 4.03125C277.844 4 277.896 3.98438 277.969 3.98438C278.135 3.98438 278.307 3.98438 278.484 3.98438C278.661 3.98438 278.839 3.98438 279.016 3.98438C279.453 3.98438 279.786 4.07812 280.016 4.26562C280.245 4.45312 280.401 4.77083 280.484 5.21875C280.536 5.44792 280.552 5.68229 280.531 5.92188C280.521 6.15104 280.474 6.375 280.391 6.59375ZM234.109 14.4219C234.036 14.4219 233.964 14.4167 233.891 14.4062C233.828 14.3958 233.76 14.3854 233.688 14.375C233.573 14.3438 233.464 14.3021 233.359 14.25C233.255 14.1979 233.161 14.1354 233.078 14.0625C232.953 13.9583 232.839 13.849 232.734 13.7344C232.641 13.6094 232.562 13.4792 232.5 13.3438C232.448 13.2188 232.406 13.099 232.375 12.9844C232.354 12.8594 232.349 12.7292 232.359 12.5938C232.359 12.5521 232.359 12.5156 232.359 12.4844C232.37 12.4427 232.38 12.401 232.391 12.3594C232.401 12.349 232.401 12.3385 232.391 12.3281C232.391 12.3177 232.391 12.3073 232.391 12.2969C232.391 12.276 232.385 12.2656 232.375 12.2656C232.375 12.2552 232.37 12.2448 232.359 12.2344C232.255 12.0781 232.151 11.9219 232.047 11.7656C231.953 11.6094 231.865 11.4479 231.781 11.2812C231.781 11.2708 231.776 11.2656 231.766 11.2656C231.766 11.2552 231.766 11.2448 231.766 11.2344C231.766 11.224 231.766 11.2135 231.766 11.2031C231.776 11.1927 231.781 11.1823 231.781 11.1719C231.833 11.099 231.885 11.026 231.938 10.9531C231.99 10.8698 232.047 10.7917 232.109 10.7188C232.161 10.6562 232.214 10.5938 232.266 10.5312C232.318 10.4688 232.375 10.4062 232.438 10.3438L232.469 10.3125C232.49 10.2917 232.51 10.2812 232.531 10.2812C232.552 10.2708 232.573 10.2812 232.594 10.3125C232.708 10.4896 232.828 10.6615 232.953 10.8281C233.078 10.9844 233.203 11.1406 233.328 11.2969C233.432 11.4219 233.536 11.5469 233.641 11.6719C233.755 11.7969 233.865 11.9219 233.969 12.0469C234.083 12.1719 234.193 12.2917 234.297 12.4062C234.411 12.5104 234.521 12.6198 234.625 12.7344C234.781 12.8802 234.938 13.026 235.094 13.1719C235.25 13.3073 235.406 13.4375 235.562 13.5625C235.698 13.6667 235.828 13.7708 235.953 13.875C236.089 13.9688 236.229 14.0625 236.375 14.1562C236.385 14.1667 236.391 14.1771 236.391 14.1875C236.391 14.1979 236.385 14.2083 236.375 14.2188C236.24 14.3646 236.094 14.5 235.938 14.625C235.792 14.7604 235.641 14.8802 235.484 14.9844C235.474 14.9948 235.464 15 235.453 15C235.443 15 235.432 15 235.422 15C235.422 15 235.422 14.9948 235.422 14.9844C235.266 14.901 235.115 14.8125 234.969 14.7188C234.823 14.625 234.682 14.526 234.547 14.4219C234.526 14.401 234.505 14.3854 234.484 14.375C234.474 14.3646 234.458 14.3594 234.438 14.3594C234.417 14.349 234.391 14.3438 234.359 14.3438C234.339 14.3438 234.318 14.349 234.297 14.3594C234.276 14.3698 234.255 14.375 234.234 14.375C234.214 14.375 234.193 14.375 234.172 14.375C234.172 14.3958 234.167 14.4062 234.156 14.4062C234.146 14.4062 234.13 14.4115 234.109 14.4219ZM246.609 5.4375C246.484 4.73958 246.25 4.07812 245.906 3.45312C245.562 2.81771 245.13 2.26042 244.609 1.78125C244.005 1.20833 243.318 0.770833 242.547 0.46875C241.776 0.15625 240.979 0 240.156 0C239.979 0 239.807 0.0104167 239.641 0.03125C239.474 0.0416667 239.307 0.0572917 239.141 0.078125C238.786 0.140625 238.438 0.229167 238.094 0.34375C237.76 0.458333 237.432 0.598958 237.109 0.765625C236.932 0.859375 236.76 0.963542 236.594 1.07812C236.427 1.18229 236.266 1.30208 236.109 1.4375C236.016 1.51042 235.922 1.58854 235.828 1.67188C235.745 1.75521 235.661 1.83854 235.578 1.92188C235.516 1.98438 235.448 2.05208 235.375 2.125C235.312 2.1875 235.25 2.25521 235.188 2.32812C235.125 2.40104 235.073 2.46354 235.031 2.51562C234.99 2.56771 234.943 2.61979 234.891 2.67188C234.797 2.79688 234.708 2.92188 234.625 3.04688C234.542 3.17188 234.464 3.30208 234.391 3.4375C234.286 3.61458 234.193 3.79688 234.109 3.98438C234.026 4.16146 233.948 4.34896 233.875 4.54688C233.833 4.66146 233.792 4.78125 233.75 4.90625C233.719 5.02083 233.688 5.14062 233.656 5.26562C233.635 5.39062 233.609 5.52083 233.578 5.65625C233.557 5.78125 233.536 5.91146 233.516 6.04688C233.505 6.13021 233.5 6.21354 233.5 6.29688C233.5 6.36979 233.495 6.44792 233.484 6.53125C233.484 6.55208 233.479 6.57292 233.469 6.59375C233.469 6.60417 233.469 6.61458 233.469 6.625V7.10938C233.479 7.13021 233.479 7.15104 233.469 7.17188C233.469 7.19271 233.469 7.20833 233.469 7.21875C233.469 7.32292 233.474 7.42708 233.484 7.53125C233.495 7.625 233.505 7.71875 233.516 7.8125C233.536 7.92708 233.552 8.03646 233.562 8.14062C233.583 8.24479 233.609 8.34896 233.641 8.45312C233.641 8.47396 233.641 8.49479 233.641 8.51562C233.651 8.52604 233.651 8.54688 233.641 8.57812C233.599 8.63021 233.552 8.68229 233.5 8.73438C233.458 8.77604 233.417 8.82812 233.375 8.89062C233.312 8.97396 233.25 9.05729 233.188 9.14062C233.125 9.22396 233.068 9.3125 233.016 9.40625C233.005 9.40625 233 9.41146 233 9.42188C233 9.43229 233 9.4375 233 9.4375C233 9.44792 233 9.45833 233 9.46875C233 9.46875 233.005 9.47396 233.016 9.48438C233.068 9.56771 233.115 9.65104 233.156 9.73438C233.208 9.80729 233.255 9.88542 233.297 9.96875C233.443 10.1979 233.589 10.4219 233.734 10.6406C233.891 10.849 234.052 11.0521 234.219 11.25C234.323 11.375 234.422 11.4948 234.516 11.6094C234.62 11.7135 234.724 11.8281 234.828 11.9531C234.88 12.0052 234.932 12.0573 234.984 12.1094C235.036 12.1615 235.089 12.2083 235.141 12.25C235.193 12.3021 235.25 12.3594 235.312 12.4219C235.385 12.4844 235.453 12.5469 235.516 12.6094C235.599 12.6823 235.682 12.7552 235.766 12.8281C235.859 12.901 235.948 12.974 236.031 13.0469C236.146 13.1406 236.26 13.2344 236.375 13.3281C236.5 13.4115 236.62 13.4948 236.734 13.5781C236.859 13.6615 236.979 13.7448 237.094 13.8281C237.219 13.901 237.344 13.974 237.469 14.0469C237.479 14.0573 237.49 14.0625 237.5 14.0625C237.51 14.0729 237.526 14.0781 237.547 14.0781C237.557 14.0781 237.568 14.0729 237.578 14.0625C237.589 14.0625 237.599 14.0573 237.609 14.0469C237.745 13.9635 237.87 13.875 237.984 13.7812C238.109 13.6771 238.229 13.5677 238.344 13.4531C238.354 13.4531 238.365 13.4479 238.375 13.4375C238.385 13.4271 238.396 13.4271 238.406 13.4375C238.427 13.4375 238.448 13.4427 238.469 13.4531C238.49 13.4531 238.516 13.4583 238.547 13.4688C238.661 13.5 238.776 13.526 238.891 13.5469C239.005 13.5677 239.125 13.5833 239.25 13.5938C239.333 13.6042 239.417 13.6146 239.5 13.625C239.594 13.625 239.688 13.625 239.781 13.625C239.812 13.625 239.839 13.625 239.859 13.625C239.891 13.625 239.922 13.625 239.953 13.625C239.974 13.625 239.995 13.625 240.016 13.625C240.047 13.625 240.073 13.625 240.094 13.625C240.125 13.625 240.151 13.625 240.172 13.625C240.203 13.625 240.234 13.625 240.266 13.625C240.339 13.625 240.411 13.625 240.484 13.625C240.557 13.6146 240.63 13.6042 240.703 13.5938C240.891 13.5729 241.073 13.5469 241.25 13.5156C241.427 13.4844 241.604 13.4427 241.781 13.3906C242.062 13.3073 242.333 13.2083 242.594 13.0938C242.865 12.9792 243.125 12.849 243.375 12.7031C243.656 12.526 243.927 12.3281 244.188 12.1094C244.448 11.8906 244.688 11.6562 244.906 11.4062C245.281 11.0104 245.599 10.5781 245.859 10.1094C246.13 9.64062 246.339 9.14583 246.484 8.625C246.63 8.11458 246.714 7.58854 246.734 7.04688C246.755 6.50521 246.714 5.96875 246.609 5.4375ZM244.047 10.8438C243.693 11.2188 243.292 11.5365 242.844 11.7969C242.396 12.0469 241.922 12.224 241.422 12.3281C241.182 12.3906 240.943 12.4375 240.703 12.4688C240.464 12.4896 240.224 12.4948 239.984 12.4844C239.307 12.4635 238.656 12.3229 238.031 12.0625C237.406 11.8021 236.849 11.4323 236.359 10.9531C235.932 10.5469 235.573 10.0833 235.281 9.5625C235 9.04167 234.807 8.48438 234.703 7.89062C234.609 7.46354 234.568 7.03646 234.578 6.60938C234.589 6.17188 234.646 5.73958 234.75 5.3125C234.865 4.89583 235.021 4.49479 235.219 4.10938C235.417 3.72396 235.661 3.36458 235.953 3.03125C236.339 2.57292 236.786 2.19271 237.297 1.89062C237.818 1.57812 238.37 1.36458 238.953 1.25C239.161 1.20833 239.375 1.17708 239.594 1.15625C239.812 1.13542 240.026 1.13021 240.234 1.14062C240.839 1.16146 241.422 1.28125 241.984 1.5C242.557 1.70833 243.073 2.00521 243.531 2.39062C244.021 2.77604 244.432 3.23438 244.766 3.76562C245.099 4.29688 245.339 4.86979 245.484 5.48438C245.536 5.71354 245.573 5.94271 245.594 6.17188C245.625 6.40104 245.641 6.63542 245.641 6.875C245.641 7.61458 245.505 8.32812 245.234 9.01562C244.964 9.70312 244.568 10.3125 244.047 10.8438ZM240.031 2.25C240.552 2.25 241.057 2.33854 241.547 2.51562C242.047 2.69271 242.505 2.94792 242.922 3.28125C243.328 3.60417 243.667 3.99479 243.938 4.45312C244.219 4.90104 244.417 5.38542 244.531 5.90625C244.667 6.46875 244.693 7.04167 244.609 7.625C244.536 8.20833 244.359 8.75521 244.078 9.26562C244.047 9.32812 244.01 9.39062 243.969 9.45312C243.938 9.51562 243.901 9.57292 243.859 9.625C243.807 9.6875 243.74 9.74479 243.656 9.79688C243.583 9.84896 243.505 9.89062 243.422 9.92188C243.339 9.95312 243.25 9.97396 243.156 9.98438C243.062 9.98438 242.974 9.97917 242.891 9.96875C242.797 9.94792 242.708 9.91667 242.625 9.875C242.542 9.83333 242.469 9.78125 242.406 9.71875C242.333 9.66667 242.271 9.60417 242.219 9.53125C242.167 9.44792 242.125 9.36458 242.094 9.28125C242.031 9.07292 241.927 8.89062 241.781 8.73438C241.646 8.56771 241.484 8.4375 241.297 8.34375C241.161 8.27083 241.016 8.21875 240.859 8.1875C240.714 8.14583 240.562 8.13021 240.406 8.14062C240.26 8.15104 240.115 8.18229 239.969 8.23438C239.823 8.27604 239.682 8.33854 239.547 8.42188C239.38 8.52604 239.203 8.60938 239.016 8.67188C238.828 8.72396 238.635 8.76042 238.438 8.78125C238.24 8.79167 238.042 8.78125 237.844 8.75C237.656 8.71875 237.469 8.66667 237.281 8.59375C237.104 8.52083 236.932 8.42708 236.766 8.3125C236.599 8.19792 236.453 8.06771 236.328 7.92188C236.193 7.77604 236.078 7.61979 235.984 7.45312C235.891 7.27604 235.812 7.08854 235.75 6.89062C235.698 6.72396 235.661 6.55208 235.641 6.375C235.63 6.1875 235.635 6 235.656 5.8125C235.667 5.63542 235.698 5.46354 235.75 5.29688C235.812 5.11979 235.885 4.94792 235.969 4.78125C236.125 4.46875 236.318 4.17708 236.547 3.90625C236.776 3.63542 237.031 3.39583 237.312 3.1875C237.583 2.96875 237.88 2.79167 238.203 2.65625C238.526 2.51042 238.859 2.40104 239.203 2.32812C239.255 2.31771 239.302 2.3125 239.344 2.3125C239.396 2.30208 239.448 2.29167 239.5 2.28125C239.583 2.27083 239.667 2.26562 239.75 2.26562C239.844 2.25521 239.938 2.25 240.031 2.25ZM241.906 11.1406C241.99 11.1198 242.062 11.0938 242.125 11.0625C242.198 11.0208 242.26 10.974 242.312 10.9219C242.344 10.8906 242.37 10.8542 242.391 10.8125C242.411 10.7708 242.427 10.7292 242.438 10.6875C242.448 10.6458 242.453 10.6042 242.453 10.5625C242.453 10.5208 242.448 10.4792 242.438 10.4375C242.427 10.3854 242.411 10.3438 242.391 10.3125C242.37 10.2708 242.344 10.2344 242.312 10.2031C242.281 10.1719 242.245 10.1458 242.203 10.125C242.172 10.0938 242.135 10.0729 242.094 10.0625C242.031 10.0521 241.969 10.0312 241.906 10C241.854 9.95833 241.807 9.91667 241.766 9.875C241.724 9.82292 241.682 9.76562 241.641 9.70312C241.609 9.64062 241.583 9.57292 241.562 9.5C241.521 9.41667 241.469 9.33854 241.406 9.26562C241.344 9.19271 241.271 9.13021 241.188 9.07812C241.104 9.03646 241.016 9.00521 240.922 8.98438C240.828 8.96354 240.734 8.96354 240.641 8.98438C240.568 8.99479 240.5 9.01562 240.438 9.04688C240.385 9.06771 240.328 9.09896 240.266 9.14062C240.214 9.18229 240.167 9.22917 240.125 9.28125C240.083 9.32292 240.047 9.375 240.016 9.4375C239.984 9.5 239.958 9.5625 239.938 9.625C239.927 9.6875 239.922 9.75 239.922 9.8125C239.922 9.88542 239.927 9.95312 239.938 10.0156C239.948 10.0781 239.969 10.1406 240 10.2031C240.062 10.3594 240.141 10.5 240.234 10.625C240.339 10.75 240.458 10.8542 240.594 10.9375C240.729 11.0312 240.875 11.1042 241.031 11.1562C241.188 11.1979 241.344 11.2135 241.5 11.2031C241.573 11.2031 241.641 11.1979 241.703 11.1875C241.776 11.1771 241.844 11.1615 241.906 11.1406Z" fill="black"/>
</svg>
